<?xml version="1.0" encoding="UTF-8"?>
<svg xmlns="http://www.w3.org/2000/svg" xmlns:xlink="http://www.w3.org/1999/xlink" width="50px" height="50px" viewBox="0 0 50 50" version="1.1">
  <title>Artboard</title>
  <g id="Artboard" stroke="none" stroke-width="1" fill="none" fill-rule="evenodd">
    <g id="Group-5" transform="translate(14.000000, 12.000000)" fill-rule="nonzero">
      <g id="Group-6">
        <path d="M4.94202899,0 C2.56480332,0 0.637681159,1.92712216 0.637681159,4.30434783 C0.637681159,6.68157349 2.56480332,8.60869565 4.94202899,8.60869565 C7.31925465,8.60869565 9.24637681,6.68157349 9.24637681,4.30434783 C9.24637681,1.92712216 7.31925465,0 4.94202899,0 Z M4.94202899,1.43478261 C6.52684609,1.43478261 7.8115942,2.71953072 7.8115942,4.30434783 C7.8115942,5.88916493 6.52684609,7.17391304 4.94202899,7.17391304 C3.35721188,7.17391304 2.07246377,5.88916493 2.07246377,4.30434783 C2.07246377,2.71953072 3.35721188,1.43478261 4.94202899,1.43478261 Z" id="Oval" fill="#FFFFFF"></path>
        <path d="M5.26086957,8.92753623 C8.09373015,8.92753623 10.4036267,11.1666113 10.517351,13.9715531 L10.5217391,14.1884058 L10.5212092,18.0502031 C9.98830582,18.1304558 9.49861025,18.3426026 9.08642958,18.6523363 L9.08695652,14.1884058 C9.08695652,12.0753163 7.37395904,10.3623188 5.26086957,10.3623188 C3.21381413,10.3623188 1.54223567,11.9699268 1.43976109,13.9915159 L1.43478261,14.1884058 L1.43478261,21.8405797 C1.43478261,22.2287577 1.49258993,22.6034342 1.60006555,22.9564699 L0.118508267,22.9561217 C0.0602860182,22.6864607 0.0227362424,22.4091075 0.00760024506,22.1258032 L0,21.8405797 L0,14.1884058 C0,11.2829078 2.35537153,8.92753623 5.26086957,8.92753623 Z" id="Combined-Shape" fill="#FFFFFF"></path>
        <path d="M16.7391304,10.2028986 C19.571991,10.2028986 21.8818876,12.4419736 21.9956119,15.2469155 L22,15.4637681 L21.9992609,22.9558986 L20.5642609,22.9558986 L20.5652174,15.4637681 C20.5652174,13.4167127 18.9576094,11.7451342 16.9360204,11.6426596 L16.7391304,11.6376812 C14.692075,11.6376812 13.0204965,13.2452891 12.918022,15.2668782 L12.9130435,15.4637681 L12.9135704,18.6523363 C12.5013897,18.3426026 12.0116942,18.1304558 11.4787908,18.0502031 L11.4782609,15.4637681 C11.4782609,12.6309075 13.7173359,10.321011 16.5222778,10.2072867 L16.7391304,10.2028986 Z" id="Combined-Shape" fill="#FFFFFF"></path>
        <path d="M16.4202899,1.27536232 C14.0430642,1.27536232 12.115942,3.20248448 12.115942,5.57971014 C12.115942,7.95693581 14.0430642,9.88405797 16.4202899,9.88405797 C18.7975155,9.88405797 20.7246377,7.95693581 20.7246377,5.57971014 C20.7246377,3.20248448 18.7975155,1.27536232 16.4202899,1.27536232 Z M16.4202899,2.71014493 C18.005107,2.71014493 19.2898551,3.99489304 19.2898551,5.57971014 C19.2898551,7.16452725 18.005107,8.44927536 16.4202899,8.44927536 C14.8354727,8.44927536 13.5507246,7.16452725 13.5507246,5.57971014 C13.5507246,3.99489304 14.8354727,2.71014493 16.4202899,2.71014493 Z" id="Oval" fill="#FFFFFF"></path>
        <path d="M11,16.5797101 C13.482391,16.5797101 15.5078225,18.5361863 15.618431,20.9912753 L15.6231884,21.2028986 L15.6231739,22.9557101 L14.1879565,22.9564928 L14.1884058,21.2028986 C14.1884058,19.4419907 12.7609079,18.0144928 11,18.0144928 C9.2390921,18.0144928 7.8115942,19.4419907 7.8115942,21.2028986 L7.8115942,21.2028986 L7.81095652,22.9564928 L6.37617391,22.9557101 L6.37681159,21.2028986 C6.37681159,18.7205076 8.33328778,16.6950761 10.7883767,16.5844675 L11,16.5797101 Z" id="Combined-Shape" fill="#FFFFFF"></path>
        <path d="M10.6811594,10.6198439 C8.65611534,10.6198439 7.01449275,12.2614665 7.01449275,14.2865106 C7.01449275,16.3115547 8.65611534,17.9531773 10.6811594,17.9531773 C12.7062035,17.9531773 14.3478261,16.3115547 14.3478261,14.2865106 C14.3478261,12.2614665 12.7062035,10.6198439 10.6811594,10.6198439 Z" id="Oval" fill="#FFFFFF"></path>
        <path d="M10.6811594,12.0546265 C11.9137949,12.0546265 12.9130435,13.0538751 12.9130435,14.2865106 C12.9130435,15.5191461 11.9137949,16.5183946 10.6811594,16.5183946 C9.44852389,16.5183946 8.44927536,15.5191461 8.44927536,14.2865106 C8.44927536,13.0538751 9.44852389,12.0546265 10.6811594,12.0546265 Z" id="Path" fill="#4B5E5B"></path>
      </g>
    </g>
  </g>
</svg>
