<?xml version="1.0" encoding="UTF-8"?>
<svg xmlns="http://www.w3.org/2000/svg" xmlns:xlink="http://www.w3.org/1999/xlink" width="50px" height="50px" viewBox="0 0 50 50" version="1.1">
  <title>Artboard</title>
  <g id="Artboard" stroke="none" stroke-width="1" fill="none" fill-rule="evenodd">
    <g id="Group-7" transform="translate(11.000000, 14.000000)" fill="#FFFFFF" fill-rule="nonzero">
      <path d="M17.9375,0 C23.4948653,0 28,4.50513471 28,10.0625 C28,15.6198653 23.4948653,20.125 17.9375,20.125 C12.3801347,20.125 7.875,15.6198653 7.875,10.0625 C7.875,4.50513471 12.3801347,0 17.9375,0 Z M1.29274198,3.10862447e-15 L1.292,4.764 L2.585,4.764 L2.58548395,0 L3.87822593,0 L3.878,4.764 L5.17,4.764 L5.1709679,3.10862447e-15 L6.46370988,2.66453526e-15 L6.46370988,5.80076527 C6.46370988,7.30396708 5.35370424,8.55788456 3.87883256,8.84603732 L3.87822593,18.4961544 L2.58548395,18.4961544 L2.58527778,8.84611553 C1.16827498,8.56944924 0.087975368,7.40133797 0.00511606533,5.9771059 L2.48689958e-14,5.80076527 L2.48689958e-14,2.66453526e-15 L1.29274198,3.10862447e-15 Z M17.9375,1.75 C13.346633,1.75 9.625,5.47163302 9.625,10.0625 C9.625,14.653367 13.346633,18.375 17.9375,18.375 C22.528367,18.375 26.25,14.653367 26.25,10.0625 C26.25,5.47163302 22.528367,1.75 17.9375,1.75 Z M17.9375,4.375 C21.0786195,4.375 23.625,6.92138049 23.625,10.0625 C23.625,13.2036195 21.0786195,15.75 17.9375,15.75 C14.7963805,15.75 12.25,13.2036195 12.25,10.0625 C12.25,6.92138049 14.7963805,4.375 17.9375,4.375 Z M17.9375,5.6875 C15.5212542,5.6875 13.5625,7.64625422 13.5625,10.0625 C13.5625,12.4787458 15.5212542,14.4375 17.9375,14.4375 C20.3537458,14.4375 22.3125,12.4787458 22.3125,10.0625 C22.3125,7.64625422 20.3537458,5.6875 17.9375,5.6875 Z M5.15915729,6.00772507 L1.30455259,6.00772507 C1.41163095,6.94008195 2.23366376,7.66529697 3.23185494,7.66529697 C4.23004612,7.66529697 5.05207893,6.94008195 5.15915729,6.00772507 Z" id="Combined-Shape"></path>
    </g>
  </g>
</svg>
