<?xml version="1.0" encoding="UTF-8"?>
<svg xmlns="http://www.w3.org/2000/svg" xmlns:xlink="http://www.w3.org/1999/xlink" width="50px" height="50px" viewBox="0 0 50 50" version="1.1">
  <title>Artboard</title>
  <g id="Artboard" stroke="none" stroke-width="1" fill="none" fill-rule="evenodd">
    <g id="Group-4" transform="translate(14.000000, 14.000000)" fill="#FFFFFF" fill-rule="nonzero">
      <path d="M21,19.2653845 C21,20.2679937 20.2767677,21.0807691 19.3846154,21.0807691 L19.3846154,21.0807691 L1.61538462,21.0807691 C0.723232327,21.0807691 0,20.2679937 0,19.2653845 L0,19.2653845 L0,3.83461537 C0,2.83200614 0.723232327,2.01923077 1.61538462,2.01923077 L1.61538462,2.01923077 L6.057,2.019 L6.05769231,0 L7.67307692,0 L7.673,2.019 L14.134,2.019 L14.1346154,0 L15.75,0 L15.749,2.019 L19.3846154,2.01923077 C20.2298123,2.01923077 20.9234024,2.74870229 20.9940706,3.67797704 L21,3.83461537 Z M1.61538462,7.91538453 L1.61538462,19.2653845 L19.3846154,19.2653845 L19.384,7.915 L1.61538462,7.91538453 Z M8.88461538,14.3769231 L8.88461538,15.9923077 L7.26923077,15.9923077 L7.26923077,14.3769231 L8.88461538,14.3769231 Z M12.1153846,14.3769231 L12.1153846,15.9923077 L10.5,15.9923077 L10.5,14.3769231 L12.1153846,14.3769231 Z M12.1153846,10.3384615 L12.1153846,11.9538462 L10.5,11.9538462 L10.5,10.3384615 L12.1153846,10.3384615 Z M15.3461538,10.3384615 L15.3461538,11.9538462 L13.7307692,11.9538462 L13.7307692,10.3384615 L15.3461538,10.3384615 Z M1.61538462,6.78461538 L19.384,6.784 L19.3846154,3.83461537 L1.61538462,3.83461537 L1.61538462,6.78461538 Z" id="Calendar"></path>
    </g>
  </g>
</svg>
