<?xml version="1.0" encoding="UTF-8"?>
<svg xmlns="http://www.w3.org/2000/svg" xmlns:xlink="http://www.w3.org/1999/xlink" width="50px" height="50px" viewBox="0 0 50 50" version="1.1">
  <title>Artboard</title>
  <g id="Artboard" stroke="none" stroke-width="1" fill="none" fill-rule="evenodd">
    <g id="Group-8" transform="translate(9.000000, 12.000000)" fill="#FFFFFF">
      <path d="M16.9412514,2.96172138 C16.8225029,3.0207358 16.7116709,3.07615178 16.6001193,3.10997712 C16.5598168,3.12221182 16.4763329,3.10709837 16.443947,3.08190929 C15.7919096,2.56733233 15.1808944,2.55941576 14.5756368,3.05887927 C14.258974,3.32012603 13.9833335,3.63319034 13.7163292,3.93617901 C13.6702692,3.98799655 13.6249289,4.04053378 13.5788688,4.09163163 C13.3773562,4.31833337 13.1780026,4.55295167 12.9858459,4.77965341 C12.7303566,5.08048302 12.4669508,5.39138826 12.1963481,5.68502099 C12.0668042,5.82536016 11.9099122,5.94266931 11.744384,6.06501628 C11.8401025,5.84047361 11.9351013,5.61521125 12.0272214,5.3949867 C12.3482022,4.63211736 12.6799784,3.84405894 13.0527769,3.0934243 C13.3262583,2.54358262 13.7681468,2.0570735 14.076893,1.73897138 C14.3611697,1.44605834 14.6188181,1.30140104 14.895898,1.30140104 C15.1369935,1.30140104 15.3939221,1.41151331 15.6954714,1.63029848 C16.2158059,2.00669533 16.6346643,2.43850817 16.9714783,2.94660793 C16.9614027,2.95164575 16.9513271,2.95668357 16.9412514,2.96172138 M14.4057904,16.7595808 C14.4590473,18.3234629 14.0063635,19.7657178 13.0966778,20.9308928 C12.1877118,22.0946284 10.9081064,22.8733308 9.39532216,23.1813573 C7.08800225,23.6520333 4.56909405,22.5444334 3.27005711,20.489724 C3.04623413,20.1356375 2.80010081,19.8974207 2.3610911,19.8974207 C2.30711449,19.8974207 2.25025914,19.9017388 2.19052503,19.9089357 C1.82636287,19.9542761 1.50178356,19.7174987 1.36360345,19.3065568 C1.2462943,18.9589475 1.31610404,18.4889912 1.67450869,18.302592 C2.16389657,18.0492618 2.35533359,17.6779028 2.24378194,17.1985905 C2.2164338,14.2219607 4.14807654,11.6757044 6.94478432,11.002796 C9.4528972,10.3996974 12.0646452,11.4864264 13.4435675,13.7066641 C13.6882614,14.1010531 13.9732579,14.2521876 14.3957148,14.2118851 C14.8483986,14.1694235 15.1823338,14.4069205 15.3118777,14.8653618 C15.4284671,15.2784628 15.2507042,15.7002 14.8786255,15.8901976 C14.4432142,16.1133009 14.3949951,16.4551527 14.4057904,16.7595808 M16.6267477,15.4022491 C16.7958744,14.2413923 16.0481185,13.178413 14.8872617,12.929401 C14.741165,12.8984544 14.6958247,12.8581518 14.6526434,12.7235702 C14.4050707,11.9427086 14.3100719,11.2129449 14.3626091,10.4946963 C14.3935557,10.0722394 14.2488984,9.80091698 13.8940922,9.61667684 C13.504741,9.41444449 13.3428111,9.02365388 13.4701959,8.59759855 C13.5875051,8.20464887 13.8962513,7.97794713 14.3043144,7.97794713 C14.3323822,7.97794713 14.3611697,7.97938651 14.390677,7.98154557 C14.6915066,8.0038559 15.0038512,7.99881809 15.2319923,7.67783721 C15.2579011,7.66848127 15.3212336,7.66128439 15.357218,7.67136002 C17.0283337,8.13627851 18.8441066,7.8714333 20.3597697,6.94591446 C20.4195038,7.03947391 20.4777985,7.13231367 20.5346539,7.22443374 C20.7102578,7.50511208 20.8765057,7.77139666 21.0665034,8.02688592 C21.9797875,9.25395406 23.2327644,10.0161037 24.8952438,10.3586752 C25.1284227,10.4068943 25.3364126,10.3745084 25.4961833,10.2665552 C25.6365225,10.1715563 25.7279229,10.02474 25.7610285,9.84265889 C25.8279595,9.47201954 25.5811065,9.16327336 25.148574,9.07403204 C23.8783246,8.81278528 22.9477679,8.28453424 22.3014881,7.46121111 C21.8970234,6.94519477 21.5818,6.34425525 21.3176745,5.82176172 C21.1535856,5.49646272 20.9808605,5.32301789 20.7750297,5.27695786 C20.5756761,5.2323372 20.3604894,5.30718476 20.0985229,5.51085648 C18.9290298,6.42198156 17.5940085,6.75591681 16.1294433,6.50474568 C16.1423977,6.48891255 16.1553521,6.47451878 16.1690261,6.46084471 C17.2852623,5.32301789 18.8743335,4.68537428 20.5281767,4.71128305 C22.1928152,4.73647213 23.7732501,5.42953173 24.8628579,6.6119792 C26.0388281,7.88726644 26.5973061,9.39501292 26.5231782,11.092757 C26.5030269,11.5598346 26.6570402,11.8433917 27.0384748,12.0420256 C27.3983189,12.2284248 27.5566502,12.6739117 27.4083945,13.0776567 C27.2579797,13.4878789 26.8693482,13.7253759 26.4641638,13.6555662 C25.9942075,13.5749611 25.7610285,13.8203748 25.5955003,14.0722656 C24.3490006,15.9664846 22.5857648,16.9265484 20.3540122,16.9265484 C20.3216262,16.9265484 20.2892403,16.9265484 20.2568543,16.9258287 C19.0060365,16.9107153 17.8271874,16.4932962 16.7519735,15.6850865 C16.6397021,15.600883 16.6051571,15.5476261 16.6267477,15.4022491 M30.6606648,8.37017712 C30.6282789,8.93441256 30.508091,9.50872363 30.3907818,10.0643228 C30.3591155,10.2168967 30.3274493,10.3687509 30.2972224,10.5213247 C30.2331701,10.8401465 30.1511257,11.1553699 30.0647631,11.4893052 C30.0554072,11.5260092 30.0453315,11.563433 30.0359756,11.6001371 C30.0251803,11.5706299 30.0172637,11.5418424 30.0129456,11.5130549 C29.9028333,10.8415859 29.8049557,10.1550035 29.7106766,9.49145111 L29.6782906,9.26906751 C29.6545409,9.10138019 29.6351094,8.92865505 29.6163975,8.76168743 C29.5796934,8.43063092 29.5415499,8.08877909 29.4645433,7.75772259 C29.2723866,6.92504351 28.8290587,6.57527511 27.9344865,6.54936634 C27.8862674,6.54792697 27.8099804,6.50546537 27.7725567,6.46084471 C27.7041863,6.37664121 27.6466113,6.27732426 27.5804,6.16289386 C27.5732031,6.15137885 27.5667259,6.13986384 27.559529,6.12834883 C28.2151648,5.87645801 28.8715203,5.76346698 29.5617012,5.78217887 C30.0582859,5.79585295 30.3950999,6.06285722 30.4857806,6.51338194 C30.6354758,7.25250157 30.6908917,7.84264578 30.6606648,8.37017712 M31.922278,6.83148406 C31.730841,5.26040503 30.7275958,4.42340782 29.1011008,4.47090724 C28.3511859,4.49321757 27.6631641,4.73071462 26.9981723,4.96029511 C26.6001848,5.09775553 26.1892429,5.23953408 25.7747026,5.33093446 C25.561675,5.3769945 25.4875471,5.38635044 25.3500867,5.2683216 C23.5947675,3.75553731 21.55877,3.15747653 19.3003889,3.49141179 C19.1571709,3.51300243 19.1139897,3.49213148 19.0456193,3.36762545 C18.9657339,3.22440752 18.8527429,3.10637868 18.7426306,2.99194828 C18.7109644,2.95956232 18.6800178,2.92717636 18.6490712,2.89335102 C18.5936552,2.83289722 18.5339211,2.77676155 18.476346,2.72206526 C18.3791882,2.63066488 18.2863484,2.54286293 18.2208568,2.44282629 C17.6630985,1.58999595 17.0211368,0.931481377 16.2589871,0.43057849 C15.3708921,-0.153088523 14.4432142,-0.14301289 13.5781491,0.458646325 C13.2888345,0.66015898 13.0484587,0.873906333 12.8627792,1.09413088 C11.9199879,2.21252612 11.3075333,3.31652759 10.9894312,4.4673088 C10.7533735,5.32373758 10.3633026,5.99232779 9.79906715,6.51338194 C9.54501727,6.74728056 9.46873034,7.00420919 9.57020635,7.27625128 C9.69327301,7.60370934 9.98042854,7.69007191 10.2164862,7.72821538 C11.1959817,7.88654675 12.0862358,7.58643683 12.8627792,6.83580219 C13.2895542,6.42270124 13.6832236,5.96354026 14.0632189,5.51949273 C14.2481787,5.30358632 14.4403354,5.07976333 14.6324921,4.86529629 C14.895898,4.57166356 15.1384328,4.31401524 15.3752102,4.07867725 C15.4234293,4.03117783 15.4716484,4.00670844 15.5076328,4.01246594 C15.5508141,4.01966283 15.5832001,4.07148037 15.5990332,4.10170726 C15.6587673,4.21757704 15.7048273,4.33992401 15.7537661,4.46946786 C15.7976671,4.58533764 15.8422878,4.70480585 15.8984234,4.82067563 C15.938726,4.90415945 15.9372866,4.92071227 15.827894,5.02290798 L15.7746371,5.07184676 C15.4227096,5.39714576 15.0592672,5.73324009 14.741165,6.10315975 C14.4648048,6.42486031 14.2467393,6.6781905 13.7911768,6.74943962 C12.9894443,6.87466534 12.4216104,7.43026452 12.1934693,8.31404146 C11.9826007,9.13016771 12.2035449,9.86065109 12.8512642,10.4846206 L12.8649383,10.497575 C12.9239527,10.5544304 13.0232696,10.6501489 13.0297468,10.7055649 C13.0506178,10.8790097 13.047739,11.0625301 13.0434209,11.2561262 C11.7271115,10.170117 10.2481525,9.60156339 8.53385555,9.52383708 L8.61661968,9.2510753 C8.83180641,8.53642506 8.69794443,7.83904734 8.24813939,7.33958383 C7.81848562,6.86171096 7.17076637,6.63716828 6.55831184,6.75375775 C6.06532552,6.8473172 5.62271737,7.10064739 5.16643514,7.55261149 C4.84833302,7.86639548 4.82098487,8.2391939 5.09302696,8.52419037 C5.34995559,8.79263401 5.72203432,8.78327807 6.06532552,8.50116035 L6.12793838,8.44934281 C6.29418632,8.31188239 6.46619177,8.16866447 6.6511516,8.08733972 C6.84114924,8.00313621 7.0369044,8.01896935 7.18875858,8.12980131 C7.34852932,8.24711047 7.42913439,8.44862312 7.40538468,8.66884767 C7.33845369,9.26834782 7.03186658,9.62243434 6.440283,9.78436415 C3.24990585,10.6559064 0.989365662,13.5699233 0.944025314,16.8696931 C0.941146562,17.102872 0.882132142,17.2403324 0.717323577,17.395785 C0.0660058862,18.0096789 -0.147741466,18.7862224 0.100550913,19.6412118 C0.34956298,20.501239 0.954100947,21.0489216 1.80261317,21.1827836 C2.11351841,21.2324421 2.26681196,21.3655843 2.44025678,21.5951648 C3.8673982,23.4785885 5.73858714,24.4811139 7.99984701,24.5739537 C8.10492147,24.5789915 8.20999593,24.5811506 8.3143507,24.5811506 C10.2143272,24.5811506 12.0077898,23.8665003 13.3924696,22.5516303 C14.8685498,21.1496779 15.6933123,19.2504212 15.7141833,17.2029086 C15.717062,16.966851 15.7847127,16.832989 15.9588772,16.7329523 L15.9682332,16.7387098 C16.0214901,16.7739746 16.0761864,16.8106786 16.130163,16.8481024 C17.431359,17.7642653 18.935507,18.2435776 20.460526,18.2435776 C20.8513166,18.2435776 21.2435466,18.2119113 21.6343372,18.1485787 C23.5501468,17.8362341 25.2536485,16.7768533 26.4303384,15.1661914 C26.5368523,15.0208144 26.6484039,14.9819513 26.8319244,14.9567622 C27.7646401,14.8286577 28.3986853,14.3011264 28.6656895,13.4317432 C28.9305347,12.5688372 28.6995149,11.764226 27.9992584,11.1064311 C27.9272896,11.0387804 27.8646767,10.9041988 27.8445255,10.7724959 C27.8121395,10.5551501 27.7898292,10.3306074 27.7675188,10.1139813 C27.7286557,9.72391036 27.6876335,9.32088505 27.5868771,8.93513225 C27.4630908,8.45941844 27.4623711,8.22767889 27.783352,8.02256779 C27.8797902,7.96067462 27.997819,7.88510737 28.0884997,7.87647112 C28.1208857,7.90597833 28.1770214,7.99449996 28.1878167,8.05279469 C28.267702,8.49972097 28.3303149,8.94592757 28.3727765,9.38061915 C28.3857309,9.51376144 28.3979656,9.64690373 28.41092,9.78004603 C28.4814494,10.5630666 28.5548576,11.3712763 28.8441722,12.1391835 C29.1752287,13.0200817 29.6998813,13.5958321 30.4483569,13.8988208 C30.6505892,13.9815849 30.9521385,13.9671911 31.1658858,13.8657151 C31.3422094,13.7822313 31.530048,13.5828777 31.4242539,13.1071639 C31.2558469,12.3514914 31.2983084,11.6202884 31.5545174,10.8718128 C31.9748152,9.64330529 32.0986016,8.28381456 31.922278,6.83148406" id="Fill-1"></path>
    </g>
  </g>
</svg>
