<?xml version="1.0" encoding="UTF-8"?>
<svg xmlns="http://www.w3.org/2000/svg" xmlns:xlink="http://www.w3.org/1999/xlink" width="50px" height="50px" viewBox="0 0 50 50" version="1.1">
  <title>Artboard</title>
  <g id="Artboard" stroke="none" stroke-width="1" fill="none" fill-rule="evenodd">
    <g id="Group-9" transform="translate(13.000000, 13.000000)" fill="#FFFFFF" fill-rule="nonzero">
      <path d="M19.5,0 C20.3284266,0 21,0.671572858 21,1.5 L21,1.5 L21,8.5 C21,8.79369125 20.9155952,9.06766879 20.7697197,9.29899854 C20.8235876,9.39727005 20.8657976,9.50433212 20.8956002,9.61726836 L20.8956002,9.61726836 L21.9511558,13.6172683 C22.0581395,14.0226803 21.9892464,14.42446 21.7988043,14.7520836 C21.927082,14.9710781 22,15.2270234 22,15.4999996 L22,15.4999996 L21.9999995,21.7499995 L20.4999995,21.7499995 L20.5,19.9999996 L1.5,19.9999996 L1.5,19.9999996 L1.5,21.7499996 L-2.40918396e-14,21.7499996 L-2.48689958e-14,15.4999996 C-2.48689958e-14,15.2261975 0.0733598332,14.9695294 0.201496422,14.7485785 C0.0120826683,14.4228117 -0.0563090293,14.0218487 0.0504552425,13.6172683 L0.0504552425,13.6172683 L1.10601077,9.61726836 C1.13561537,9.50508252 1.177463,9.39869306 1.22989045,9.29938123 C1.08490562,9.06929218 0.999999974,8.79456145 0.999999974,8.5 L0.999999974,8.5 L0.999999974,1.5 C0.999999974,0.671572858 1.67157283,0 2.49999997,0 L2.49999997,0 Z M20.5,15.4999996 L1.49999996,15.4999996 L1.49999996,18.4999996 L20.5,18.4999996 L20.5,15.4999996 Z M19.445,10 L2.556,10 L1.50080574,13.9999997 L20.5008057,13.9999997 L19.445,10 Z M19.4999999,1.49999996 L2.49999994,1.49999996 L2.49999994,8.49999996 L3.999,8.499 L3.9999999,4.3461633 L17.9999999,4.3461633 L17.999,8.499 L19.4999999,8.49999996 L19.4999999,1.49999996 Z M10.499,5.45 L5.49999986,5.45055685 L5.49999986,8.39560629 L10.499,8.395 L10.499,5.45 Z M16.4999999,5.45055685 L11.499,5.45 L11.499,8.395 L16.4999999,8.39560629 L16.4999999,5.45055685 Z" id="Combined-Shape"></path>
    </g>
  </g>
</svg>
