<?xml version="1.0" encoding="UTF-8"?>
<svg width="15px" height="15px" viewBox="0 0 15 15" version="1.1" xmlns="http://www.w3.org/2000/svg" xmlns:xlink="http://www.w3.org/1999/xlink">
    <!-- Generator: Sketch 63.1 (92452) - https://sketch.com -->
    <title>Search Icon</title>
    <desc>Created with Sketch.</desc>
    <g id="Mobile-Search" stroke="none" stroke-width="1" fill="none" fill-rule="evenodd">
        <g transform="translate(-30.000000, -224.000000)" fill="#4B5E5B" fill-rule="nonzero" id="Search">
            <g transform="translate(20.000000, 194.000000)">
                <g id="Search-Icon" transform="translate(10.000000, 30.000000)">
                    <path d="M10.7685617,9.70056331 L14.8224431,13.7619658 C15.076029,14.062168 15.0557596,14.5069909 14.7759226,14.7828866 C14.4960856,15.0587823 14.0510199,15.0727403 13.7544446,14.814922 L9.70808443,10.7685617 C7.19901581,12.7176547 3.60693117,12.3800359 1.5049857,9.99755526 C-0.596959782,7.61507464 -0.484273608,4.00891874 1.76232257,1.76232257 C4.00891874,-0.484273608 7.61507464,-0.596959782 9.99755526,1.5049857 C12.3800359,3.60693117 12.7176547,7.19901581 10.7685617,9.70808443 L10.7685617,9.70056331 Z M6.01521665,10.527886 C8.50749513,10.527886 10.527886,8.50749513 10.527886,6.01521665 C10.527886,3.52293816 8.50749513,1.50254726 6.01521665,1.50254726 C3.52293816,1.50254726 1.50254726,3.52293816 1.50254726,6.01521665 C1.50254726,8.50749513 3.52293816,10.527886 6.01521665,10.527886 Z"></path>
                </g>
            </g>
        </g>
    </g>
</svg>