<?xml version="1.0" encoding="UTF-8"?>
<svg width="50px" height="50px" viewBox="0 0 50 50" version="1.1" xmlns="http://www.w3.org/2000/svg" xmlns:xlink="http://www.w3.org/1999/xlink">
    <title>Country</title>
    <g id="Page-1" stroke="none" stroke-width="1" fill="none" fill-rule="evenodd">
        <g id="Artboard" fill-rule="nonzero">
            <g id="Icon" transform="translate(14.000000, 13.000000)">
                <path d="M13.6111111,0 L13.7466836,0.00782957888 C13.7812882,0.0118488426 13.8156122,0.0174043863 13.8607393,0.0269656179 L13.8607393,0.0269656179 L13.8947552,0.0348968955 L14.0025479,0.06762917 C14.0882128,0.0978731286 14.1701903,0.138473248 14.2429721,0.185827415 L14.2429721,0.185827415 L20.4586049,4.13169226 C20.7957481,4.34571722 21,4.71731272 21,5.11665245 L21,5.11665245 L21,20.5553142 C21,21.1996464 20.4776655,21.7219808 19.8333333,21.7219808 C19.6118885,21.7219808 19.3950169,21.6589571 19.2080286,21.5402533 L19.2080286,21.5402533 L13.6111111,17.9862127 L8.02432149,21.5338586 C7.9739083,21.5666399 7.92102863,21.5954847 7.8644431,21.6207046 L7.8644431,21.6207046 L7.77663048,21.6558547 C7.76599304,21.6594196 7.7589014,21.6617963 7.75315564,21.6636863 L7.75315564,21.6636863 L7.63973573,21.6947369 L7.50973886,21.7157478 L7.38888889,21.7219808 C7.30825214,21.7219808 7.22843543,21.7137411 7.13926074,21.6950152 L7.13926074,21.6950152 L7.03952469,21.6684866 L6.91411415,21.62108 C6.85829839,21.5963337 6.8057511,21.5678542 6.7570279,21.5361534 L6.7570279,21.5361534 L0.541395087,17.5902886 C0.204251885,17.3762636 0,17.0046681 0,16.6053284 L0,16.6053284 L0,1.16666667 C0,0.522334459 0.522334459,0 1.16666667,0 C1.38811153,0 1.60498307,0.063023759 1.79194008,0.181707646 L1.79194008,0.181707646 L7.38811111,3.73421265 L12.9756785,0.188122225 C13.0263174,0.155194156 13.0794444,0.126238225 13.1359931,0.10105058 L13.1359931,0.10105058 L13.2234991,0.0660698478 L13.3602643,0.0272439407 L13.4902611,0.00623304413 L13.6111111,0 Z M14.272,1.126 L14.2722222,17.4721016 L14.252,17.472 L19.6249095,20.8836342 C19.6664551,20.9100082 19.7124327,20.9281363 19.7603394,20.9372913 L19.8333333,20.9442031 C20.0481107,20.9442031 20.2222222,20.7700916 20.2222222,20.5553142 L20.2222222,20.5553142 L20.2222222,5.11665245 C20.2222222,4.98353921 20.1541383,4.85967404 20.0417549,4.7883309 L20.0417549,4.7883309 L14.272,1.126 Z M1.16666667,0.777777779 C0.951889264,0.777777779 0.777777778,0.951889265 0.777777778,1.16666667 L0.777777778,1.16666667 L0.777777778,16.6053284 C0.777777778,16.7384416 0.84586174,16.8623068 0.958245147,16.9336499 L0.958245147,16.9336499 L7,20.769 L7,4.41 L1.37509053,0.838346607 C1.33354493,0.811972668 1.28756728,0.793844502 1.2396606,0.784689495 Z M13.222,0.952 L8.029,4.249 L8.05,4.24987932 L8.05,20.595 L13.222,17.312 L13.222,0.952 Z" id="Combined-Shape" stroke="#FFFFFF" stroke-width="0.25" fill="#FFFFFF"></path>
                <g id="Group-8" transform="translate(4.666667, 9.333333)">
                    <path d="M5.44476518,0 C2.43757159,0 0,2.45489118 0,5.48389462 C0,8.34483392 2.46579611,12.035189 4.11243986,13.8319359 C4.72760596,14.5022681 5.44412371,15.406094 5.44412371,15.406094 C5.44412371,15.406094 6.21388316,14.4971363 6.87395189,13.8069187 C8.51931271,12.0852234 10.8888889,8.62836198 10.8888889,5.48389462 C10.8888889,2.45489118 8.4513173,0 5.44476518,0" id="Shape" stroke="#FFFFFF" fill="#4B5E5B"></path>
                    <path d="M5.44444444,7.62222223 C4.24226568,7.62222223 3.26666667,6.64736714 3.26666667,5.44472637 C3.26666667,4.24095794 4.24226568,3.26666667 5.44444444,3.26666667 C6.64662321,3.26666667 7.62222222,4.24152176 7.62222222,5.44472637 C7.62222222,6.64680332 6.64662321,7.62222223 5.44444444,7.62222223" id="Path" fill="#FFFFFF"></path>
                </g>
            </g>
        </g>
    </g>
</svg>