<?xml version="1.0" encoding="UTF-8"?>
<svg width="17px" height="17px" viewBox="0 0 17 17" version="1.1" xmlns="http://www.w3.org/2000/svg" xmlns:xlink="http://www.w3.org/1999/xlink">
    <!-- Generator: Sketch 63.1 (92452) - https://sketch.com -->
    <title>11″ iPad Pro</title>
    <desc>Created with Sketch.</desc>
    <g id="11″-iPad-Pro" stroke="none" stroke-width="1" fill="none" fill-rule="evenodd">
        <path d="M18.9728196,10.2791179 C18.7947873,10.1257324 11.6932777,4.97495118 11.6932777,4.97495118 C11.683387,4.96505535 11.6734963,4.95515951 11.668551,4.9502116 C11.3965572,4.67312826 11.4113932,4.43562826 11.3916119,4.02000326 C11.3916119,4.02000326 11.3471038,0.605940758 11.2828144,-0.532080076 C11.2185249,-1.67010091 10.625084,-2.41723633 9.93273627,-2.41723633 C9.24038853,-2.41723633 8.65189296,-1.67504883 8.58760353,-0.537027994 C8.52331409,0.60099284 8.47880603,4.01505534 8.47880603,4.01505534 C8.45902466,4.43068034 8.47386069,4.66818034 8.20186693,4.94526368 C8.19197625,4.95515951 8.18208557,4.96505534 8.17714023,4.97000326 C8.17714023,4.97000326 1.08057594,10.1207845 0.897598322,10.2741699 C0.714620706,10.4275553 0.442626953,10.6601074 0.442626953,11.1746908 C0.442626953,11.7783366 0.620659229,11.8525553 0.966833097,11.7486491 C0.966833097,11.7486491 7.90020114,9.79422201 8.15735887,9.7298991 C8.4145166,9.66557618 8.5480408,9.7595866 8.56782217,10.1009928 C8.58760353,10.4423991 8.6073849,12.3968262 8.61233024,12.6244303 C8.61727558,12.8520345 8.58265819,12.8569824 8.46891535,12.9905762 L6.88640624,15.0093262 C6.80233545,15.1082845 6.75288204,15.2319824 6.75288204,15.3705241 C6.75288204,15.3705241 6.75288204,15.672347 6.75288204,15.9840658 C6.75288204,16.2957845 6.89135158,16.3452637 7.1584,16.2265137 C7.42544841,16.1077637 8.77058115,15.3655762 8.77058115,15.3655762 C8.80519854,15.3507324 8.99806684,15.2715658 9.08708297,15.2715658 C9.2947873,15.2715658 9.48271025,15.2666179 9.52227298,15.5783366 C9.58656241,16.1423991 9.76459469,16.5827637 9.94262695,16.5827637 C10.1206592,16.5827637 10.2986915,16.1423991 10.3629809,15.5783366 C10.3975983,15.2666179 10.5904666,15.2715658 10.798171,15.2715658 C10.8871871,15.2715658 11.0800554,15.3507324 11.1146728,15.3655762 C11.1146728,15.3655762 12.4598055,16.1077637 12.7268539,16.2265137 C12.9939023,16.3452637 13.1323719,16.2957845 13.1323719,15.9840658 C13.1323719,15.672347 13.1323719,15.3705241 13.1323719,15.3705241 C13.1323719,15.2319824 13.0829185,15.1033366 12.9988477,15.0093262 L11.4163386,12.9905762 C11.3025957,12.8569824 11.2729237,12.8470866 11.2729237,12.6244304 C11.2729237,12.4017741 11.2976504,10.4423991 11.3174317,10.1009928 C11.3372131,9.7595866 11.4707373,9.66557618 11.727895,9.7298991 C11.9850528,9.79422202 18.9184208,11.7486491 18.9184208,11.7486491 C19.26954,11.8525554 19.442627,11.7783366 19.442627,11.1746908 C19.4277909,10.6650554 19.1557972,10.4325033 18.9728196,10.2791179 Z" id="Path" fill="#FFC03F" fill-rule="nonzero" transform="translate(9.942627, 7.082764) rotate(45.000000) translate(-9.942627, -7.082764) "></path>
    </g>
</svg>