<?xml version="1.0" encoding="UTF-8"?>
<svg width="15px" height="15px" viewBox="0 0 15 15" version="1.1" xmlns="http://www.w3.org/2000/svg" xmlns:xlink="http://www.w3.org/1999/xlink">
    <!-- Generator: Sketch 63.1 (92452) - https://sketch.com -->
    <title>Path</title>
    <desc>Created with Sketch.</desc>
    <g id="Mobile-Itineraries" stroke="none" stroke-width="1" fill="none" fill-rule="evenodd">
        <g id="Mobile-Itineraries---Filters-Selected" transform="translate(-280.000000, -997.000000)" fill="#719E8B" fill-rule="nonzero">
            <g id="Selected-Filters" transform="translate(30.000000, 987.000000)">
                <path d="M265,17.5013299 C265,21.6434655 261.642136,25.0013299 257.5,25.0013299 C253.357864,25.0013299 250,21.6434655 250,17.5013299 L251.071429,17.5013299 C251.064431,20.6014422 253.270922,23.2649554 256.318209,23.8348555 C259.365496,24.4047556 262.385441,22.7186846 263.499289,19.825574 C264.613137,16.9324635 263.503564,13.6565279 260.860853,12.035779 C258.218143,10.4150301 254.795173,10.9112009 252.721429,13.2156156 L254.821429,13.2156156 L254.821429,14.2870442 L251.071429,14.2870442 L251.071429,10.5370442 L252.142857,10.5370442 L252.142857,12.2513299 C254.275734,10.0744719 257.513793,9.4047017 260.33524,10.5567923 C263.156686,11.708883 265.000444,14.4537287 265,17.5013299 Z" id="Path"></path>
            </g>
        </g>
    </g>
</svg>