<?xml version="1.0" encoding="UTF-8"?>
<svg width="18px" height="18px" viewBox="0 0 18 18" version="1.1" xmlns="http://www.w3.org/2000/svg" xmlns:xlink="http://www.w3.org/1999/xlink">
    <!-- Generator: Sketch 63.1 (92452) - https://sketch.com -->
    <title>Path</title>
    <desc>Created with Sketch.</desc>
    <g id="Responsive-Homepage" stroke="none" stroke-width="1" fill="none" fill-rule="evenodd">
        <g id="Homepage-1920" transform="translate(-288.000000, -9120.000000)" fill="#FFFFFF" fill-rule="nonzero">
            <g id="Trips-to-Inspire" transform="translate(0.000000, 8056.000000)">
                <g id="Itinerary-Card" transform="translate(255.000000, 582.000000)">
                    <g id="Flight-Icon" transform="translate(30.000000, 476.000000)">
                        <path d="M22.4652215,16.631383 C22.2871892,16.4779976 15.1856795,11.3272163 15.1856795,11.3272163 C15.1757889,11.3173205 15.1658982,11.3074247 15.1609528,11.3024768 C14.8889591,11.0253934 14.9037951,10.7878934 14.8840137,10.3722684 C14.8840137,10.3722684 14.8395057,6.95820593 14.7752162,5.82018509 C14.7109268,4.68216426 14.1174859,3.93502884 13.4251382,3.93502884 C13.4251382,3.93502884 13.4251382,3.93502884 13.4251382,3.93502884 C13.4251382,3.93502884 13.4251382,3.93502884 13.4251382,3.93502884 C12.7327904,3.93502884 12.1442948,4.67721634 12.0800054,5.81523718 C12.015716,6.95325801 11.9712079,10.3673205 11.9712079,10.3673205 C11.9514266,10.7829455 11.9662626,11.0204455 11.6942688,11.2975288 C11.6843781,11.3074247 11.6744875,11.3173205 11.6695421,11.3222684 C11.6695421,11.3222684 4.57297783,16.4730497 4.39000021,16.6264351 C4.2070226,16.7798205 3.93502884,17.0123726 3.93502884,17.5269559 C3.93502884,18.1306018 4.11306112,18.2048205 4.45923499,18.1009143 C4.45923499,18.1009143 11.392603,16.1464872 11.6497608,16.0821643 C11.9069185,16.0178413 12.0404427,16.1118518 12.0602241,16.453258 C12.0800054,16.7946643 12.0997868,18.7490913 12.1047321,18.9766955 C12.1096775,19.2042997 12.0750601,19.2092476 11.9613172,19.3428413 L10.3788081,21.3615913 C10.2947373,21.4605497 10.2452839,21.5842476 10.2452839,21.7227893 C10.2452839,21.7227893 10.2452839,22.0246122 10.2452839,22.3363309 C10.2452839,22.6480497 10.3837535,22.6975288 10.6508019,22.5787788 C10.9178503,22.4600288 12.262983,21.7178413 12.262983,21.7178413 C12.2976004,21.7029976 12.4904687,21.6238309 12.5794849,21.6238309 C12.7871892,21.6238309 12.9751121,21.618883 13.0146749,21.9306018 C13.0789643,22.4946643 13.2569966,22.9350288 13.4350288,22.9350288 C13.4350288,22.9350288 13.4350288,22.9350288 13.4350288,22.9350288 C13.4350288,22.9350288 13.4350288,22.9350288 13.4350288,22.9350288 C13.6130611,22.9350288 13.7910934,22.4946643 13.8553828,21.9306018 C13.8900002,21.618883 14.0828685,21.6238309 14.2905728,21.6238309 C14.379589,21.6238309 14.5724573,21.7029976 14.6070747,21.7178413 C14.6070747,21.7178413 15.9522074,22.4600288 16.2192558,22.5787788 C16.4863042,22.6975288 16.6247738,22.6480497 16.6247738,22.3363309 C16.6247738,22.0246122 16.6247738,21.7227893 16.6247738,21.7227893 C16.6247738,21.5842476 16.5753204,21.4556018 16.4912496,21.3615913 L14.9087405,19.3428413 C14.7949976,19.2092476 14.7653256,19.1993518 14.7653256,18.9766955 C14.7653256,18.7540393 14.7900523,16.7946643 14.8098336,16.453258 C14.829615,16.1118518 14.9631392,16.0178413 15.2202969,16.0821643 C15.4774547,16.1464872 22.4108227,18.1009143 22.4108227,18.1009143 C22.7619419,18.2048205 22.9350288,18.1306018 22.9350288,17.5269559 C22.9201928,17.0173205 22.6481991,16.7847684 22.4652215,16.631383 Z" id="Path" transform="translate(13.435029, 13.435029) rotate(45.000000) translate(-13.435029, -13.435029) "></path>
                    </g>
                </g>
            </g>
        </g>
    </g>
</svg>