<?xml version="1.0" encoding="UTF-8"?>
<svg width="50px" height="50px" viewBox="0 0 50 50" version="1.1" xmlns="http://www.w3.org/2000/svg" xmlns:xlink="http://www.w3.org/1999/xlink">
    <title>Artboard</title>
    <g id="Artboard" stroke="none" stroke-width="1" fill="none" fill-rule="evenodd">
        <g id="Group" fill="#FFFFFF" fill-rule="nonzero">
            <path d="M32.3052952,28.967915 C31.8401679,29.0495163 31.3664272,29.090317 30.884073,29.090317 C29.3164218,29.090317 27.8650524,28.6823106 26.5299648,27.8662978 C25.1948773,27.050285 24.1397274,25.939601 23.3645153,24.5342457 C22.5893031,23.1288903 22.2016971,21.6011331 22.2016971,19.9509739 C22.2016971,18.2101467 22.6495974,16.5917213 23.5453981,15.0956979 C21.814091,15.6397064 20.3993289,16.677856 19.3011117,18.2101467 C18.2028945,19.7424373 17.6537859,21.4832646 17.6537859,23.4326284 C17.6537859,24.6113135 17.8734293,25.7378645 18.3127162,26.8122813 C18.7520031,27.8866981 19.3398723,28.8115126 20.0763238,29.5867247 C20.8127753,30.3619369 21.6913491,30.9807466 22.7120451,31.4431538 C23.732741,31.905561 24.8029645,32.1367646 25.9227153,32.1367646 C27.1630547,32.1367646 28.3409465,31.8579603 29.4563906,31.3003516 C30.5718347,30.7427428 31.5214696,29.965264 32.3052952,28.967915 Z M34.9280963,27.811897 C34.1184303,29.6524591 32.8974711,31.1235488 31.2652189,32.225166 C29.6329667,33.3267833 27.8521322,33.8775919 25.9227153,33.8775919 C24.5790143,33.8775919 23.2956075,33.6010542 22.072495,33.0479789 C20.8493826,32.4949036 19.7942327,31.7514253 18.9070455,30.817544 C18.0198583,29.8836627 17.3135539,28.7729787 16.7881323,27.4854918 C16.2627108,26.198005 16,24.8470505 16,23.4326284 C16,22.0454067 16.2476372,20.7193859 16.7429116,19.4545661 C17.238186,18.1897463 17.9100366,17.0949292 18.7584632,16.1701147 C19.6068898,15.2453003 20.6211257,14.4995553 21.8011708,13.9328797 C22.9812159,13.3662042 24.2301688,13.055666 25.5480294,13.0012651 C25.927022,12.9831315 26.1897328,13.1599343 26.3361618,13.5316734 C26.4912042,13.9034126 26.4266032,14.2298177 26.1423587,14.5108888 C25.4016005,15.2180998 24.835265,16.0409127 24.4433522,16.9793274 C24.0514394,17.9177421 23.855483,18.9082909 23.855483,19.9509739 C23.855483,21.2928616 24.1698745,22.530481 24.7986577,23.663832 C25.4274409,24.7971831 26.2801742,25.6947972 27.3568578,26.3566742 C28.4335413,27.0185512 29.6092797,27.3494897 30.884073,27.3494897 C31.9004622,27.3494897 32.8823976,27.1182861 33.8298791,26.6558789 C34.1830313,26.4926763 34.4931161,26.5516106 34.7601336,26.8326816 C34.8807222,26.9596169 34.95609,27.1137527 34.9862372,27.2950889 C35.0163843,27.476425 34.997004,27.6486944 34.9280963,27.811897 Z" id="Shape"></path>
        </g>
    </g>
</svg>