<?xml version="1.0" encoding="UTF-8"?>
<svg width="18px" height="18px" viewBox="0 0 18 18" version="1.1" xmlns="http://www.w3.org/2000/svg" xmlns:xlink="http://www.w3.org/1999/xlink">
    <!-- Generator: Sketch 63.1 (92452) - https://sketch.com -->
    <title>Globe Icon</title>
    <desc>Created with Sketch.</desc>
    <g id="Mobile-Menus" stroke="none" stroke-width="1" fill="none" fill-rule="evenodd">
        <g id="Mobile-Menu---Destinations-Expanded" transform="translate(-30.000000, -1092.000000)" fill="#FFFFFF">
            <g id="Menu" transform="translate(0.000000, 92.000000)">
                <g id="Currency-Language" transform="translate(30.000000, 999.000000)">
                    <path d="M9.00001,0.99994 C10.4877532,0.99994 11.8911785,1.36093381 13.1274798,2.00010469 C13.9142471,2.40691014 14.6331407,2.92616362 15.2630614,3.53668525 C16.9509542,5.17266332 18.00002,7.46391064 18.00002,10.00015 C18.00002,10.1933075 17.9939347,10.3850439 17.9819454,10.575178 C17.7982738,13.4836791 16.2338256,16.0166095 13.9368712,17.5263382 C13.6236629,17.7321845 13.2968214,17.9190271 12.9580027,18.0851998 L12.7323008,18.1920459 C11.6710983,18.676308 10.4993738,18.960432 9.26538225,18.9961629 L9.00001,18.99996 C7.22486517,18.99996 5.56972047,18.4860053 4.17528306,17.598785 L3.96803442,17.4629413 C1.72309012,15.9462868 0.199219848,13.4433553 0.0181467349,10.5758698 C0.00608558066,10.3850439 0,10.1933075 0,10.00015 C0,7.46391064 1.04911791,5.17266332 2.7370239,3.53671131 C3.4258454,2.8690328 4.22111592,2.31052893 5.09490058,1.88906319 C6.27614819,1.31927293 7.6008014,0.99994 9.00001,0.99994 Z M9.00002,2 L8.78557366,2.00358235 C8.63287136,2.15011703 8.46503131,2.28608762 8.38280931,2.24214138 C8.28540921,2.18994132 8.36320929,2.09394122 8.33020926,2.01694113 L8.33214957,2.02748192 C7.85715271,2.06674011 7.39392628,2.1474954 6.94610425,2.26611382 C7.07982745,2.33576164 7.1283984,2.46443006 7.32620814,2.4385416 C7.36240818,2.51734169 7.35900818,2.62554181 7.33460815,2.7073419 C7.59240844,2.71454191 7.62360847,2.84134205 7.74560861,3.02354225 C7.81700869,3.13014237 8.03880893,3.45114272 7.71860858,3.46174274 C7.55060839,3.46754274 7.61860847,3.36454263 7.50300834,3.28714254 C7.37180819,3.19934244 7.40320823,3.2481425 7.25400806,3.27314253 C7.05040783,3.30754256 6.77120752,3.26754252 6.96840774,3.49514277 C7.12340791,3.67394297 7.36320818,3.71074301 7.02520781,3.84814316 C6.95100772,3.8781432 6.82020758,3.94354327 6.7494075,3.95974329 C6.58260731,3.99774333 6.64500738,3.91914324 6.51900724,3.91114323 C6.16480685,3.88894321 6.4828072,4.18434354 6.24240694,4.34334371 C6.08420676,4.44774383 5.91040657,4.43494382 5.7564064,4.57674397 C5.62120625,4.70114411 5.47660609,4.84334427 5.35340595,4.97834442 C5.19540577,5.15154461 5.17580575,5.35594484 5.04900561,5.53514504 C4.90980546,5.73194526 4.7668053,5.71154524 4.78420532,5.98434554 C4.79460533,6.14774572 4.8566054,6.45234606 4.61720513,6.50774612 C4.5944051,6.30474589 4.69700522,6.13574571 4.61840513,5.95654551 C4.54640505,5.79234532 4.38220487,5.70994523 4.19480466,5.73334526 C3.95400439,5.76354529 3.44260383,6.11534568 3.30200367,6.3105459 C3.16240351,6.50414612 2.92140325,7.14274683 3.08000342,7.37114708 C3.32020369,7.71734746 3.63000403,6.91774658 3.91420435,6.93234659 C4.05460451,7.23174692 3.71880413,7.42674714 3.75660417,7.69974744 C4.03020448,7.79294755 4.27880475,7.81974758 4.1408046,8.203148 L4.1408046,8.203148 L4.19620466,8.31414813 C4.17440464,8.65774851 4.24100471,8.79974867 4.61220512,8.73014859 C4.85220539,8.68534854 5.08280565,8.59674844 5.29940589,8.4743483 C5.38160598,8.42794825 5.52200614,8.30514812 5.61680624,8.2917481 C5.7590064,8.27214808 5.90120656,8.3763482 6.0330067,8.39114821 C6.18340687,8.40794823 6.27600697,8.34374816 6.41500713,8.34174816 C6.5704073,8.33974816 6.67360742,8.42374825 6.82640758,8.42994826 C6.88140765,8.57234841 7.12160791,8.71134857 7.24560805,8.79094866 C7.34080816,8.85234872 7.44500827,8.9179488 7.55140839,8.95894884 C7.64180849,8.99374888 7.80580867,8.99954889 7.87940875,9.04074893 C8.07440897,9.14974906 8.14860905,9.47414942 8.16160907,9.67314964 C8.17220908,9.83534982 7.93960882,10.1697502 8.01620891,10.2907503 C8.15360906,10.5079506 8.38160931,10.1681502 8.54460949,10.1661502 C8.65380962,10.1649502 8.6414096,10.2283503 8.74480972,10.2555503 C8.85620984,10.2845503 8.92820992,10.2405503 9.04981006,10.2557503 C9.25301028,10.2807503 9.43281048,10.4265505 9.6324107,10.4787505 C9.89441099,10.5473506 9.99741111,10.4949505 10.1946113,10.6917508 C10.5942118,11.0899512 10.4530116,11.4423516 10.1248112,11.8573521 C9.86381096,12.1867524 9.67661075,12.6429529 9.60301067,13.0567534 C9.55941062,13.3041537 9.65841073,13.4941539 9.41801046,13.6745541 C9.23221026,13.8137542 9.04421005,13.8141542 8.9112099,14.0275545 C8.79560977,14.2137547 8.80980979,14.464955 8.69680966,14.6451552 C8.59640955,14.8055553 8.39640933,14.9671555 8.26640918,15.1023557 C8.20720912,15.1635557 8.12160902,15.2841559 8.04440894,15.3241559 C7.89580877,15.400956 7.82080869,15.2799559 7.8282087,15.5267561 C7.8344087,15.7243564 7.94300883,15.6707563 7.80120867,15.8511565 C7.72800859,15.9441566 7.63060848,16.0211567 7.5598084,16.1137568 C7.35940818,16.3765571 7.35640817,16.5541573 7.41280824,16.8565576 C7.44120827,17.0091578 7.40120822,17.157558 7.41980824,17.3003581 C7.44040827,17.4569583 7.60480845,17.5813584 7.57580842,17.7397586 C7.15780795,17.8077587 6.86920763,17.3019581 6.79660755,16.9673577 C6.69980744,16.5227572 6.56460729,16.0961568 6.49820722,15.6361563 C6.43380715,15.1901558 6.24860694,14.8197554 6.24860694,14.3325548 C6.24860694,13.8675543 6.27100697,13.4407538 5.9430066,13.1123535 C5.69280633,12.8617532 5.34120593,12.7531531 5.18780576,12.4257527 C5.08940565,12.2157525 5.1302057,12.0309523 5.07760564,11.808552 C5.02080558,11.5685517 4.83500537,11.5049517 4.66020518,11.3725515 C4.3198048,11.1147512 4.34020482,10.5869507 4.47900498,10.2277503 C4.57380508,9.98234998 5.10400567,9.27154919 4.87020541,8.99914889 C4.73020526,8.83634871 4.48200498,9.04774894 4.33360482,9.0089489 C4.2310047,8.98174887 4.0484045,8.80694867 3.95140439,8.75314861 C3.92240436,8.50514834 3.78680421,8.4679483 3.56300396,8.42034824 C3.44220382,8.14054793 3.32160369,8.00934779 3.03140337,7.97514775 C2.71480302,7.93794771 2.66060296,7.78054753 2.49680277,7.54514727 C2.29020254,7.24814694 2.35760262,7.16234685 2.39420266,6.81634646 C2.42060269,6.56494618 2.48160276,6.13574571 2.38860265,5.90474545 C2.09540233,5.93654549 2.2464025,6.55494617 1.89840211,6.45174606 C1.89298768,6.39912797 1.89384554,6.35117118 1.89940301,6.30642057 C1.3254671,7.41236139 1.00002,8.66817457 1.00002,10 C1.00002,14.418278 4.581742,18 9.00002,18 C11.5481105,18 13.8179615,16.8087155 15.2830057,14.9527141 C15.2572982,14.9388275 15.2322705,14.9168265 15.2072169,14.8873554 C15.0578167,14.7117552 15.0404167,14.4353549 15.1024168,14.2217547 C15.1676169,13.9973544 15.322417,13.8029542 15.3810171,13.583754 C15.4382172,13.3695537 15.4514172,13.1089535 15.4782172,12.8903532 C15.5088172,12.6421529 15.4088171,12.4561527 15.4012171,12.2247525 C15.3932171,11.9739522 15.5440173,11.794152 15.5954173,11.5575517 C15.6490174,11.3101515 15.7124175,11.0815512 15.7400175,10.8317509 C15.7756175,10.5113506 15.7348175,10.4691505 15.5614173,10.2291503 C15.4168171,10.02935 15.323817,9.82514981 15.3720171,9.58994954 C15.4098171,9.40654934 15.5966173,9.11954902 15.4280171,8.95494884 C15.2236169,9.13974904 15.0694167,8.9165488 14.8944165,8.84034871 C14.6744163,8.74494861 14.6468163,8.88634876 14.437216,8.98654887 C14.2806159,9.06154896 14.0240156,9.11834902 13.8548154,9.15294906 C13.6500152,9.19514911 13.465215,9.15254906 13.3294148,9.00054889 C13.0904145,8.73294859 12.7972142,8.41414824 12.593214,8.12754792 C12.5302139,8.03914782 12.5100139,7.9271477 12.4620138,7.8419476 C12.4096138,7.7481475 12.2722136,7.68034742 12.2328136,7.60054733 C12.1412135,7.41574713 12.3798138,7.17614686 12.4064138,6.95514662 C12.4548138,6.55674617 12.0962134,6.0435456 12.2728136,5.68474521 C12.3462137,5.53534504 12.589614,5.44954494 12.629014,5.26314474 C12.6566141,5.13254459 12.5326139,5.09674455 12.620814,4.9567444 C12.6724141,4.87534431 12.7526142,4.8705443 12.8280143,4.82714425 C13.1064146,4.66694407 13.7964153,4.26614363 14.0990157,4.5143439 C14.1760158,4.57754398 14.1546157,4.6941441 14.2420158,4.75834418 C14.3056159,4.80514423 14.4590161,4.7803442 14.5420162,4.82634425 C14.7170164,4.92334436 14.8066165,5.08554454 15.0082167,5.14954461 C15.0225347,5.02528968 15.1345725,5.01216904 15.2584344,5.01704887 C15.0958233,4.81231334 14.9225526,4.61551739 14.7401394,4.42764707 C14.6335572,4.45886243 14.6043362,4.35299009 14.5533977,4.24173856 C14.434267,4.1265935 14.3113142,4.01510681 14.184972,3.90748064 C14.1325278,3.88059791 14.0847769,3.86072574 14.0478156,3.85154317 C14.0610156,3.94594327 14.1384157,4.01914335 14.1212157,4.12194347 C13.9560155,4.13874349 13.8786154,3.92294325 13.7588153,3.82794314 C13.6116151,3.71134301 13.514815,3.66334296 13.3502148,3.68374298 C12.9332144,3.73574304 13.2074147,4.2409436 12.8434143,4.37014374 C12.5020139,4.49154388 12.1344135,4.21414357 12.1276135,3.8773432 C12.1228135,3.63954293 12.3650137,3.75814306 12.4064138,3.57214286 C12.4400138,3.42154269 12.2358136,3.32034258 12.1326135,3.25934251 C12.3178137,2.83874204 11.4550127,2.90034211 11.4406127,2.51754169 C11.4382813,2.45503019 11.454729,2.41504892 11.4824674,2.39194577 C10.7017743,2.13791351 9.86700285,2 9.00002,2 Z M6.64292383,2.35300745 L6.6068909,2.36408723 C6.29151058,2.46282818 5.98453017,2.58056889 5.68729032,2.71596874 C5.73324793,2.7279895 5.7797652,2.73735872 5.82840648,2.74354194 C5.83660649,2.87354208 5.8520065,3.02934225 5.80760645,3.15114239 C6.13300681,3.20654245 6.04820672,3.05194228 6.13700682,2.84974206 C6.22280691,2.65514184 6.44520716,2.68294187 6.56200729,2.52334169 C6.60131168,2.46963729 6.62157333,2.4071979 6.64292383,2.35300745 Z" id="Globe-Icon"></path>
                </g>
            </g>
        </g>
    </g>
</svg>