<?xml version="1.0" encoding="UTF-8"?>
<svg width="13px" height="13px" viewBox="0 0 13 13" version="1.1" xmlns="http://www.w3.org/2000/svg" xmlns:xlink="http://www.w3.org/1999/xlink">
    <!-- Generator: Sketch 63.1 (92452) - https://sketch.com -->
    <title>Phone Icon</title>
    <desc>Created with Sketch.</desc>
    <g id="Mobile-Menus" stroke="none" stroke-width="1" fill="none" fill-rule="evenodd">
        <g id="Mobile-Menu" transform="translate(-33.000000, -660.000000)" fill="#FFC03F" fill-rule="nonzero">
            <g id="Menu" transform="translate(0.000000, 92.000000)">
                <g id="Telephone-Number" transform="translate(30.000000, 532.000000)">
                    <path d="M15.99998,46.2670455 C15.99998,46.4332386 15.9692035,46.6502131 15.9076505,46.9179688 C15.8460974,47.1857244 15.7814667,47.3965436 15.7137584,47.5504261 C15.584497,47.8581913 15.2090236,48.1844223 14.587338,48.5291193 C14.0087395,48.8430398 13.4362963,49 12.8700084,49 C12.7038152,49 12.5422385,48.9892282 12.3852783,48.9676847 C12.2283181,48.9461411 12.0513531,48.9076705 11.8543834,48.8522727 C11.6574137,48.796875 11.5112253,48.7522491 11.4158181,48.7183949 C11.3204109,48.6845407 11.1496012,48.6214489 10.9033891,48.5291193 C10.657177,48.4367898 10.506372,48.381392 10.4509743,48.3629261 C9.84775462,48.1474905 9.30916561,47.8920455 8.83520727,47.5965909 C8.04732848,47.110322 7.23328966,46.4470881 6.3930908,45.6068892 C5.55289193,44.7666903 4.88965803,43.9526515 4.40338909,43.1647727 C4.10793455,42.6908144 3.85248947,42.1522254 3.63705386,41.5490057 C3.61858795,41.493608 3.56319023,41.342803 3.47086068,41.0965909 C3.37853114,40.8503788 3.31543928,40.6795691 3.28158511,40.5841619 C3.24773095,40.4887547 3.203105,40.3425663 3.14770727,40.1455966 C3.09230955,39.9486269 3.0538389,39.7716619 3.03229534,39.6147017 C3.01075178,39.4577415 2.99998,39.2961648 2.99998,39.1299716 C2.99998,38.5636837 3.15694023,37.9912405 3.47086068,37.412642 C3.81555765,36.7909564 4.14178871,36.415483 4.44955386,36.2862216 C4.60343644,36.2185133 4.81425557,36.1538826 5.08201125,36.0923295 C5.34976693,36.0307765 5.56674136,36 5.73293455,36 C5.81910879,36 5.88373947,36.009233 5.92682659,36.0276989 C6.03762205,36.0646307 6.20073758,36.2985322 6.41617318,36.7294034 C6.48388152,36.8463542 6.57621106,37.0125473 6.69316182,37.227983 C6.81011258,37.4434186 6.91783038,37.6388494 7.01631523,37.8142756 C7.11480008,37.9897017 7.21020727,38.1543561 7.30253682,38.3082386 C7.32100273,38.3328598 7.37486163,38.4098011 7.46411352,38.5390625 C7.55336542,38.6683239 7.61953492,38.7775805 7.66262205,38.8668324 C7.70570917,38.9560843 7.72725273,39.0437973 7.72725273,39.1299716 C7.72725273,39.2530777 7.63953966,39.4069602 7.46411352,39.5916193 C7.28868739,39.7762784 7.09787299,39.9455492 6.89167034,40.0994318 C6.68546769,40.2533144 6.4946533,40.4164299 6.31922716,40.5887784 C6.14380102,40.7611269 6.05608795,40.9026989 6.05608795,41.0134943 C6.05608795,41.068892 6.07147621,41.1381392 6.10225273,41.2212358 C6.13302924,41.3043324 6.15918928,41.3674242 6.18073284,41.4105114 C6.2022764,41.4535985 6.24536352,41.5274621 6.3099942,41.6321023 C6.37462489,41.7367424 6.41001788,41.7952178 6.41617318,41.8075284 C6.88397621,42.6508049 7.41948758,43.374053 8.02270727,43.9772727 C8.62592697,44.5804924 9.34917508,45.1160038 10.1924516,45.5838068 C10.2047622,45.5899621 10.2632376,45.6253551 10.3678777,45.6899858 C10.4725179,45.7546165 10.5463815,45.7977036 10.5894686,45.8192472 C10.6325558,45.8407907 10.6956476,45.8669508 10.7787442,45.8977273 C10.8618408,45.9285038 10.931088,45.943892 10.9864857,45.943892 C11.0972811,45.943892 11.2388531,45.856179 11.4112016,45.6807528 C11.5835501,45.5053267 11.7466656,45.3145123 11.9005482,45.1083097 C12.0544308,44.902107 12.2237016,44.7112926 12.4083607,44.5358665 C12.5930198,44.3604403 12.7469023,44.2727273 12.8700084,44.2727273 C12.9561827,44.2727273 13.0438957,44.2942708 13.1331476,44.337358 C13.2223995,44.3804451 13.3316561,44.4466146 13.4609175,44.5358665 C13.5901789,44.6251184 13.6671202,44.6789773 13.6917414,44.6974432 C13.8456239,44.7897727 14.0102783,44.8851799 14.1857044,44.9836648 C14.3611306,45.0821496 14.5565614,45.1898674 14.771997,45.3068182 C14.9874327,45.4237689 15.1536258,45.5160985 15.2705766,45.5838068 C15.7014478,45.7992424 15.9353493,45.962358 15.9722811,46.0731534 C15.990747,46.1162405 15.99998,46.1808712 15.99998,46.2670455 Z" id="Phone-Icon"></path>
                </g>
            </g>
        </g>
    </g>
</svg>