<?xml version="1.0" encoding="UTF-8"?>
<svg width="18px" height="14px" viewBox="0 0 18 14" version="1.1" xmlns="http://www.w3.org/2000/svg" xmlns:xlink="http://www.w3.org/1999/xlink">
    <!-- Generator: Sketch 63.1 (92452) - https://sketch.com -->
    <title>Tick Icon</title>
    <desc>Created with Sketch.</desc>
    <g id="Intro-Blocks" stroke="none" stroke-width="1" fill="none" fill-rule="evenodd">
        <g id="Desktop-Intro---Map-Video,-Images-&amp;-Bullets" transform="translate(-735.000000, -547.000000)" fill="#FFC03F" fill-rule="nonzero">
            <g id="Intro---Map-Video,-Images-&amp;-Bullets">
                <g id="USPs" transform="translate(735.000000, 524.000000)">
                    <g id="1" transform="translate(0.000000, 13.000000)">
                        <path d="M16.2411993,10.1721598 C16.0214196,9.94261338 15.6636211,9.94261338 15.4453416,10.1721598 L7.05845583,18.8318975 C6.83867607,19.0630002 6.48012752,19.0630002 6.26184796,18.8318975 L2.58710034,14.9498388 C2.47833561,14.8346765 2.33581631,14.7778735 2.19254691,14.7770954 C2.0477773,14.7763173 1.90075739,14.8331203 1.79049246,14.9498388 L0.16652255,16.4640674 C0.0585079229,16.5792297 0,16.7231825 0,16.8733604 C0,17.0243164 0.0585079229,17.1822755 0.167272652,17.2966596 L3.87277444,21.3304524 C4.0918041,21.560777 4.45110275,21.9342763 4.66938231,22.1630447 L6.26259806,23.8290073 C6.48162772,24.0569976 6.83942617,24.0569976 7.05920593,23.8290073 L17.8351652,12.6707148 C18.0549449,12.4419464 18.0549449,12.0661127 17.8351652,11.8373444 L16.2411993,10.1721598 Z" id="Tick-Icon"></path>
                    </g>
                </g>
            </g>
        </g>
    </g>
</svg>