<?xml version="1.0" encoding="UTF-8"?>
<svg width="11px" height="9px" viewBox="0 0 11 9" version="1.1" xmlns="http://www.w3.org/2000/svg" xmlns:xlink="http://www.w3.org/1999/xlink">
    <!-- Generator: Sketch 63.1 (92452) - https://sketch.com -->
    <title>Tick Icon</title>
    <desc>Created with Sketch.</desc>
    <g id="Itineraries" stroke="none" stroke-width="1" fill="none" fill-rule="evenodd">
        <g id="6.0---Itineraries---Filter-Destination-Dropdown" transform="translate(-390.000000, -889.000000)" fill="#FFFFFF" fill-rule="nonzero">
            <g id="Dropdown" transform="translate(355.000000, 720.000000)">
                <g id="1" transform="translate(30.000000, 100.000000)">
                    <path d="M14.9251774,69.10142 C14.7908675,68.9661933 14.5722129,68.9661933 14.4388198,69.10142 L9.31350079,74.2029025 C9.17919093,74.3390459 8.96007793,74.3390459 8.82668486,74.2029025 L6.58100576,71.9159678 C6.51453843,71.8481253 6.4274433,71.8146624 6.33988978,71.814204 C6.25141946,71.8137456 6.16157396,71.8472085 6.09418984,71.9159678 L5.10176378,72.8080053 C5.03575484,72.8758478 5,72.9606509 5,73.0491212 C5,73.1380499 5.03575484,73.2311042 5.10222218,73.2984883 L7.36669549,75.6748101 C7.50054695,75.8104952 7.72011835,76.030525 7.85351141,76.1652932 L8.82714326,77.1467178 C8.96099472,77.2810276 9.17964933,77.2810276 9.31395918,77.1467178 L15.8992676,70.5733276 C16.0335775,70.4385594 16.0335775,70.2171544 15.8992676,70.0823862 L14.9251774,69.10142 Z" id="Tick-Icon"></path>
                </g>
            </g>
        </g>
    </g>
</svg>