<svg width="140" height="49" xmlns="http://www.w3.org/2000/svg"><path d="M69.963 33.502a5.608 5.608 0 0 0 0 1.096c.035.373.053.703.053.988a2.808 2.808 0 0 1-.16-.988v-1.096ZM8.473.196c.303-.231.703-.258 1.202-.08.32.286.543.686.668 1.202.124.517.115.97-.027 1.362.071.356.062.668-.027.935s.085.45.027.828A33.467 33.467 0 0 1 9.435 7.7a57.783 57.783 0 0 0-.935 3.152c-.179.179-.276.4-.294.668-.018.267-.08.525-.187.774 0 .036.009.036.027 0 .017-.035.044-.035.08 0a17.012 17.012 0 0 0-.935 3.552 30.629 30.629 0 0 1-.774 3.606c-.072.89-.214 1.674-.428 2.35.071.393 0 .695-.213.908-.036.072-.027.117.027.134.053.018.061.063.026.134-.143.178-.196.41-.16.694.035.285.035.517 0 .695.07-.143.142-.321.213-.535.072-.213.142-.355.214-.427 0-.071-.01-.107-.027-.107-.018 0-.026-.035-.026-.107.07-.035.16-.142.267-.32a.735.735 0 0 0 .107-.535c.07.072.115.054.133-.053a.942.942 0 0 1 .08-.267c-.035 0-.053.018-.053.054 0 .035-.036.035-.107 0 .249-.142.338-.339.267-.588.071.072.107.08.107.027v-.24c.035.035.053.07.053.106 0 .036.018.072.054.107 0-.178.053-.267.16-.267.071-.142.071-.258 0-.347-.072-.089-.036-.17.107-.241-.036.072-.045.116-.027.134.018.018.027.062.027.133.07-.07.088-.15.053-.24-.036-.089.018-.134.16-.134a.33.33 0 0 1-.08-.16c-.018-.07.009-.07.08 0-.035-.249.018-.445.16-.587.143-.142.232-.339.268-.588.035 0 .053.036.053.107a.832.832 0 0 0 .16-.214c-.142.072-.16 0-.053-.213.107-.214.231-.321.374-.321-.036-.071-.054-.195-.054-.374.214-.178.401-.462.562-.855.16-.391.328-.748.507-1.068.071.036.115.018.133-.054.018-.07.062-.088.134-.053.071-.178.134-.365.187-.56a.813.813 0 0 1 .294-.455c.035 0 .053.054.053.16.071 0 .107-.035.107-.106v-.16c-.036 0-.053.009-.053.026 0 .018-.036.027-.107.027.07-.32.222-.605.454-.855a3.42 3.42 0 0 0 .56-.801c-.071-.071-.071-.107 0-.107.072 0 .072-.035 0-.107a.348.348 0 0 0 .161-.16.347.347 0 0 1 .16-.16c0-.035-.009-.045-.027-.027-.018.018-.026.01-.026-.027.07-.107.168-.204.294-.294.124-.088.187-.221.187-.4-.072.036-.107.09-.107.16 0 .072-.036.107-.107.107.427-.641.845-1.29 1.255-1.95a7.682 7.682 0 0 1 1.47-1.736c-.037.036-.054.072-.054.107.07 0 .107-.035.107-.107v-.213c.106 0 .16-.071.16-.214.178-.142.391-.32.64-.534.25-.214.463-.445.642-.695.178-.142.409-.23.694-.267.285-.035.516-.053.695-.053.07.107.124.142.16.107.035-.035.125-.018.267.053 0 .036-.009.054-.027.054l-.015.006c-.008.008-.011.024-.011.047.106-.035.177.018.213.16.071-.035.107-.07.107-.107 0-.035.035-.035.107 0-.036.072-.027.107.027.107.053 0 .061.036.026.107.071-.071.125-.054.16.053.036 0 .045-.035.027-.107-.018-.07.009-.088.08-.053 0 .107.045.232.134.374.088.143.187.214.294.214-.036.071-.107.071-.214 0-.036.036-.053.071-.053.106 0 .037-.036.072-.107.107.07.072.107.063.107-.026s.035-.116.106-.08c0 .213.09.267.268.16-.072.072-.09.178-.054.32.035 0 .057-.006.066-.02a.563.563 0 0 0-.012.127.128.128 0 0 1-.065.016c.02.023.007.07-.042.144.107-.07.16 0 .16.214 0 .139.041.245.117.323l-.01-.002c0 .071.026.115.08.133.053.018.044.063-.027.133 0 .072.035.1.107.08.071-.017.089.01.053.081.036 0 .054-.035.054-.107.107.107.098.223-.027.347-.125.126-.152.259-.08.4.071-.034.089-.06.053-.08-.035-.017-.053-.043-.053-.08.107-.034.16.019.16.16-.107 0-.178.064-.213.188-.036.125-.019.223.053.294l.053-.054c.071.286.054.606-.053.962s-.107.64 0 .855l-.16.16a13.5 13.5 0 0 0-.134.828c-.018.16-.026.418-.026.774-.072.072-.107.205-.107.4 0 .197-.018.42-.054.669-.071-.036-.098-.018-.08.053.018.072-.009.072-.08 0 .071.072.089.17.053.294a1.25 1.25 0 0 1-.16.347c.035.036.054.062.054.08l.005.021a.239.239 0 0 0 .048.06c-.072.071-.09.195-.053.373.035.179-.019.303-.16.374.034.036.053.063.053.08 0 .018.017.045.054.08-.107.962-.224 1.96-.348 2.992-.125 1.033-.25 2.039-.374 3.018-.125.98-.222 1.923-.294 2.83a19.19 19.19 0 0 0-.055 2.366c.024-.037.056-.083.109-.149.142-.177.231-.266.267-.266.07-.143.088-.25.053-.321-.036-.07.018-.125.16-.16 0-.071.036-.16.107-.267a.268.268 0 0 0 0-.321c.071-.035.098-.026.08.027-.018.053.009.08.08.08.072-.07.089-.125.054-.16-.036-.035-.036-.089 0-.16.07.035.115.018.134-.054.017-.071.008-.107-.027-.107 0-.07.035-.07.107 0 .07-.035.07-.062 0-.08-.072-.017-.09-.044-.053-.08.07-.035.106-.035.106 0 0 .036.018.036.053 0-.071-.07-.071-.124 0-.16.072-.035.09-.107.054-.214.071.072.134.018.187-.16.053-.178.08-.32.08-.428h.107c0-.07.008-.124.026-.16a.367.367 0 0 0 .027-.16c.071.107.115.116.134.027a.37.37 0 0 0-.027-.24c.035.035.071.053.107.053.035 0 .017-.035-.054-.107.107 0 .16-.124.16-.374h.108c-.036-.071-.019-.124.053-.16.071-.035.071-.089 0-.16.142-.071.258-.214.347-.428.089-.214.169-.409.24-.587v.053c.072 0 .107-.089.107-.267l.054.053c0-.142.053-.284.16-.427a.78.78 0 0 0 .16-.48v.16c.06 0 .094-.062.104-.186l.003-.082a.976.976 0 0 0 .267-.24c.107-.124.142-.275.107-.454.071.072.124.063.16-.027a.67.67 0 0 0 .054-.24h.107v-.16c.284-.142.427-.356.427-.641.035-.072.08-.107.134-.107.053 0 .061-.054.026-.16.071 0 .125-.054.16-.16l.107-.321c.071-.035.107-.044.107-.027 0 .018.035.01.107-.027-.072-.07-.045-.124.08-.16.125-.035.169-.142.133-.32.072.071.107.089.107.053 0-.035.018-.071.054-.107v-.16c.07 0 .097-.027.08-.08-.018-.053.008-.044.08.026v-.267c.107.072.16.046.16-.08 0-.124.035-.15.107-.08 0-.142.045-.24.134-.294.088-.053.133-.15.133-.293.071.036.098.045.08.026-.018-.017.009-.026.08-.026v-.267c.072-.035.108 0 .108.106.034 0 .044-.026.026-.08-.018-.053-.009-.08.027-.08.035 0 .053.036.053.107.071-.142.107-.249.107-.32.178-.142.356-.321.534-.535l.534-.641c.249-.07.392-.195.428-.374.285-.178.632-.294 1.041-.347.41-.053.757-.027 1.042.08.035 0 .053.072.053.214.035-.035.062-.053.08-.053l.021-.006a.25.25 0 0 0 .06-.048c.035 0 .053.027.053.08 0 .053.035.063.107.027-.036.285.088.534.374.748 0 .178.027.303.08.374.053.072.027.178-.08.32.035.072.07.072.107 0 .035-.07.088-.07.16 0-.107.072-.125.143-.053.214.063.064.067.143.016.235.016-.013.045-.021.09-.021-.036.071-.036.106 0 .106.035 0 .018.036-.053.107.071.036.115.116.133.24.018.126-.009.206-.08.241a21.51 21.51 0 0 1 .214 2.991c.107-.07.142-.035.107.107a.447.447 0 0 0 .053.374c-.036 0-.053-.008-.053-.027l-.006-.015c-.008-.007-.024-.011-.048-.011-.071.106-.089.16-.053.16.035 0 .053.036.053.107-.071.036-.106.036-.106 0 0-.035-.019-.054-.054-.054 0 .036.054.107.16.214-.071.072-.08.152-.026.24.053.09.062.17.026.24-.071-.034-.106-.106-.106-.213-.036 0-.054.027-.054.08 0 .053-.018.08-.053.08.035.072.061.099.08.08.018-.017.062-.008.133.027a.425.425 0 0 0-.026.267c.017.107-.027.16-.134.16 0 .036.008.054.027.054.018 0 .027.036.027.107.07 0 .088-.036.053-.107-.036-.071-.018-.089.053-.054 0 .18.009.366.027.562.018.196-.045.347-.187.453a.456.456 0 0 1 .08.107.391.391 0 0 0 .08.107c0 .036-.009.036-.026 0-.019-.035-.045-.017-.08.053.035.072.061.09.08.054.017-.035.044-.054.08-.054-.072.179-.09.393-.054.641l-.16-.32h.107c-.072-.071-.099-.124-.08-.16.018-.035-.01-.071-.08-.107v.267c.035.072.07.133.107.187.035.053.07.116.106.187-.142.107-.178.25-.106.427-.036 0-.054-.035-.054-.106v.16c.057-.029.08-.023.068.017l-.014.036c-.036.072-.019.107.053.107a.332.332 0 0 0-.107.24c0 .09-.053.152-.16.187.071 0 .107.045.107.134 0 .089.035.133.107.133-.036.036-.09.054-.16.054.07.036.097.08.08.133-.019.054.008.099.08.134a3.651 3.651 0 0 1-.214.374c.035.072.071.072.107 0 .035-.071.07-.071.107 0-.107.107-.126.178-.054.214.071-.036.115-.072.134-.107.017-.035.062-.054.133-.054-.036.036-.053.072-.053.107 0 .036.017.054.053.054-.178.071-.285.16-.32.266.07.036.088.063.053.08-.036.019-.036.063 0 .134h-.16a.37.37 0 0 1 .027.24.25.25 0 0 0 .08.24c.045.016.073.02.09.016-.005.02-.004.046-.01.065a.573.573 0 0 0-.027.187l.16-.32a1.844 1.844 0 0 0-.053.453c0 .16-.036.313-.107.454.107.036.142.143.107.32a.722.722 0 0 0 .053.482c-.036.072-.08.099-.133.08-.054-.018-.08.027-.08.134l.213-.107c.036.071.018.107-.053.107 0 .071.027.106.08.106.054 0 .08-.035.08-.106.035.036.054.071.054.106 0 .017.009.025.025.026-.017.008-.033.016-.052.028-.053.036-.063.018-.027-.054-.071.072-.08.143-.026.214.053.072.026.143-.08.214-.036 0-.056-.009-.06-.027l.006.027a.597.597 0 0 0 .107.16c.07 0 .08-.027.027-.08-.054-.053-.027-.062.08-.027.026.107.026.24.013.386.095.068.147.134.147.202-.036 0-.053-.008-.053-.027 0-.018-.019-.027-.054-.027.035.036.054.107.054.214.07-.035.097-.088.08-.16-.019-.071.008-.089.08-.054a.538.538 0 0 0-.107.294c0 .09-.019.187-.053.294 0 .036.008.053.026.053s.027.036.027.107c.035 0 .053-.035.053-.107 0 .392.089.802.267 1.229-.071 0-.098-.027-.08-.08.018-.054-.009-.098-.08-.134-.036.179-.01.276.08.294.089.018.134.116.134.294.07-.071.107-.125.107-.16.035 0 .044.035.027.106-.019.072-.063.107-.134.107.142.072.213.134.213.187 0 .054.054.134.16.24.036-.034.072-.044.108-.026.02.01.029.006.025-.016l-.009-.027.02.044c.052.097.111.15.179.16l.052-.001c.107-.017.195.027.267.134l.151-.054c.05-.045.104-.112.159-.198.1-.155.151.02.234-.164.028-.253.053-.6.065-.886.003-.057.09-.111.131-.083.164.114.233.43.233.696 0 .332.207.049.08.563-.05.204-.097.464-.115.57l-.008.048s-.886 2.294-1.527 2.454c-.072-.035-.17-.026-.294.027-.125.054-.24.099-.347.133-.036-.034-.054-.088-.054-.16-.072.072-.125.099-.16.08-.036-.017-.09.01-.16.08a.865.865 0 0 0-.214-.16c-.072-.035-.125 0-.16.107-.036 0-.054-.07-.054-.214-.071 0-.106.036-.106.107a1.028 1.028 0 0 0-.347-.373.628.628 0 0 1-.213-.228.337.337 0 0 1-.242-.253c-.036-.142-.107-.195-.213-.16-.036-.25-.09-.428-.16-.535a.446.446 0 0 1-.054-.374c-.072 0-.107.019-.107.054a4.768 4.768 0 0 1-.133-.908 2.311 2.311 0 0 0-.24-.908c.106-.142.114-.276.026-.401-.09-.125-.063-.222.08-.294.035-.071.027-.115-.027-.134-.053-.017-.062-.061-.026-.133-.072 0-.099.036-.08.107.017.071-.01.089-.08.053.07-.391.08-.765.026-1.122a25.889 25.889 0 0 1-.133-1.014c.035 0 .053.009.053.026l.006.015c.008.008.024.012.048.012 0-.178-.054-.249-.16-.214a.6.6 0 0 1 .106-.16c.035-.035.035-.106 0-.214h-.16c.07-.07.08-.177.027-.32-.054-.142-.027-.285.08-.427-.072 0-.107-.072-.107-.214 0-.142.008-.302.027-.48a2.716 2.716 0 0 0 0-.535c-.019-.178-.063-.302-.134-.374.07-.391.098-.836.08-1.335a7.023 7.023 0 0 0-.134-1.23.605.605 0 0 0 .054-.426h-.054c0-.712-.018-1.487-.053-2.324-.036-.836.401-2.848.33-3.775-.036-.035-.062-.187-.08-.454a2.247 2.247 0 0 0-.134-.667.61.61 0 0 1-.08.133c-.018.019-.026.063-.026.134-.072-.035-.126-.018-.16.053-.037 0-.054-.053-.054-.16a.618.618 0 0 1-.107.16c-.036.036-.053.09-.053.16-.036-.106-.063-.133-.08-.08a1.64 1.64 0 0 1-.08.187l-.107-.107a.238.238 0 0 0-.134.16 1.084 1.084 0 0 1-.08.214c-.036 0-.053-.035-.053-.106-.072 0-.09.018-.054.053.035.036.054.09.054.16-.107-.035-.197.01-.268.134-.071.125-.16.187-.267.187-.107.285-.057.552-.306.801-.234.235-.637.485-.832.751l.03-.002c0 .106-.026.24-.079.4-.053.16-.17.24-.347.24.035.178-.027.338-.187.48a2.09 2.09 0 0 0-.347.374c.07.143.044.241-.08.294-.126.054-.17.17-.134.348-.143 0-.232.116-.267.347-.036.232-.125.383-.267.454 0 .071.008.107.027.107l.011.006c.01.014.015.047.015.1-.178.036-.267.233-.267.588-.178-.035-.24.018-.187.16.054.143.062.25.027.32-.072-.07-.09-.124-.053-.16-.143 0-.17.08-.08.241.088.16.008.24-.24.24 0 .046-.039.079-.077.098.087.008.209.065.183.17-.072 0-.116-.01-.134-.027-.018-.018-.045-.027-.08-.027 0 .107.053.178.16.214-.107.107-.142.178-.107.213h-.16a3.407 3.407 0 0 0-.106.454c-.037.196-.126.33-.268.401 0 .143-.018.285-.053.427-.072 0-.327-.017-.308-.053.017-.035.617-.054-.027-.054-.072.107-.08.187-.027.241.054.053.062.17.027.347-.072-.07-.125-.07-.16 0-.036.072-.054.072-.054 0-.071 0-.08.045-.026.133.044.075.03.09-.037.053.005.008.01.016.01.028l.006.03c.007.015.023.023.047.023-.107.107-.178.16-.213.16.07.143.07.267 0 .374-.05-.05-.072-.08-.07-.095-.056.035-.07.084-.037.149.035.071 0 .071-.107 0 .107.178.07.365-.107.56-.178.196-.25.384-.214.561 0 .036-.009.054-.026.054-.019 0-.027-.035-.027-.107a.608.608 0 0 0-.107.16c-.036.072-.036.125 0 .16-.072-.035-.107.019-.107.16 0 .144-.053.233-.16.268.071.072.071.126 0 .16-.072.036-.072.09 0 .16-.072-.07-.143-.106-.214-.106.036.036 0 .089-.107.16.072.071.098.143.08.213a.299.299 0 0 0 .027.214c-.213-.07-.339.019-.373.267a6.25 6.25 0 0 1-.107.588c-.072.072-.107.053-.107-.053 0-.108.035-.161.107-.161-.072-.07-.116-.061-.134.027-.018.09-.08.116-.187.08-.036.25-.036.446 0 .588-.072-.035-.107-.16-.107-.375-.071.036-.098.1-.08.188.018.089-.027.152-.133.187-.072.071-.072.116 0 .133.006.002.007.007.012.01-.014-.003-.034.001-.066.017-.072.036-.09.071-.053.107l-.054-.054v.16c-.071.036-.089.019-.053-.053.035-.071.018-.089-.054-.053-.035.035-.045.062-.026.08.017.018.008.062-.027.133-.071-.034-.152-.017-.24.054a2.91 2.91 0 0 0-.24.214.662.662 0 0 1-.268.16c-.106.036-.232.018-.374-.054-.035.143-.178.179-.427.107v-.16c-.072 0-.098.018-.08.053.017.036-.01.019-.08-.053h.053a.403.403 0 0 0-.24-.24 1.106 1.106 0 0 1-.347-.24c.07-.143.053-.232-.054-.268-.052 0-.084.02-.098.057.01-.082-.027-.146-.115-.19-.107-.054-.126-.134-.054-.24.071 0 .089.035.054.106-.036.072-.019.09.053.053a.485.485 0 0 0-.053-.214c-.036-.07-.036-.16 0-.267-.028-.013-.046-.014-.06-.01l.006.01c-.009.01-.02.014-.03.02.003-.017.011-.026.024-.03-.03-.058-.047-.075-.047-.043 0 .036-.036.053-.107.053.035-.177.044-.302.027-.374a1.705 1.705 0 0 1-.027-.373l.107.107a2.112 2.112 0 0 1 .053-1.55h-.16c0-.07.008-.107.027-.107.017 0 .008-.034-.027-.106.07-.035.107-.045.107-.027s.017.027.053.027v-.16c-.072-.036-.098-.018-.08.053.018.072-.01.09-.08.053.07-.284.107-.578.107-.88 0-.303.017-.65.053-1.043.035-.07.054-.07.054 0l-.001.154.019-.237c.014-.252.02-.53.016-.833l-.008-.312a4.134 4.134 0 0 1 .24-1.55h-.053c.071-1.21.151-2.43.24-3.659.089-1.228.223-2.358.401-3.392-.072-.106-.098-.248-.08-.427a.927.927 0 0 1 .134-.427 7.954 7.954 0 0 1-.027-1.175c.017-.463.044-.952.08-1.47.035-.515.062-1.041.08-1.575.018-.534.009-1.015-.027-1.442a.974.974 0 0 1-.347.293.432.432 0 0 0-.24.401c-.107-.07-.17-.053-.187.054a.48.48 0 0 1-.134.266c-.035 0-.053-.034-.053-.106 0-.035.018-.071.053-.107-.106 0-.152.045-.133.134.017.089.044.169.08.24-.357.143-.5.41-.427.801-.036-.035-.054-.088-.054-.16-.072 0-.107.09-.107.267-.072-.107-.106-.098-.106.027s-.019.205-.054.24c-.107-.035-.17-.027-.187.027-.018.053-.062.08-.134.08.072.142.072.25 0 .32a.673.673 0 0 0-.16.32c-.036 0-.053-.007-.053-.026l-.006-.014c-.008-.008-.024-.012-.047-.012.07.071.08.125.026.16a.18.18 0 0 0-.08.16c-.072-.071-.142-.027-.214.133-.071.16-.107.294-.107.401-.035 0-.053-.008-.053-.026l-.006-.015c-.008-.008-.024-.012-.047-.012a.932.932 0 0 0-.08.267.988.988 0 0 1-.08.267c-.037-.035-.045-.071-.027-.107.017-.035.008-.053-.027-.053-.072.071-.107.142-.107.213v.16c.035.037.054.045.054.027 0-.017.035-.008.107.027 0 .072-.019.125-.054.16-.072 0-.107-.035-.107-.107-.072 0-.116.019-.133.054-.019.036-.045.018-.08-.054-.072.072-.072.134 0 .187.07.054.07.134 0 .24-.072 0-.107-.034-.107-.106-.036.036-.045.072-.027.107.018.036-.027.053-.133.053 0 .036.035.054.106.054.036.071.009.116-.08.133-.089.018-.08.063.027.134-.107 0-.187.036-.24.107-.054.071-.116.106-.187.106 0 .072.017.134.053.187.035.054.018.045-.053-.027 0 .072.017.116.053.134.035.018.053.063.053.134-.072-.035-.106-.062-.106-.08 0-.018-.019-.045-.054-.08 0 .142.018.213.054.213-.036.072-.072.09-.107.053-.036-.034-.054-.07-.054-.106-.036 0-.036.035 0 .106.035.072 0 .107-.106.107.07.072.088.134.053.187a.435.435 0 0 0-.053.24c-.066-.031-.092-.08-.082-.143l-.001.001-.006.015-.018.02c-.036.037-.036.09 0 .161-.036 0-.054-.008-.054-.027l-.006-.014c-.008-.008-.024-.012-.047-.012.07.107.088.196.053.267-.035-.035-.053-.071-.053-.107a.36.36 0 0 0-.16.32h.16c-.072 0-.107.036-.107.107a.238.238 0 0 1-.062-.095 1.087 1.087 0 0 1-.152.416 1.696 1.696 0 0 0-.213.64c-.072 0-.116-.017-.134-.053-.018-.035-.062-.053-.133-.053.035.072.07.116.106.133.035.019.035.08 0 .188-.035 0-.053-.036-.053-.107 0-.014.005-.022.01-.03-.032.022-.05.061-.037.137a.434.434 0 0 1-.026.266c-.072 0-.107-.034-.107-.106-.036.072-.045.133-.027.187a.599.599 0 0 1 .027.187c-.107.071-.17.142-.187.213a.47.47 0 0 1-.134.214c-.071-.071-.107-.071-.107 0 0 .072-.035.09-.106.053a.795.795 0 0 0 .16.214c0 .072-.01.09-.027.054-.018-.036-.062-.054-.133-.054 0 .072-.01.125-.027.16-.018.036-.01.09.027.16-.072-.035-.116-.008-.134.08-.018.09-.027.08-.027-.026a.424.424 0 0 0-.053.187c0 .053-.036.098-.107.133h.053c.071.036.062.072-.026.107-.09.036-.099.09-.027.16l-.107-.106c-.036.036-.018.143.054.32-.143-.142-.214-.088-.214.16-.107 0-.125-.053-.053-.16-.072 0-.09.036-.054.107.035.072.018.107-.053.107.107.036.142.107.107.213a.877.877 0 0 0-.054.268c-.072-.072-.116-.08-.133-.027a1.568 1.568 0 0 1-.08.187c-.036 0-.046-.008-.027-.027l.009-.015c0-.007-.012-.011-.036-.011-.072 0-.09.018-.054.053l-.053-.053a.51.51 0 0 1 .027.293c-.018.125-.099.187-.24.187a.372.372 0 0 1-.107.374c-.107.107-.107.232 0 .374-.072 0-.107-.018-.107-.053s-.036-.035-.107 0c.071.072.098.142.08.213a.294.294 0 0 0 .027.214c-.072-.035-.107-.027-.107.027 0 .053-.054.098-.16.133.035 0 .053.09.053.267l-.053-.053h-.054c0-.035.009-.044.027-.027.018.018.027.01.027-.027-.072-.07-.116-.08-.134-.026-.018.053.009.116.08.187-.036-.035-.071-.054-.106-.054-.036.072-.027.107.026.107.054 0 .08.036.08.107-.106.036-.142.072-.106.107.035.036.017.09-.054.16-.035 0-.053-.035-.053-.107-.036.286-.107.5-.214.641-.107.143-.16.357-.16.641-.179.072-.232.16-.16.267-.107 0-.16-.035-.16-.107-.073.036-.073.08 0 .134a.54.54 0 0 1 .16.187c-.072.072-.1.143-.08.214.017.071-.046.106-.187.106.034.179.008.375-.08.588-.09.214-.17.356-.241.427.071.214.027.428-.134.641-.16.214-.222.428-.186.641-.143.072-.214.232-.214.481 0 .25-.072.446-.214.588.035.143.027.339-.027.587-.053.25-.17.374-.347.374 0 .072.018.107.054.107.035 0 .07.019.106.053a.513.513 0 0 1-.16.374c0 .072.035.107.107.107h-.16c.035.143.035.25 0 .32-.036.072-.054.09-.054.054 0-.035-.036-.053-.107-.053.071.036.098.08.08.134l-.005.038c.003.037.032.068.086.095a2.974 2.974 0 0 0-.107.694c0 .18-.036.357-.107.534.071.107.089.24.053.4a1.18 1.18 0 0 1-.16.401c-.013-.012-.02-.026-.029-.04-.043.309-.065.61-.05.895.017.357-.046.73-.188 1.122.071.214.071.472 0 .775a5.331 5.331 0 0 1-.214.72c.143.18.152.34.027.482-.125.141-.133.266-.027.373.071 0 .089-.045.054-.133-.036-.09-.018-.134.053-.134a1.2 1.2 0 0 1 .054.374.36.36 0 0 1-.16.32c.07.036.088.108.053.214a.684.684 0 0 1-.16.268c.177.391.16.747-.054 1.068.107.32.071.695-.106 1.122.07.141.07.284 0 .427a.45.45 0 0 0 0 .427.419.419 0 0 0-.107-.08c-.036-.018-.054-.063-.054-.133a1.21 1.21 0 0 0-.026.427c.017.107.061.267.133.48-.072 0-.107-.044-.107-.133 0-.089-.036-.116-.107-.08.071.107.071.196 0 .267.035 0 .054-.009.054-.026 0-.019.035-.027.107-.027-.072.178-.099.302-.08.374.016.065.008.177-.02.333.004-.008.01-.013.02-.013.017 0 .026-.018.026-.054 0 .072-.026.188-.08.348-.053.16-.098.311-.134.454-.071-.036-.16.053-.266.267-.107.214-.126.374-.054.481-.107-.036-.107.035 0 .213h-.16c.035.071.044.134.027.187-.019.054-.01.134.026.24-.072 0-.107-.071-.107-.212-.071 0-.107.026-.107.08 0 .053.036.08.107.08-.017.033-.033.051-.05.057.068.104.076.156.024.156-.054 0-.045.035.026.107 0 .035-.035.053-.107.053-.035 0-.053-.018-.053-.053-.072.035-.107.142-.107.32-.036 0-.089-.036-.16-.106-.036.07-.036.134 0 .187.035.053.071.044.107-.027.07.035.08.062.027.08-.054.018-.063.045-.027.08-.107 0-.143-.035-.107-.107-.036 0-.053.009-.053.027l-.006.015c-.008.008-.024.012-.048.012-.035.034-.045.061-.027.08.018.017-.008.044-.08.08-.035.07-.026.107.027.107s.062.035.027.107c0 .035-.027.053-.08.053a.18.18 0 0 0-.134.053c-.071-.035-.08-.062-.026-.08l.024-.012c.023-.017.005-.04-.051-.067-.214.213-.446.4-.695.56-.25.16-.516.347-.8.561-.072-.107-.135-.116-.188-.027-.053.089-.098.062-.134-.08-.034 0-.053.053-.053.16-.107.035-.178.018-.214-.053-.035-.071-.088-.071-.16 0 .036-.071.018-.107-.053-.107s-.071-.035 0-.107c-.071.072-.178.027-.32-.133-.143-.16-.178-.33-.108-.508.037 0 .054.01.054.027s.018.027.053.027c.036-.072.045-.107.027-.107s-.027-.018-.027-.054c-.07 0-.097.018-.08.054.018.035-.008.035-.08 0a32.144 32.144 0 0 1 .107-5.261c.179-1.692.303-3.446.374-5.262.071-.605.16-1.3.267-2.083a25.96 25.96 0 0 0 .213-2.244c.036-.035.073-.169.107-.4.036-.232.019-.383-.053-.455.072-.07.125-.195.16-.373.036-.179.019-.303-.053-.374.178-1.21.364-2.493.56-3.846.196-1.354.41-2.742.642-4.167.231-1.424.471-2.84.721-4.247.249-1.406.516-2.786.8-4.14.072-.177.152-.427.241-.748.089-.32.116-.622.08-.908.107-.142.205-.4.294-.774s.115-.632.08-.775c.071-.035.098-.08.08-.133-.018-.054-.009-.115.027-.187.107.036.134.009.08-.08-.053-.089-.026-.098.08-.027v-.534c.036.072.071.072.107 0 0-.035-.036-.054-.107-.054.036-.035.054-.097.054-.187 0-.088.035-.097.107-.026.07-.605.214-1.237.427-1.897.214-.658.392-1.38.534-2.163.107-.07.16-.213.16-.427.072 0 .107-.018.107-.054 0-.035.018-.035.054 0-.072-.07-.072-.142 0-.213.07-.071.088-.178.053-.32-.142.07-.152.053-.026-.054.124-.107.15-.178.08-.214.178-.498.4-1.095.667-1.79.267-.694.508-1.308.721-1.842.142-.285.365-.543.668-.775Zm64.054 4.782c.712-.107 1.308.027 1.79.4.48.374.791.81.934 1.309.035.286.035.544 0 .775a2.054 2.054 0 0 0 0 .668 27.551 27.551 0 0 1-1.175 2.643c-.427.838-.695 1.826-.801 2.965-.464 2.35-.954 4.683-1.47 6.998a532.89 532.89 0 0 0-1.522 7.05c0 .073.009.126.027.161.017.036.027.09.027.16a1.2 1.2 0 0 0-.214.535 4.218 4.218 0 0 0-.054.694v-.001l.047-.212.034-.214c.017-.143.043-.302.08-.481.035.036.053.09.053.16.071 0 .089-.053.054-.16-.036-.107 0-.142.106-.107-.071.25-.133.507-.186.775a2.875 2.875 0 0 1-.24.72c0 .18.017.294.052.348.036.053.036.152 0 .294-.071.071-.106.053-.106-.054-.32 1.461-.392 2.858-.214 4.194.178 1.335.374 2.59.588 3.765.074.258.23.473.373.775.142.302.386.993.481.881.285-.213.516-.472.695-.774.177-.302.338-.632.48-.988.072.035.116.018.134-.054.017-.07.062-.106.134-.106a71.977 71.977 0 0 0 2.83-6.17c.368-.91.763-1.79 1.183-2.646.057-.254.139-.51.249-.77l-.01.12.014-.052c.015-.042.033-.04.056-.078l.024-.053c-.086.122.033-.178.053-.269.165-.28.35-.651.48-.904l.028.004c.055-.134.14-.266.214-.398.062-.121.149-.311.232-.461.028-.032.079-.08.126-.175.054-.192.106-.28.228-.54.057-.088.118-.211.223-.32l.273-.269c.241-.306.506-.601.775-.897l.406-.447a2.97 2.97 0 0 1 .457-.44l.07-.01c.092-.072.195-.135.295-.193l.288-.18c.118-.074.216-.072.292-.086l.23-.024a1.35 1.35 0 0 0 .387-.086c.057-.023.095-.054.193-.099.075-.033.144-.057.211-.08.133-.045.26-.086.379-.125.208-.043.416-.065.355-.09.211-.034.519-.135.662-.112.22-.024.265-.062.456-.081.415.016.586.036.918.1-.024.006-.014.023.068.044.16.014.551.193.423.08.127.058.268.124.408.202.043-.098.091-.197.153-.295.18-.287.476-.772.414-1.126-.007-.038.006-.147.025-.166.174-.171.328-.302.58-.32.277-.02.751.02.832.299.158 0 .277.03.358.09.079.06.179.089.298.089.199.239.358.567.478.985.12.418.188.856.209 1.313.02.458-.01.896-.09 1.314-.08.418-.219.766-.418 1.044 0 .439-.1.797-.298 1.075a1.927 1.927 0 0 0-.351.855v-.005l.008-.02c.012-.037.017-.048-.001.017l-.014.048c-.1.34-.17.727-.21 1.165-.08.04-.119-.02-.119-.18-.04.04-.07.09-.09.15-.02.06-.03.03-.03-.09-.08.08-.089.15-.03.21.06.059.05.129-.029.208.08-.04.12-.099.12-.179 0-.08.039-.099.119-.06 0 .08-.02.14-.06.18-.04.04-.06.119-.06.238-.08-.08-.119-.08-.119 0s-.134.16-.173.24c0 .08.019.088.06.029.038-.06.078-.05.118.03-.08.04-.14.11-.178.209-.04.1-.1.189-.18.268.08.04.11.09.09.15-.02.06-.01.13.03.208-.08.04-.12.02-.12-.06 0-.079-.04-.079-.119 0 .039.08.08.13.12.15.039.02.039.09 0 .209-.081-.239-.2-.278-.36-.12.12.08.18.18.18.3-.08.04-.11.029-.09-.03.02-.06.01-.11-.03-.15-.04 0-.06.01-.06.03 0 .02-.02.03-.058.03.039.12.078.23.119.328.039.1-.04.11-.239.03a.7.7 0 0 0 .09.209c.02.02-.01.07-.09.15.04.04.069.059.09.059.02 0 .05.02.089.06-.12.08-.14.17-.06.268.08.1.12.19.12.269-.08.04-.12.04-.12 0l-.004-.019c-.013-.019-.052-.013-.115.019-.04 0-.194.455-.194.654.08 0 .12-.02.12-.06 0-.04.02-.08.06-.12.079.12.108.29.088.508-.02.219.048 1.135.128 1.334-.08 0-.11-.03-.09-.09.02-.06-.047-.797-.127-.797.08.32.167 1.305.188 1.543.02.24.049.518.09.836-.081.16-.16.2-.24.12 0 .08.03.12.09.12s.09-.04.09-.12c.079.12.068.17-.03.149-.1-.02-.13.05-.09.209 0 .08.01.08.03 0 .016-.064.052-.074.107-.035.037.47.265.684.4.654.242-.054.577-.405.682-.538.303-.383.89-1.282 1.06-1.521.17-.24.752-1.357 1.161-2.142.41-.786.963-2.38 1.065-2.552.103-.17 1.327-3.44 1.566-4.635.082-.409.337-1.258.638-2.198.023-.097.042-.195.065-.292.767-3.24 1.21-4.86 2.137-7.745-.427.143-.891.303-1.389.48-.498.179-.996.34-1.496.481-.498.036-.996.16-1.496.374-.498.214-.978.303-1.442.267-.462.179-1.059.267-1.79.267-.728 0-1.396-.07-2.002-.213a12.235 12.235 0 0 1-1.79-1.042c-.587-.409-.952-1.006-1.095-1.79.107-.355.32-.587.641-.694.107 0 .18.036.214.107.036.072.24-.012.267.053.143.357.419.58.828.668.41.09.81.134 1.202.134.748 0 1.522-.062 2.324-.187a23.104 23.104 0 0 0 2.403-.508c.802-.214 1.585-.427 2.35-.64l2.11-.588c.285-.036.499-.071.642-.107.141-.035.32-.071.533-.107.428-.997.99-2.76 1.363-3.793.374-1.032.81-1.993 1.309-2.884a.6.6 0 0 1 .267-.053c.107 0 .173-.115.214-.107a4.43 4.43 0 0 1 1.308.534c.41.25.596.677.56 1.282-.106.57-.239 1.086-.4 1.549-.16.463-.49 1.745-.667 2.35.961-.178 2.03-.374 3.205-.587a26.32 26.32 0 0 1 3.525-.4 16.017 16.017 0 0 1 3.366.186c1.068.178 2.01.57 2.83 1.175.114.077.13.29 0 .267a27.519 27.519 0 0 0-2.644-.294 12.641 12.641 0 0 0-2.697.134c-.82.25-1.692.454-2.617.614-.927.16-1.594.4-2.306.756 0 .072-.16.135-.178.152-.019.019-.027.063-.027.134-.463.179-.935.32-1.416.427-.48.107-.97.214-1.469.32l-.313.112c-.214.072-.167.21-.275.423a2.924 2.924 0 0 0-.24.694l-.16.748c-.054.25-.152.446-.294.588.035.285-.01.516-.133.694a.658.658 0 0 0-.098.228c.009-.122.015-.197-.009-.094-.053.232-.045.419.027.56-.072 0-.107-.035-.107-.106-.107.499 0 .285-.16.748-.161.463-.277.98-.348 1.549a158.923 158.923 0 0 0-1.095 4.433 77.198 77.198 0 0 0-.934 4.754h-.16c.07.143.124.214.16.214-.143.357-.214.677-.214.962 0 .285-.036.606-.107.961-.036.641-.08 1.345-.133 2.11-.054.766-.09 1.54-.107 2.324-.019.783.008 1.568.08 2.35.07.783.231 1.513.48 2.19.143.427.294.659.455.695.16.035.328-.019.507-.16.178-.143.347-.348.507-.615.16-.267.312-.507.454-.721h.107c.071-.072.107-.187.107-.347 0-.16.089-.259.267-.294.214-.57.472-1.068.775-1.496.302-.427.542-.943.72-1.549a66.355 66.355 0 0 0 2.137-4.22 54.202 54.202 0 0 1 2.164-4.193c.766-1.335 2.967-4.63 4.32-5.414.21.06.356.007.44-.16.047-.094.102-.08.175-.062l.667.222c.247.105.757 1.682.775 2.698a10.27 10.27 0 0 1-.4 3.017c-.036 0-.054.019-.054.054 0 .036-.018.053-.053.053-.107.5-.24.962-.401 1.39-.16.426-.303.863-.427 1.308-.126.446-.137.335-.19.815-.054.481-.01.989.133 1.523a9.138 9.138 0 0 0 1.71-1.336c.111-.111.222-.226.332-.34 2.432-2.763 4.555-7.22 5.691-9.473l.103-.252.032-.014.047-.092-.02.079c.174-.087.405-.26.58-.373.196-.124.392-.24.588-.347.195-.107.409-.168.641-.187.231-.017.454.063.668.24.107.5.053.918-.16 1.256a5.642 5.642 0 0 0-.535 1.095c-.072.641-.169 1.264-.293 1.87-.126.605-.259 1.21-.401 1.816.284-.57.67-1.077.988-1.63 3.124-5.411 3.667-5.392 4.917-6.89.106-.071.587-.41.694-.481.043-.032.454-.009.614-.027.16-.017 1.073.15 1.132.134l.16-.08c.035-.018.088-.002.16-.038.043-.01.152.1.241.171.088.072.24.072.24.107.142.107.276.223.401.347.125.125.395.262.454.347.214.677.408 1.38.354 2.11-.053.73-.045 1.47-.206 2.217-.16.748-.357 1.469-.587 2.164-.118.353-.229.689-.333 1.01-.014-.004-.096.653-.19 1.284a.985.985 0 0 1-.333.408c.049.062.066.14.05.234-.014.09.034.157.14.204l-.003.011-.01.057a.293.293 0 0 1-.197.154c-.032.19-.007.339.071.45.003.003.006.001.009 0a31.353 31.353 0 0 0-.273 1.636c-.107.784-.17 1.567-.187 2.35-.018.784.042 1.268.256 2.087.088.118.27.175.305.103.214 0 .427-.097.641-.293.214-.195.401-.428.56-.695.161-.267.303-.534.428-.8.124-.268.223-.455.294-.562.427-.676.855-1.424 1.282-2.243a83.82 83.82 0 0 1 1.335-2.457c.463-.82.944-1.62 1.443-2.404.498-.783 2.136-4.487 2.67-5.128l.06-.095c.384-.505 1.221.095 1.221.095.5.784.757 1.682.776 2.697a10.307 10.307 0 0 1-.401 3.018c-.036 0-.054.019-.054.054 0 .036-.018.053-.053.053-.107.5-.24.962-.4 1.389-.16.427-.304.864-.428 1.309a8.65 8.65 0 0 0-.267 1.389c-.053.48.102 1.104.342 1.193.656.049 1.002-.507 1.501-1.006a10.683 10.683 0 0 0 1.605-2.153c.034-.062.111-.052.115.016.042.753-.13 1.654-.734 2.545-.418.615-.504.857-1.109 1.355-.071.286-.937.926-1.133.961-.196.036-.383.143-.56.32 0-.07.017-.097.053-.08.035.019.053-.008.053-.08-.036-.071-.071-.062-.107.027a.577.577 0 0 1-.106.187 1.204 1.204 0 0 0-.561-.08c-.196.018-.082.096-.19-.083-.177.072-.602-.166-.745-.398-.139-.227-.222-.325-.293-.464.008-.007.028-.044.08-.044a1.714 1.714 0 0 1-.508-.988c-.053-.374-.222-.574-.222-.966h-.001c.002-.037.007-.044.008-.037v.01c.019-.052.053-.155.028-.155a11.97 11.97 0 0 1-.027-2.644c.04-.404.092-.803.153-1.2-.302.81-.587 1.578-.787 1.985-.463.944-.532 1.37-.994 2.313a68.14 68.14 0 0 1-1.442 2.778c-.5.907-.866 1.055-1.472 1.838-.127.088-.219.128-.379.216-.16.09-.607.732-.714.803-.178-.07-.477.12-.69.262.071-.142.071-.178 0-.107-.072.072-.107.053-.107-.053-.072 0-.152.133-.134.08.018-.054-.009-.08-.08-.08-.356.285-.591.272-.911.272-.57.072-1.034-.053-1.39-.374-.356-.32-.623-.738-.8-1.255a8.001 8.001 0 0 1-.374-1.736 36.439 36.439 0 0 1-.16-1.816 17.803 17.803 0 0 1 .186-3.766c.196-1.264.205-3.356.507-4.514.303-1.157.43-2.252.608-3.285-.5.427-1.827 2.582-2.183 3.152.035.285-.054.552-.267.8-.214.25-.374.5-.48.749-.037 0-.054-.054-.054-.16a2.121 2.121 0 0 0-.24.613 7.324 7.324 0 0 1-.188.668c-.071.214-1.081 1.76-1.17 1.92-.089.16-.205.259-.347.294-.036.072-.027.107.027.107.053 0 .062.036.026.107-.605 1.14-.196-.534-.854.587-.66 1.122-.451.823-1.234 1.82-.82.106-1.415-.071-1.79-.535-.373-.462-.614-1.032-.72-1.709.016-.672.072-1.313.164-1.928-.487.976-.953 1.942-1.016 2.153-.036.12-.322.656-.784 1.375l-.008.056-.026-.003a24.42 24.42 0 0 1-.48.712l.025.008c-.022.027-.04.039-.057.04l-.03.042c.018.01.04.017.065.022-.05.063-.093.09-.127.082h-.013l-.088.123c.007.1-.026.163-.102.189-.098.034-.124.11-.076.23-.078.02-.112.012-.105-.023l-.001-.011-.07.092-.081.378c-.07-.015-.08-.053-.03-.115.042-.054.038-.09-.01-.108-.04.053-.083.106-.125.159a.241.241 0 0 0 .002.057.29.29 0 0 1-.05.235c-.104-.022-.125-.054-.062-.095.055-.036.057-.06.013-.076-.032.04-.066.08-.1.12.02.056.03.1.022.133-.055-.084-.083-.08-.084.01a1.3 1.3 0 0 1-.023.24.181.181 0 0 0-.08.12c-.011.052-.05.054-.11.004.046.119-.32.286-.432.39-.04.036-.13.09-.228.15-.39.399-.8.767-1.22 1.079a.425.425 0 0 1-.288.204 1.052 1.052 0 0 0-.527.29c-.045.057-.093.097-.14.084a1.206 1.206 0 0 0-.561-.08c-.196.018-.347-.062-.454-.24-.178.071-.339-.009-.481-.24a8.265 8.265 0 0 1-.304-.53c.017.014.045.022.09.022a1.714 1.714 0 0 1-.507-.989 8.118 8.118 0 0 1-.08-1.148c0-.071-.01-.088-.027-.053l-.02.03a.08.08 0 0 1-.06.023 11.953 11.953 0 0 1-.027-2.644c.09-.908.232-1.798.427-2.671.108-.48.23-.947.365-1.405-.31.537-.61 1.082-.753 1.393.043 0-.03.106-.094.206-.188.402-.398.79-.633 1.16-.072 0-.107-.035-.107-.107a32.41 32.41 0 0 0-.801 1.603c-.25.534-.517.997-.802 1.389.035.036.054.125.054.267-.072.036-.107.072-.107.107 0 .036-.018.018-.053-.054.035.072.026.143-.027.214a1.418 1.418 0 0 0-.133.214c.07.036.097.018.08-.054l-.006-.036c0-.04.028-.045.086-.017-.072.143-.16.276-.268.4a.678.678 0 0 0-.16.454v-.004l-.006-.069a.203.203 0 0 0-.054-.107l-.047-.033a.814.814 0 0 1-.214-.16c-.106.107-.178.142-.213.107-.036.071-.036.115 0 .133.035.018.054.063.054.133.07-.035.08-.08.026-.133-.053-.054-.009-.08.133-.08 0 .178-.053.267-.16.267-.071.036-.098.036-.08 0 .018-.035.009-.071-.026-.107-.072.072-.125.196-.16.374a.72.72 0 0 0 .053.48c.07-.07.07-.124 0-.16-.072-.035-.072-.088 0-.16a.48.48 0 0 1 .214-.134.465.465 0 0 0 .213-.133c0 .036.036.09.107.16a.64.64 0 0 1-.08.214 7.04 7.04 0 0 0-.16.347 1.377 1.377 0 0 1-.187.32c-.072.09-.125.117-.16.08-.073.037-.09.09-.054.161.035.072.018.107-.053.107-.036-.214-.01-.365.08-.454a.41.41 0 0 0 .133-.294c0-.07-.018-.07-.053 0-.036.072-.09.107-.16.107-.072-.035-.08-.08-.027-.133.054-.054.044-.098-.027-.134-.107.143-.125.32-.053.534h-.16a.267.267 0 0 1 0 .32c-.072.107-.072.197 0 .268-.072.035-.107.071-.107.107 0 .035-.019.053-.054.053 0 .072.018.09.054.053.035-.035.053 0 .053.107.071 0 .089-.035.054-.107-.036-.07-.019-.088.052-.053.072.143.063.24-.026.294-.09.053-.116.17-.08.347-.072.036-.107.036-.107 0 0-.035-.018-.053-.053-.053-.036.071-.027.106.027.106.053 0 .08.036.08.107-.036-.07-.09-.035-.16.107a.266.266 0 0 0-.054-.134c-.036-.053-.09-.044-.16.027l.001-.002.213-.211a.59.59 0 0 0 .13-.22l.03-.1c-.143-.072-.232-.108-.268-.108 0 .072.018.107.054.107 0 .072-.018.08-.054.027-.035-.054-.071-.08-.106-.08a.94.94 0 0 0 .106.427c-.106 0-.152.036-.133.107a.308.308 0 0 1-.027.213c-.072 0-.098-.026-.08-.08.018-.053-.01-.08-.08-.08.07.072.07.16 0 .267-.072.107-.036.16.107.16 0 .073-.019.099-.054.08-.036-.017-.053-.007-.053.027.07 0 .107.045.107.134a.54.54 0 0 1-.054.24c.035 0 .054.019.054.054.071-.035.088-.098.053-.187a.781.781 0 0 1-.053-.294c.071-.035.115-.035.133 0 .018.036.045.019.08-.053-.106 0-.133-.018-.08-.054.054-.035.045-.107-.026-.214.07.072.106.09.106.054 0-.035.036-.054.108-.054.106.072.124.143.053.214-.072.072-.072.143 0 .214l-.002-.002-.037-.033c-.034-.028-.055-.033-.064-.016l-.004.024c0 .054-.036.08-.107.08.071.036.071.09 0 .16-.072.072-.053.143.053.214-.106-.07-.169-.062-.186.027-.019.09.008.17.08.24-.107-.106-.143-.124-.107-.053.035.072-.036.09-.214.053 0 .072.027.125.08.16l.036.03c.03.034.044.078.044.13-.142 0-.178.073-.106.214-.107 0-.16-.053-.16-.16 0-.107.035-.178.106-.214a.409.409 0 0 0-.133-.16c-.054-.035-.063-.088-.027-.16.071 0 .098.018.08.054a.229.229 0 0 0-.026.106c.106 0 .15-.035.133-.106-.018-.072.027-.125.133-.16-.106 0-.178-.028-.213-.081-.036-.053-.107-.044-.214.027v-.16c-.071.035-.09.089-.053.16.035.072.088.09.16.053l-.016.006-.044.018a.753.753 0 0 1-.16.026l-.1.004c.035-.072.044-.107.026-.107s-.009-.035.027-.107c-.072.036-.107.09-.107.16 0 .072.035.125.107.16 0 .036-.036.09-.107.16 0 .072.018.1.053.08.036-.017.054-.008.054.027.07.036.089.027.053-.026-.035-.054-.035-.098 0-.134.071.036.089.125.054.267-.036 0-.054-.008-.054-.026s-.018-.027-.053-.027c0 .072.008.116.027.133.016.018.025.06.025.126-.037-.008-.067-.02-.079-.045-.018-.035-.062-.018-.133.053.106 0 .133.036.08.107-.053.071-.063.143-.027.213.036-.017.06-.019.074-.005-.012-.105.034-.21.14-.315-.012 0-.018-.003-.028-.004.016-.004.028-.01.028-.023 0-.017.017-.026.053-.026.071-.035.08-.062.027-.08-.053-.018-.063-.062-.027-.134.035.072.071.133.107.187.035.053.035.116 0 .187-.036 0-.053-.018-.053-.054l-.006-.03c-.009-.015-.025-.023-.048-.023 0 .072.018.133.054.187.034.053.053.152.053.294-.072-.071-.125-.107-.16-.107a.501.501 0 0 1 0 .32c-.036.107-.072.25-.107.428h-.107c.071.178.053.293-.053.347-.107.053-.143.15-.107.294a.347.347 0 0 0-.16-.16c0-.179.07-.286.213-.321a.766.766 0 0 0-.106-.427c-.072-.107-.054-.214.053-.321-.036-.035-.072-.053-.107-.053-.036 0-.036-.035 0-.107 0 .036.018.062.054.08.035.018.053-.061.053-.24-.072.071-.09.071-.053 0 .035-.071.017-.142-.054-.214a1.078 1.078 0 0 0-.08.214c-.018.071-.062.071-.134 0 0 .036.035.089.107.16 0 .072-.018.116-.053.134-.036.018-.036.062 0 .133-.036 0-.063-.008-.08-.027l-.022-.015a.132.132 0 0 0-.058-.011c-.037.035-.054.089-.054.16 0 .071-.036.107-.107.107.071-.071.071-.125 0-.16a.131.131 0 0 1-.053-.045v.418c0 .179.035.374.106.588-.071.035-.106.107-.106.213 0 .107.035.178.106.214-.106 0-.16-.053-.16-.16-.142.178-.205.409-.187.694a2.83 2.83 0 0 1-.026.695c-.107.07-.16.035-.16-.107l-.035.047c-.035.068-.023.16.035.273-.072 0-.116-.018-.134-.053-.018-.036-.045-.018-.08.053 0 .036.017.071.053.107.035.035.054 0 .054-.107.07.071.061.134-.027.187-.09.054-.134.009-.134-.133-.071.035-.08.07-.027.107.054.035.063.088.027.16-.071-.107-.125-.099-.16.027a1.133 1.133 0 0 0-.053.294 1.556 1.556 0 0 1-.16-.214c-.072.035-.09.08-.054.133a.265.265 0 0 1 .054.134 4.481 4.481 0 0 0-.588.774c-.214.338-.446.579-.695.722-.285.32-.73.551-1.335.694-.606.142-1.104.142-1.495 0-.82-.214-1.443-.704-1.87-1.469-.428-.766-.73-1.648-.908-2.644a17.965 17.965 0 0 1-.268-3.152c0-1.103.02-2.1.054-2.99.016-.398.037-.792.06-1.185v.001l-.108.268a.494.494 0 0 1-.042.129l-.03.048c-.061.148-.123.294-.183.436-.001.033-.004.065-.002.102-.026.021-.048.046-.073.068-.146.334-.288.634-.418.877 0 .03-.002.06 0 .091-.018.001-.031-.003-.047-.004l-.036.067-.022.037.002.011-.011.004c-.06.103-.124.208-.19.315-.007.04-.008.079-.021.118-.048.146-.087.271-.118.38-.073-.033-.083-.059-.03-.08.052-.02.06-.046.023-.08a.664.664 0 0 0-.193.489c-.071.039-.114.05-.133.032-.019-.017-.044.011-.076.084.001.035.02.052.055.05.035-.001.053-.02.052-.055.034-.001.028.035-.023.108-.05.074-.092.147-.124.219.002.072.039.105.11.102.072-.003.073.033.005.107-.036.001-.054-.016-.055-.051-.002-.035-.038-.052-.11-.05.003.073-.175.088-.31.254-.135.167-.166.301-.09.405.073.033.073.05.003.053-.072.004-.088.04-.05.11-.073-.033-.11-.084-.113-.156-.003-.07-.04-.105-.111-.102-.033.073-.022.107.031.105.053-.002.08.015.083.05a1.435 1.435 0 0 1-.301.494.664.664 0 0 0-.193.489c-.072.003-.1-.004-.082-.023.017-.018-.01-.026-.08-.023.002.071.039.105.11.102-.034.037-1.343.78-1.358.835-.205.239-.54.209-.949.174-.41-.034-.72.155-1.16-.077-.22.04-.427-.143-.586-.302-.438-.359-.728-.743-.907-1.4a9.432 9.432 0 0 1-.329-1.82c.12.358.2.716.24 1.074.038.358-.052-.03.186.288 0-.397.131-.099-.067-.556a3.184 3.184 0 0 1-.24-1.523c-.08-.039-.11-.03-.089.03.02.06-.01.07-.09.03a.54.54 0 0 0-.059-.239c-.04-.08-.02-.159.06-.239.199.08.288-.05.268-.388a4.568 4.568 0 0 0-.09-.746l-.05.088a.374.374 0 0 0-.039.24c.02.1.03.23.03.388-.08-.079-.11-.099-.09-.06.02.04-.01.06-.089.06 0-.874.04-1.63.12-2.268.02-.161.043-.328.068-.5l-.07.147a.166.166 0 0 1-.047.098.214.214 0 0 1-.01.02l-.284.613c-.071.17-.137.246-.208.352l-.211.283c-.142.168-.31.372-.469.58-.08.102-.155.21-.255.33a2.92 2.92 0 0 1-.292.285c-.082.051-.18.21-.268.343-.088.14-.173.284-.257.43-.052.073-.057.136-.174.259-.087.075-.159.118-.235.166-.15.091-.3.17-.448.25-.14.07-.255.157-.382.264l-.188.165c-.064.052-.133.126-.257.176-.252.074-.398.023-.556.049-.076.008-.15.022-.221.045a5.456 5.456 0 0 1-.311.047s.057-.032.187-.08c.072-.02.136-.058.224-.088.051-.018.106-.075.175-.095a1.319 1.319 0 0 0-.332.05.892.892 0 0 1-.254.032 2.95 2.95 0 0 1-.488-.055l-.153-.025a.29.29 0 0 1-.07-.053c-.095-.055-.181-.141-.27-.203-.065-.09.076.038.086.014-.048-.05-.096-.102-.141-.147-.025.011-.005.02-.073-.002-.08-.05-.162-.15-.29-.252l-.014-.008c-.032.01-.093-.035-.23-.096a.46.46 0 0 1-.108-.135c-.026-.078-.082-.162-.142-.262-.03-.052-.061-.102-.083-.181-.02-.055-.04-.111-.054-.169l.001.002.046.065c.03.051.06.113.095.177l.057.097c-.051-.14-.063-.165-.09-.298a.977.977 0 0 0-.007-.024c-.046-.064-.095-.103-.174-.287l.02-.019c-.067-.172-.105-.161-.165-.39-.043-.175-.084-.352-.121-.521a22.25 22.25 0 0 0-.926 2.784c-.286.463-.534.944-.748 1.442a37.441 37.441 0 0 1-.694 1.523c-.25.515-.517 1.005-.801 1.47a6.768 6.768 0 0 1-.962 1.227c-.072 0-.08-.01-.027-.026.054-.019.062-.063.027-.134-.072.07-.125.124-.16.16-.036.035-.072.125-.107.267-.072-.036-.16-.018-.267.054-.036-.072-.027-.107.026-.107l.027-.005c.029-.011.028-.045 0-.102a.54.54 0 0 1-.187.134c-.054.017-.098.08-.133.187-.072-.072-.063-.134.027-.187.088-.054.097-.116.026-.188l-.267.268c-.072.07-.143.195-.214.373-.106 0-.125-.071-.053-.213a.817.817 0 0 1-.16.133c-.036.018-.036.062 0 .134-.5.142-.935.16-1.309.053a3.33 3.33 0 0 1-1.042-.507 3.658 3.658 0 0 1-.828-.828 5.359 5.359 0 0 1-.56-.961c-.57-1.283-.926-2.716-1.069-4.3a33.244 33.244 0 0 1-.053-4.995c.068-1.014.155-2.019.26-3.015a.327.327 0 0 1-.143.027l.157-.157.02-.18a.166.166 0 0 1-.07.016c0-.07.017-.124.053-.16.013 0 .022.002.032.004l.01-.09a1.102 1.102 0 0 1-.149.086c0-.07.008-.107.027-.107.018 0 .027-.017.027-.053-.072-.035-.107-.035-.107 0 0 .036-.036.036-.107 0 0 .142.053.24.16.293.107.054.125.117.054.188-.037 0-.054-.054-.054-.16-.071 0-.107.089-.107.266-.071.036-.098.019-.08-.053.018-.071-.01-.107-.08-.107.07.143.098.24.08.294l-.024.08c.104.002.121.073.05.214a.599.599 0 0 0 .065.018.475.475 0 0 0-.064.222c0 .09-.053.17-.16.24a.578.578 0 0 0 0-.347 2.629 2.629 0 0 1-.107-.347.779.779 0 0 1-.16.48c0 .073.017.126.053.161.035.036.054.09.054.16-.107-.07-.16-.044-.16.08 0 .126-.019.24-.054.347l-.001-.001-.006-.021c-.009-.014-.027-.023-.053-.027l-.047-.004c0 .072.009.116.027.134.017.018.026.062.026.133-.036 0-.071-.053-.106-.16-.036.036-.046.08-.027.134a.452.452 0 0 1 .027.133c.106 0 .168-.044.186-.133.018-.089.062-.134.134-.134-.072.143-.098.24-.08.294.017.053-.063.116-.24.187.07.036.106.143.106.32-.071 0-.098.027-.08.08.017.054-.009.08-.08.08-.072 0-.09-.007-.053-.026.035-.018.035-.062 0-.134-.072 0-.099.027-.08.08l.004.036c-.003.03-.031.045-.084.045.035.071.061.089.08.053.017-.035.044-.018.08.054 0 .178-.019.285-.054.32-.071-.035-.098-.062-.08-.08l-.08.08.001-.001.034-.044a.197.197 0 0 0 .016-.16l-.024-.062c-.054-.107-.045-.195.027-.267 0-.071-.01-.08-.027-.027-.018.053-.063.063-.134.027 0-.071.027-.107.08-.107.054 0 .062-.035.027-.107-.072 0-.107.027-.107.08 0 .054-.036.099-.106.134.07 0 .115.045.133.133.018.09.027.187.027.294v.294c0 .09.053.133.16.133-.036.072-.072.107-.107.107-.036 0-.072.019-.107.054.071.142.062.24-.026.294-.09.053-.099.133-.027.24-.072.036-.107.036-.107 0 0-.035-.018-.054-.053-.054v.535c-.072 0-.09-.035-.054-.107.035-.071.018-.107-.053-.107-.072.072-.09.152-.054.24.035.09.035.17 0 .24-.107 0-.133-.026-.08-.08.054-.053.045-.08-.027-.08-.071.036-.089.08-.053.134a.265.265 0 0 1 .053.134c-.071-.071-.098-.062-.08.027.018.088.027.169.027.24a.179.179 0 0 0-.053.133c0 .053-.036.063-.108.027.072.107.062.223-.026.347-.09.125-.116.223-.08.294-.036.072-.053.08-.053.027v-.134c-.072.072-.09.125-.054.16.035.036.054.09.054.16-.072.072-.107.09-.107.054 0-.035-.036-.053-.107-.053.07.071.098.125.08.16l-.08.16c-.036 0-.072-.017-.107-.054-.036.321-.107.66-.214 1.016a8.737 8.737 0 0 1-.305.845.184.184 0 0 0-.015-.044c-.214.072-.25.178-.107.32-.178.393-.347.81-.507 1.256-.16.445-.348.863-.561 1.255l-.107-.107c.035.072.044.116.027.134-.018.018-.045-.009-.08-.08.035.071.017.142-.054.213-.072.071-.107.178-.107.32-.071-.035-.08-.08-.026-.133.053-.053.044-.116-.027-.187a1.339 1.339 0 0 0-.134.48c-.018.179-.116.303-.293.375l.106.107c-.071.07-.125.07-.16 0-.036.07-.036.115 0 .133.035.018.035.08 0 .187-.072-.072-.125-.09-.16-.053-.036.035-.09.017-.16-.053 0-.072.017-.1.053-.08.035.017.053.043.053.08.071 0 .098-.028.08-.08-.018-.054-.009-.1.027-.134-.072 0-.116.017-.133.053-.019.035-.063.071-.134.107 0 .107.018.16.054.16 0 .105-.053.193-.157.264.004-.036.01-.065.023-.077a.112.112 0 0 0 .027-.08c-.072-.036-.143-.125-.214-.267-.036.107-.019.168.054.187.07.018.107.062.107.133-.072 0-.126.018-.161.054-.036.035-.036.07 0 .107.035-.072.062-.08.08-.027a.116.116 0 0 0 .015.03c-.044.053-.04.104.012.157-.036.07-.063.08-.08.027-.018-.054-.046-.08-.08-.08l-.107.213a.623.623 0 0 0-.08-.133l-.021-.027a.917.917 0 0 1-.06-.107c-.071.107-.071.178 0 .214.072.035.072.106 0 .213l-.05.049a.597.597 0 0 1-.11.085c-.036.017-.036.08 0 .187-.036 0-.053-.072-.053-.214-.072 0-.098.054-.08.16.017.107-.027.142-.134.107 0-.072.018-.098.053-.08.035.018.054.008.054-.027-.036-.035-.054-.071-.054-.106-.142.213-.267.355-.373.427-.072 0-.08-.018-.027-.053.054-.036.044-.09-.027-.16-.035 0-.053.07-.053.213-.072 0-.107-.018-.107-.053 0-.036-.018-.054-.054-.054.036.178-.053.222-.266.134-.214-.09-.32-.08-.32.026-.535-.178-.962-.463-1.283-.854a4.75 4.75 0 0 1-.774-1.39 11.911 11.911 0 0 1-.482-1.708c-.124-.606-.24-1.21-.346-1.817a24.75 24.75 0 0 1-.268-3.499c0-1.085.027-2.163.08-3.231.054-1.069.125-2.137.214-3.205.085-1.02.145-2.106.182-3.256-.036-.142-.877.543-1.143 1.093a4.409 4.409 0 0 1-.988 1.362c-.143.392-.294.801-.454 1.228a4.25 4.25 0 0 1-.615 1.122 61.482 61.482 0 0 0-1.015 2.244c-.32.747-.712 1.46-1.175 2.136.035.036.054.125.054.267a3.38 3.38 0 0 0-.508 1.015 7.83 7.83 0 0 1-.454 1.122c-.214.25-.454.366-.721.347a1.468 1.468 0 0 1-.748-.267 3.99 3.99 0 0 1-.667-.588 3.87 3.87 0 0 1-.482-.614c0-.035.037-.089.107-.16a2.589 2.589 0 0 1-.267-.694c-.071.035-.088.071-.053.106.036.036.053.072.053.107-.071-.035-.106-.089-.106-.16 0-.071.009-.142.026-.214a.424.424 0 0 0 0-.214c-.017-.07-.08-.106-.187-.106v-.267c.072-.035.09-.009.054.08-.035.089-.018.116.053.08a33.453 33.453 0 0 1 .142-6.651c-.022.004-.043.009-.072.01.04.039.034.068.016.096l-.039.058c-.03.052-.044.137-.104.207-.061.071-.058.155-.089.157 0 .021-.016.034-.04.043l-.018.05c.027.033.04.075.02.137a.319.319 0 0 1-.135.184c.098.097.094.199-.012.305a.882.882 0 0 1-.145.121l-.127.34a.42.42 0 0 1-.064.168c-.054.141-.109.28-.162.414-.001.032-.003.062-.002.097-.023.02-.042.044-.064.065-.13.317-.255.602-.37.834 0 .028-.002.055 0 .086-.016 0-.027-.003-.04-.004.012-.022.016-.03-.002 0l-.032.063.007-.015.025-.043-.007.053-.011.055a9.847 9.847 0 0 0-.104.36c-.065-.031-.074-.056-.027-.075.046-.02.053-.045.02-.077a.658.658 0 0 0-.17.464c-.063.037-.102.048-.118.031-.017-.016-.04.01-.068.08.002.033.018.05.05.048.03-.002.046-.019.045-.053.03-.001.025.033-.02.103-.045.07-.082.139-.11.208.003.068.035.1.098.097.063-.003.064.031.004.102-.032 0-.047-.015-.049-.05-.001-.033-.034-.048-.096-.046.002.068-.384.496-.503.654-.12.157-.147.286-.08.385.064.03.065.047.002.05-.063.003-.078.038-.044.104a.16.16 0 0 1-.1-.148c-.002-.068-.036-.1-.098-.097-.03.069-.02.102.027.1.048-.002.072.014.073.047a1.382 1.382 0 0 1-.266.47.656.656 0 0 0-.171.464c-.064.003-.088-.004-.072-.022.015-.017-.009-.025-.072-.022.003.068.035.1.099.097-.03.036-1.19.742-1.203.794-.181.227-.477.198-.84.165-.363-.032-.98.147-1.37-.073-.194.038-.378-.136-.518-.287-.388-.34-.759-.706-.917-1.33a9.598 9.598 0 0 1-.29-1.73h-.001l.073.255c.044.17.079.34.105.51l.034.256c.034.34.158.662.37.964 0-.377-.088-.784-.265-1.22a3.23 3.23 0 0 1-.211-1.446c-.071-.037-.098-.028-.08.028l.006.029c0 .03-.028.03-.084 0a.549.549 0 0 0-.053-.227c-.036-.075-.019-.15.053-.227.175.076.254-.047.237-.369a4.622 4.622 0 0 0-.08-.709l-.044.084a.379.379 0 0 0-.034.228c.017.095.026.218.026.369-.07-.075-.097-.094-.079-.057.017.038-.01.057-.08.057 0-.77.032-1.44.093-2.017-.044.054-.142.285-.358.9-.039.111-.743 1.811-.825 1.928-.079.11-.165.204-.24.282-.07.052-.147.205-.216.335-.07.136-.136.277-.202.418-.041.071-.042.132-.138.252-.073.075-.133.119-.198.167-.127.092-.254.173-.38.253-.12.072-.216.159-.322.265l-.157.165c-.053.05-.11.124-.216.175-.218.08-.35.037-.488.068a.863.863 0 0 0-.193.05c-.023.006-.07-.006-.123-.024.002-.001-.192-.048-.343-.098a4.183 4.183 0 0 1-.251-.028l-.137-.018a.254.254 0 0 1-.065-.048c-.088-.048-.169-.127-.252-.182-.062-.083.07.033.078.01a6.54 6.54 0 0 0-.134-.135.352.352 0 0 1-.178.002 3.354 3.354 0 0 1-.283-.198c.08.044-.004-.027-.004-.038-.029.007-.085-.032-.207-.083a.439.439 0 0 1-.103-.124c-.028-.073-.27-.086-.3-.212l-.008-.022c-.045-.059-.091-.094-.172-.267l.018-.018c-.071-.161-.104-.15-.17-.365-.111-.37-.213-.754-.274-1.043l.02-.016c-.086-.148-.128-.53-.184-.745a8.293 8.293 0 0 1 .017-1.325 4.656 4.656 0 0 1 .2-1.912l-.002.12c.012-.124.042-.068.072-.183-.068.12.019-.17.03-.257.13-.272.385-.631.485-.876l-.089.003c.04-.13.108-.258.165-.386.047-.117.112-.3.177-.446.023-.032.065-.079.1-.171.038-.184.077-.27.17-.521.045-.086.092-.205.178-.313l.224-.264c.196-.3.412-.59.632-.881l.332-.44c.104-.146.23-.301.377-.433l.175-.012c.077-.073.165-.137.25-.195l.243-.181c.1-.075.187-.076.253-.093l.202-.031c.127-.02.241-.047.337-.096.048-.024.08-.054.163-.1.066-.035.124-.06.183-.086l.327-.132-.04.066c.182-.048.404-.143.349-.163.184-.04.45-.148.578-.132.193-.03.23-.068.398-.093.368 0 .52.012.817.06-.02.008-.011.024.063.04.142.008.498.162.379.06.133.059.414.24.635.502-.017-.062-.022-.117-.004-.156.07-.15.141-.321.212-.51.034 0 .053.037.053.113a.87.87 0 0 0 .158-.51.2.2 0 0 0-.053.141c0 .057-.035.123-.105.199 0-.303.087-.605.264-.908.176-.303.298-.498.604-.857.176-.188.114-.446.362-.465.246-.019.943-.19 1.015.074.14 0 .246.028.317.085.07.057.158.085.264.085.176.227.317.539.422.936.106.397-.06.814-.043 1.248.018.435-.009.851-.079 1.248s-.194.729-.37.993c0 .416-.088.757-.264 1.021a1.912 1.912 0 0 0-.31.812v-.003l.007-.02c.01-.035.015-.046-.002.016l-.012.046c-.089.322.078.69.043 1.106-.07.038-.105-.018-.105-.17a.352.352 0 0 0-.08.142c-.018.056-.026.028-.026-.085-.071.076-.08.141-.027.198.053.057.044.123-.026.199a.182.182 0 0 0 .106-.17c0-.076.034-.094.105-.057 0 .076-.018.133-.052.17-.036.038-.053.114-.053.227-.071-.075-.106-.075-.106 0 0 .076-.12.151-.154.227 0 .076.017.085.053.028l.02-.026c.029-.024.057-.006.086.055a.372.372 0 0 0-.159.198c-.235.568-.372.919-.438 2.107-.036 0-.172.433-.172.621.07 0 .106-.018.106-.056 0-.037.017-.076.052-.114.07.114.097.275.08.482-.018.209-.154 1.213-.083 1.402-.071 0-.097-.028-.08-.085.018-.057-.042-.757-.112-.757.07.303.148 1.239.166 1.466.017.227.043.492.079.794-.071.152-.141.19-.211.114 0 .076.026.113.078.113.054 0 .08-.037.08-.113.07.113.061.161-.026.141-.089-.018-.115.048-.08.2 0 .075.009.075.026 0 .014-.062.047-.071.095-.034.033.447.235.65.355.621.214-.05.51-.384.604-.511.268-.364.787-1.218.938-1.445.151-.227.665-1.29 1.028-2.036s.852-2.262.943-2.424c.09-.162 1.516-3.27 1.728-4.405.177-.952 1.672-4.658 2.152-5.837.15-.434.316-.89.507-1.397a212.42 212.42 0 0 1 2.244-5.689c.05-.128.631-.364.828-.56.195-.196.489-.33.88-.401.179 0 .366.009.562.026.195.019.364.063.507.134.035.179.089.33.16.454.071.125.142.276.214.454.09.143-.4.633-.56 1.042-.161.41-.24.828-.24 1.255a56.49 56.49 0 0 1-.615 2.244c-.232.783-.437 1.549-.615 2.296-.392 1.318-.46 1.864-.78 3.307a48.957 48.957 0 0 1-1.068 4.032c.035 0 .053-.035.053-.107.107.037.124.072.053.107a.347.347 0 0 0-.16.16c.035.073.054.073.054 0 0-.07.035-.088.106-.053a.53.53 0 0 0-.133.32c-.019.143-.063.214-.134.214 0 .072.018.116.054.134.035.018.035.062 0 .134-.036.071-.045.062-.027-.027s.009-.134-.027-.134a.836.836 0 0 1-.214.32c.036.037.071.046.108.027.035-.017.053.01.053.08.035-.035.053-.07.053-.106.071.036.062.08-.026.133-.09.054-.08.117.026.187-.036.072-.062.072-.08 0-.018-.07-.063-.088-.134-.053.143.214.16.41.054.588-.072 0-.09-.018-.054-.054.036-.035.054-.089.054-.16-.072.071-.134.16-.187.267-.053.107-.045.196.027.267.07-.035.08-.08.026-.133l-.024-.031c-.023-.04-.006-.074.051-.103.071.107.071.205 0 .294-.072.089-.09.169-.053.24-.107-.071-.152-.071-.134 0 .018.072-.026.125-.133.16.07.036.097.08.08.134-.018.053-.063.063-.134.026.035.107.08.143.134.107.053-.035.08-.017.08.054-.036.107-.107.107-.214 0 .071.178.08.347.027.507-.053.16-.098.33-.133.508-.036-.035-.054-.107-.054-.214a.363.363 0 0 0-.08.187c-.018.09-.062.08-.134-.027v.321c0 .072-.035.16-.107.267h.16a.226.226 0 0 0 0 .213c-.07-.034-.098-.026-.08.027.018.054.01.116-.026.187.07-.035.107-.08.107-.133 0-.054.035-.062.107-.027-.072.179-.16.25-.268.214 0 .072.018.098.054.08.035-.018.07.01.107.08.035-.035.053-.07.053-.107 0-.035.018-.07.054-.107v.24c0 .09-.019.223-.054.401-.072 0-.142.036-.214.107-.035.072-.035.107 0 .107.036 0 .054.036.054.107-.072.071-.107.018-.107-.16s.053-.249.16-.214a1.352 1.352 0 0 0-.186-.16.77.77 0 0 1-.187-.214c.016-.034.033-.055.05-.065a.286.286 0 0 1-.05-.042.575.575 0 0 0 0 .347.547.547 0 0 1-.054.401c.071 0 .107-.018.107-.053 0-.036.017-.072.053-.107.071.213.142.392.214.534 0 .036-.018.053-.054.053-.024 0-.03.019-.021.053a.39.39 0 0 1-.032-.133c0-.053-.036-.115-.107-.187-.071.036-.071.072 0 .107.071.036.089.072.054.107-.107 0-.16-.035-.16-.107-.072.036-.072.072 0 .107.07.036.088.09.053.16l.07.03a.447.447 0 0 0 .143.023c0 .107.018.18.054.214.035.036.053.09.053.16.392-.605.757-1.219 1.095-1.842.338-.623.668-1.256.989-1.897.07-.07.168-.16.293-.267.125-.107.152-.249.08-.427.107.072.205.018.294-.16s.151-.32.187-.428c.25-.035.392-.15.428-.347.035-.195.16-.329.374-.4a2.89 2.89 0 0 1 .854-1.042c.356-.267.73-.543 1.122-.828.068-.057.916.053 1.362.053.445 0 .775.143.988.428.356.57.561 1.166.615 1.789a9.727 9.727 0 0 1-.027 1.897c-.072.64-.16 1.273-.267 1.896-.107.623-.16 1.22-.16 1.79h-.107c.035.035.053.08.053.133 0 .053.018.116.054.187-.072-.071-.08-.009-.027.187.054.196.008.33-.134.4 0 .036.036.045.107.027.07-.018.07-.008 0 .027 0 .107-.009.133-.026.08-.019-.054-.045-.08-.08-.08 0 .107-.02.16-.054.16.035.072.107.09.214.053-.107.179-.107.321 0 .428-.048.048-.08.055-.096.023l-.008-.028.033.383c.03.436.04.885.032 1.346l-.015.466c-.036.783-.018 1.585.054 2.403-.072 0-.107-.034-.107-.106a.338.338 0 0 0 .027.293c.053.09.08.206.08.348-.036-.036-.045-.08-.027-.134.017-.053-.01-.062-.08-.027 0 .143.027.26.08.348.054.089.044.187-.027.293.107-.035.125 0 .054.107-.072.107-.072.179 0 .214 0 .072-.019.125-.054.16-.036.036-.053.09-.053.16.107 0 .178.019.213.054-.178.178-.213.392-.106.64.106.25.07.482-.107.695-.036 0-.054-.035-.054-.107-.036.036-.053.063-.053.08 0 .019-.018.045-.054.08.071.072.116.08.134.027.017-.053.062-.08.134-.08a.513.513 0 0 1-.16.374c.035 0 .053.036.053.107.07-.142.107-.16.107-.054a.36.36 0 0 0 .106.268c0 .071-.027.089-.08.053-.053-.035-.08-.071-.08-.107-.071.072-.08.134-.026.187.053.054.08.116.08.187-.107-.107-.134-.098-.08.027.053.124.026.169-.08.133-.037.071-.027.107.026.107.054 0 .062.035.027.107a.38.38 0 0 0 .107-.012v.199c0 .125.034.258.106.4.071-.071.089-.16.054-.266.142.248.142.444 0 .587.035.071.08.053.133-.053.054-.107.08-.09.08.053.036-.036.054-.072.054-.106 0-.037.017-.072.053-.107.071.035.098.088.08.16-.018.071.009.106.08.106a11.07 11.07 0 0 0 1.683-3.178c.41-1.192.881-2.323 1.416-3.392.07-.355.195-.712.374-1.068.178-.356.355-.695.534-1.015-.072-.178-.054-.294.053-.347.107-.054.142-.169.107-.347.071-.035.107-.045.107-.027s.018.027.053.027c.071-.499.222-.935.455-1.309.23-.374.382-.792.454-1.255l.106.106c0-.07.044-.187.134-.347.088-.16.115-.275.08-.347 0-.035.008-.044.027-.027.017.019.026.045.026.08.071-.177.169-.347.294-.507a.812.812 0 0 0 .187-.507c.498-.89 1.261-3.735 1.66-4.66.43-.997.891-2.657 1.228-3.912.575-2.593 1.1-4.679 1.948-7.25 0-.07.309-1.008.255-1.008-.053 0-.062-.035-.027-.107.356-.783.65-1.602.881-2.457.232-.855.905-2.108 1.203-2.19Zm12.138 18.617c-.25-.042-.64-.065-.932.016-.047-.02-.178.036-.152.003-.142.069-.43.337-.634.637l.007-.011.002-.005-.125.139a5.66 5.66 0 0 1-.128.14l-.142.137c-.094.077-.138.104-.197.162-.055.052-.11.112-.167.177-.002.005-.007.018-.009.008-.11.092-.105.197-.197.232-.045.07-.007.066.019.022-.235.344-.433.737-.65 1.136-.055.1-.108.2-.177.306-.023.03-.032.05-.078.097-.022.023-.034.033-.05.052-.03.032-.058.073-.086.113a4.977 4.977 0 0 0-.309.56c-.314.551-.109-.011-.288.46-.029.032.008.037-.007.038-.073.187-.201.249-.237.388.059-.032-.025.095-.008.11-.207.322-.153.356-.236.653l-.01-.028c-.072.345-.195.737-.163 1.032-.014.125-.015.212-.018.362a1.896 1.896 0 0 1-.085.413c-.075.25-.166.48-.243.706a2.94 2.94 0 0 0-.164.656.979.979 0 0 0 .012.291l.066.369c.04.24.076.475.157.613.042.068.073.09.12.101a.316.316 0 0 0 .086.006.232.232 0 0 0 .077-.03c.149-.084.336-.257.505-.415l.516-.501c.337-.331.575-.679.89-1.006.31-.327.522-.72.827-1.136.146-.206.357-.399.477-.545.134-.167.249-.356.35-.56.103-.202.192-.416.28-.639.09-.213.212-.522.327-.697.262-.358.277-.397.482-.85-.002.022-.014.052.008.025-.026-.04.151-.317.135-.377l.124-.257.207-.45.376-.843.155-.773a.243.243 0 0 1 .03-.152l.019-.093c.02-.051.041-.098.061-.146-.228-.297-.523-.542-.835-.637Zm19.316 7.582a.335.335 0 0 0-.08.133c-.053-.053-.08-.062-.08-.027.071.072.08.16.027.267a.714.714 0 0 0-.08.32c.035.073.061.081.08.028.018-.054.044-.045.08.027-.072 0-.107.053-.107.16 0 .106.035.16.107.16-.072-.071-.08-.151-.027-.24.054-.089.116-.116.188-.08-.036-.072-.036-.098 0-.08.035.018.053-.01.053-.08a.61.61 0 0 0-.027-.188c-.018-.053-.01-.097.027-.134 0 .073.053.107.16.107v-.267c-.072 0-.107-.008-.107-.026s-.018-.027-.053-.027c-.072.036-.107.08-.107.134 0 .053-.018.08-.054.08a.118.118 0 0 0-.018-.056l.018.002Zm.642-1.015c.07.071.08.125.026.16-.053.036-.098.036-.133 0a.93.93 0 0 1 .107.133c.034.054.017.099-.054.134 0-.035-.036-.08-.107-.134-.072-.053-.072-.044 0 .027 0 .036.009.054.027.054.017 0 .008.036-.027.107-.035 0-.053-.01-.053-.027l-.006-.015c-.008-.008-.024-.012-.048-.012 0 .072.018.107.054.107.035 0 .053.036.053.107-.072 0-.125.045-.16.134a.281.281 0 0 0 0 .24c.07-.142.142-.25.214-.32a.43.43 0 0 1 .071-.062c-.047-.016-.071-.065-.071-.152.07.035.107.026.107-.027 0-.054.034-.062.107-.027-.073-.107-.073-.187 0-.24l.026-.028c.03-.047-.015-.1-.133-.16Zm-65.897-11.12c-.223-.03-.57-.038-.823.05-.043-.017-.155.041-.135.008-.12.071-.36.336-.52.629l.003-.008c-.067.082-.13.174-.203.266l-.118.136c-.078.076-.116.103-.165.16-.045.052-.09.11-.137.175 0 .005-.004.018-.006.008-.093.09-.081.19-.161.227-.036.07-.002.063.018.02l-.001.001-.133.26c-.087.177-.167.364-.248.554l-.123.289c-.043.097-.084.192-.14.296-.017.03-.024.05-.062.095-.018.022-.028.032-.04.05a1.145 1.145 0 0 0-.07.112c-.09.163-.166.355-.24.544-.244.534-.097-.007-.227.446-.023.031.01.035-.003.036-.054.18-.164.244-.186.378.05-.033-.017.09-.001.105-.163.313-.215.347-.27.632l-.011-.025-.023.167c-.035.228-.076.466-.071.67l.013.148c-.006.119-.01.43-.004.572 0 .15-.025.274-.05.395-.051.24-.118.462-.172.68-.055.217-.101.431-.106.629-.002.1.006.191.028.276l.08.347c.05.227.21.726.29.854.042.063.07.083.112.092a.24.24 0 0 0 .077.002.181.181 0 0 0 .066-.03c.127-.086.282-.257.422-.413l.425-.495c.278-.327.692-1.176.95-1.499.255-.321.304-.702.548-1.108.117-.2.292-.392.39-.535.108-.163.084-.348.162-.544.078-.196.144-.403.208-.617.067-.206.156-.504.247-.675.21-.35.22-.387.375-.824 0 .021-.01.05.008.023-.025-.037.115-.306.097-.363l.094-.249c.052-.145.474-.75.526-.895a.338.338 0 0 1 .066-.127c-.09-.062-.187-.127-.217-.174a2.475 2.475 0 0 1-.205-.337c-.008-.056-.087-.205-.088-.277.016-.054.04-.416.09-.43.004 0-.016-.203-.012-.204-.232-.335-.007-.401-.335-.494Zm72.628-3.66.126.007a.867.867 0 0 1 .446.187s.025.074-.01.088c.078.05.152.107.217.168-.095.037-.184.034-.156.06.003.01.012.015.02.023.04.04.07.088.107.13.008-.009.014-.02.022-.023.005.019.009.042.013.066.28.35.468.77.56 1.285.01.053.009.095.014.143.02.091.033.191.026.3-.01.168-.058.334-.072.468-.034.161-.065.034-.141.252-.04.11-.081.23-.125.363-.2.597-.586.982-1.178 1.177-.02.006-.037.008-.057.014-.027.021-.066.004-.095.024a1.422 1.422 0 0 1-.321.046.973.973 0 0 1-.262-.04.321.321 0 0 1-.115-.017c-.175-.05-.327-.173-.475-.283-.145-.105-.319-.26-.381-.469a2.524 2.524 0 0 1-.104-1.177c.008-.161.03-.362-.018-.404.047-.119.078-.266.125-.454-.015-.012.038.035.07-.046 0-.067.004-.136.01-.205l.022-.007c-.03-.106.136-.327.144-.437l.031.033c.065-.188.245-.395.303-.548.007.065.077-.046.137-.112 0 0 .077.053.144-.037-.019.035.037-.053.15-.104l-.042-.03c.162-.065.166-.102.341-.188.032-.059-.017-.125.101-.182.04.013.047.043.174.003.005-.019-.044-.018-.083-.019.127-.039.288-.069.458-.048Zm26.344 2.959-.017.004c-.143.01-.278.012-.301.012-.066 0-.129-.047-.203-.133a.27.27 0 0 1-.079-.064l-.47-.52c-.185-.219-.204-.472-.235-.707-.02-.24-.01-.477.026-.707.003-.147.019-.334-.043-.377.051-.11.073-.253.14-.44-.017-.015.043.04.08-.03l.005-.186.024-.004c-.037-.101.125-.293.121-.406l.039.036c.05-.18.491-.554.478-.517.093-.08.143-.016.155-.007.129-.013.123-.104.25-.08l-.02-.057c.178.05.203.017.389.087.061-.035.063-.096.16-.098.02.031-.003.066.12.082.013-.018-.027-.038-.057-.06.242.037.54.134.733.304-.13-.045.012.077-.021.097l-.125-.017c.009.048-.039.066-.06.091.026.016.048.034.073.051.005-.005.016-.006.048.006.02.046.062.067.107.104h-.004c.048.04.092.083.135.126.008-.01.014-.02.02-.024a.225.225 0 0 1 .009.05c.123.132.218.278.264.435.119.402.18.625.142.908.004.216-.126.501-.151.703-.029-.026-.02.014-.01.024-.054.131-.098.077-.2.31-.272.617-.42.643-.778.704-.217.037-.103.09-.427.248a.887.887 0 0 1-.25.05c-.01.005-.02.003-.03.002v-.001l-.01.002h.01l-.01.004-.01-.003-.017-.002Z" fill="#2B3834" fill-rule="evenodd"/></svg>