<svg width="160" height="56" xmlns="http://www.w3.org/2000/svg"><path d="M79.957 38.288c-.04.408-.04.825 0 1.252.04.427.061.804.061 1.13a3.21 3.21 0 0 1-.183-1.13v-1.252ZM9.684.224c.345-.264.803-.295 1.373-.092.367.327.62.784.763 1.374.142.59.132 1.11-.03 1.557.08.407.07.763-.03 1.068-.103.305.096.515.03.946a38.248 38.248 0 0 1-1.007 3.724 66.038 66.038 0 0 0-1.069 3.602 1.145 1.145 0 0 0-.336.763c-.02.306-.09.601-.213.885 0 .042.01.042.03 0 .02-.04.05-.04.092 0a19.442 19.442 0 0 0-1.069 4.06 35.004 35.004 0 0 1-.885 4.12c-.082 1.019-.244 1.914-.488 2.687.081.449 0 .794-.244 1.038-.041.082-.03.133.03.153.061.02.07.071.03.152-.162.204-.223.469-.182.794.04.326.04.59 0 .794.08-.163.162-.367.244-.61.081-.245.162-.408.244-.49 0-.08-.01-.122-.03-.122-.021 0-.031-.04-.031-.122.081-.04.183-.162.305-.366.122-.203.163-.406.122-.61.081.082.132.06.153-.061.02-.123.05-.224.091-.306-.04 0-.06.021-.06.062 0 .04-.042.04-.123 0 .285-.163.387-.387.306-.672.08.082.122.091.122.03v-.274c.04.04.06.081.06.122 0 .04.02.082.062.122 0-.203.06-.306.183-.306.081-.162.081-.294 0-.396-.082-.102-.04-.193.122-.275-.04.082-.051.133-.03.153.02.02.03.071.03.152.081-.08.101-.172.061-.275-.041-.1.02-.152.183-.152a.377.377 0 0 1-.091-.183c-.022-.081.01-.081.091 0-.04-.285.02-.508.183-.672.162-.162.264-.386.306-.671.04 0 .06.04.06.122a.95.95 0 0 0 .184-.244c-.163.082-.183 0-.061-.244.122-.245.264-.367.427-.367-.04-.081-.061-.223-.061-.427.244-.203.458-.529.641-.977.183-.447.376-.855.58-1.22.081.04.132.02.152-.062.02-.081.071-.101.153-.061.081-.203.153-.417.214-.641a.929.929 0 0 1 .336-.519c.04 0 .06.061.06.183.082 0 .123-.04.123-.122v-.183c-.041 0-.061.01-.061.03 0 .021-.041.03-.122.03a2.07 2.07 0 0 1 .519-.976c.264-.284.477-.589.64-.916-.082-.08-.082-.121 0-.121s.082-.04 0-.123a.398.398 0 0 0 .184-.183.396.396 0 0 1 .183-.183c0-.04-.01-.05-.03-.03-.022.02-.031.01-.031-.03a1.31 1.31 0 0 1 .336-.337c.142-.1.213-.253.213-.458-.082.041-.122.102-.122.183 0 .082-.04.123-.122.123.488-.733.966-1.475 1.435-2.228A8.779 8.779 0 0 1 16.49 9.96c-.04.041-.06.082-.06.122.08 0 .122-.04.122-.122v-.244c.122 0 .183-.08.183-.244.203-.162.447-.366.732-.61.285-.245.529-.509.733-.794.203-.162.467-.264.794-.305.325-.04.589-.062.793-.062.081.123.142.164.183.123.04-.04.143-.02.306.06 0 .042-.01.062-.03.062-.022 0-.032.02-.032.06.122-.04.204.022.244.184.082-.04.123-.081.123-.122 0-.04.04-.04.122 0-.041.082-.03.122.03.122.061 0 .071.04.03.122.082-.081.143-.061.184.061.04 0 .05-.04.03-.122-.02-.081.01-.101.092-.061 0 .122.05.265.153.427.1.163.213.245.335.245-.04.081-.122.081-.244 0-.04.04-.061.081-.061.121 0 .042-.04.083-.122.123.081.082.122.071.122-.03 0-.102.04-.133.122-.093 0 .245.102.306.306.184-.083.082-.103.204-.061.366.04 0 .065-.008.075-.023a.644.644 0 0 0-.014.145.147.147 0 0 1-.074.018c.023.026.008.08-.049.165.123-.08.184 0 .184.244 0 .159.047.28.133.37-.005 0-.006-.003-.011-.003 0 .082.03.132.091.152.061.021.05.072-.03.153 0 .082.04.112.122.092.08-.02.1.01.06.091.04 0 .062-.04.062-.122.122.122.112.255-.03.397-.144.143-.174.295-.092.457.08-.04.1-.07.06-.09-.04-.021-.06-.051-.06-.092.122-.04.183.02.183.182-.122 0-.204.072-.244.214-.041.143-.021.255.06.336l.062-.061c.08.326.06.692-.061 1.099-.122.407-.122.732 0 .977l-.183.183c-.082.448-.133.763-.153.946-.02.183-.03.479-.03.885-.083.082-.123.235-.123.458 0 .224-.02.48-.06.763-.083-.04-.113-.02-.092.061.02.082-.01.082-.092 0 .081.082.101.194.061.336a1.43 1.43 0 0 1-.183.397c.04.04.061.071.061.091 0 .021.02.052.061.092-.082.082-.102.224-.061.428.04.204-.02.345-.183.427.04.04.061.071.061.091 0 .021.02.051.061.092a373.311 373.311 0 0 1-.397 3.418c-.143 1.181-.285 2.33-.427 3.45a66.68 66.68 0 0 0-.336 3.235c-.08 1.007-.1 1.907-.063 2.703.027-.042.064-.095.125-.17.162-.202.264-.304.305-.304.08-.163.1-.285.06-.367-.04-.08.02-.142.184-.183 0-.081.04-.183.122-.305a.307.307 0 0 0 0-.367c.08-.04.111-.03.091.031-.02.061.01.092.092.092.081-.081.101-.143.06-.184-.04-.04-.04-.1 0-.183.082.041.133.021.154-.06.02-.082.01-.123-.03-.123 0-.08.04-.08.121 0 .081-.04.081-.07 0-.091-.082-.02-.102-.05-.06-.092.08-.04.121-.04.121 0 0 .041.02.041.061 0-.082-.081-.082-.142 0-.183.082-.04.102-.122.061-.244.082.082.153.02.214-.183.06-.204.092-.367.092-.489h.122c0-.08.01-.142.03-.183a.42.42 0 0 0 .03-.183c.082.122.132.133.154.03a.423.423 0 0 0-.031-.274c.04.04.08.06.122.06.04 0 .02-.04-.061-.122.122 0 .183-.141.183-.427h.122c-.041-.08-.02-.142.061-.183.081-.04.081-.101 0-.183.162-.081.295-.244.397-.488.101-.245.193-.468.275-.672v.061c.08 0 .122-.101.122-.305l.061.06c0-.161.06-.324.183-.488a.89.89 0 0 0 .183-.549v.184c.068 0 .108-.07.12-.212l.002-.094c.081-.04.184-.132.305-.275.123-.142.163-.314.123-.518.08.081.142.071.183-.031a.765.765 0 0 0 .06-.275h.123v-.183c.325-.162.488-.406.488-.733.04-.08.092-.122.153-.122.06 0 .07-.06.03-.183.082 0 .143-.06.183-.183l.123-.366c.08-.04.122-.05.122-.03 0 .02.04.01.122-.031-.082-.081-.052-.142.091-.183.143-.04.193-.163.153-.367.081.082.122.102.122.062 0-.04.02-.082.061-.123v-.183c.081 0 .112-.03.092-.091-.021-.061.01-.051.091.03v-.305c.122.082.184.051.184-.092 0-.142.04-.172.121-.091 0-.163.051-.275.153-.336.101-.061.153-.173.153-.336.08.041.112.052.091.03-.02-.02.01-.03.092-.03v-.305c.081-.04.122 0 .122.122.04 0 .05-.03.03-.092-.02-.06-.01-.091.031-.091.04 0 .061.041.061.122.081-.162.122-.285.122-.366.204-.162.407-.367.61-.61l.611-.734c.284-.08.447-.223.489-.427.325-.203.722-.336 1.19-.396.467-.062.864-.031 1.19.091.04 0 .061.082.061.244.04-.04.071-.06.092-.06.02 0 .05-.02.092-.062.04 0 .06.03.06.092 0 .06.04.071.123.03-.041.326.1.61.427.855 0 .204.03.346.092.427.06.082.03.204-.092.367.04.082.081.082.122 0 .04-.081.101-.081.183 0-.122.082-.143.163-.06.244.072.073.076.163.018.27.019-.017.052-.026.103-.026-.04.082-.04.122 0 .122s.02.041-.06.122c.08.041.131.133.152.275.02.143-.01.235-.092.275a24.583 24.583 0 0 1 .244 3.418c.123-.08.163-.04.123.122a.511.511 0 0 0 .06.428c-.04 0-.06-.01-.06-.031l-.007-.017c-.01-.009-.028-.013-.054-.013-.082.122-.103.183-.062.183.04 0 .062.04.062.122-.082.04-.122.04-.122 0s-.021-.061-.061-.061c0 .041.06.122.183.244-.082.082-.092.174-.031.275.061.102.07.193.03.274-.081-.04-.121-.122-.121-.244-.041 0-.061.03-.061.092l-.004.04c-.008.034-.028.051-.057.051.04.082.07.113.091.092.02-.02.07-.01.153.03a.486.486 0 0 0-.031.306c.02.122-.03.183-.152.183 0 .041.009.061.03.061.02 0 .03.04.03.122.081 0 .102-.04.061-.122-.04-.081-.02-.101.062-.061 0 .204.01.417.03.641.02.224-.051.397-.213.519.04.04.07.082.091.122.02.041.05.082.092.122 0 .041-.01.041-.031 0-.02-.04-.051-.02-.091.06.04.083.07.103.091.062.02-.04.05-.061.092-.061-.082.204-.103.448-.061.733l-.183-.367h.121c-.081-.08-.112-.142-.09-.183.02-.04-.011-.08-.092-.122v.305c.04.082.08.153.122.214.04.06.08.132.122.213-.163.123-.205.286-.122.489-.041 0-.061-.04-.061-.122l-.001.006v.177c.065-.032.091-.026.078.02l-.016.041c-.041.082-.021.122.06.122a.38.38 0 0 0-.121.275c0 .102-.061.173-.184.214.082 0 .123.051.123.152l.004.055c.013.065.052.098.118.098-.041.04-.103.06-.184.06.081.042.112.092.092.153l-.006.044c.003.043.036.08.098.11a4.173 4.173 0 0 1-.245.426c.04.083.082.083.123 0l.024-.038c.032-.04.065-.026.098.038-.122.123-.144.204-.061.245.08-.04.131-.081.152-.122.02-.04.07-.062.153-.062-.041.042-.061.082-.061.123 0 .04.02.06.06.06-.203.083-.326.184-.365.306.08.04.1.071.06.091-.04.021-.04.072 0 .153h-.183c.04.082.051.174.031.275a.286.286 0 0 0 .092.274c.051.018.083.022.102.017-.005.024-.004.054-.01.075a.655.655 0 0 0-.031.214l.183-.366a2.107 2.107 0 0 0-.062.518c0 .183-.04.357-.121.52.121.04.162.162.121.365a.825.825 0 0 0 .062.55c-.042.082-.092.113-.153.092-.061-.02-.091.03-.091.152l.244-.122c.04.082.02.122-.062.122 0 .082.031.122.092.122s.092-.04.092-.122c.04.042.06.082.06.122 0 .02.011.028.03.03-.02.009-.038.017-.06.032-.06.04-.071.02-.03-.062-.082.082-.092.163-.03.245.06.081.03.163-.092.244-.041 0-.064-.01-.069-.03.004.01.002.02.007.03.04.082.082.143.123.183.08 0 .091-.03.03-.092-.06-.06-.03-.07.092-.03.03.122.03.274.015.44.109.078.168.154.168.231-.04 0-.061-.009-.061-.03 0-.02-.021-.03-.061-.03.04.04.061.121.061.243.081-.04.111-.1.091-.183-.02-.08.01-.1.092-.06a.615.615 0 0 0-.122.335c0 .102-.021.214-.061.336 0 .04.01.06.03.06.02 0 .031.042.031.123.04 0 .06-.04.06-.122 0 .448.102.916.306 1.404-.082 0-.112-.03-.091-.092.02-.06-.01-.111-.092-.152-.04.204-.01.315.092.336.1.02.152.132.152.335.081-.08.122-.142.122-.183.04 0 .051.041.031.122-.021.082-.072.122-.153.122.163.082.244.153.244.214s.062.153.183.275c.04-.04.082-.05.123-.03.04.02.04-.01 0-.092l.008.019.034.073c.059.111.127.172.204.183l.059-.001c.122-.02.223.03.305.153l.173-.061c.057-.052.118-.128.182-.226.114-.178.172.022.267-.188.032-.289.06-.686.074-1.013.003-.064.104-.127.15-.095.187.131.267.492.267.796 0 .38.236.056.091.644-.074.3-.141.705-.141.705s-1.012 2.622-1.745 2.806c-.082-.04-.194-.03-.336.03-.143.061-.275.113-.397.152-.04-.04-.06-.1-.06-.182-.083.081-.144.112-.184.091-.04-.02-.102.01-.183.091a.988.988 0 0 0-.244-.182c-.082-.04-.143 0-.183.122-.042 0-.062-.081-.062-.245-.081 0-.121.041-.121.123-.123-.203-.255-.346-.397-.428a.718.718 0 0 1-.243-.26.385.385 0 0 1-.276-.29c-.041-.161-.122-.222-.244-.182-.042-.285-.102-.489-.183-.61a.51.51 0 0 1-.062-.428c-.081 0-.122.021-.122.06a5.45 5.45 0 0 1-.152-1.037 2.641 2.641 0 0 0-.275-1.037c.122-.163.131-.315.03-.459-.102-.142-.071-.254.092-.335.04-.082.03-.132-.03-.153-.062-.02-.072-.07-.031-.153-.082 0-.113.041-.091.123.02.081-.011.101-.092.06.08-.447.092-.874.03-1.282a29.59 29.59 0 0 1-.152-1.16c.04 0 .06.01.06.03l.007.018c.01.01.028.014.055.014 0-.203-.061-.285-.183-.244a.686.686 0 0 1 .122-.184c.04-.04.04-.121 0-.244h-.183c.08-.081.091-.203.03-.366-.061-.162-.03-.325.092-.489-.082 0-.122-.08-.122-.244 0-.162.01-.345.03-.55.02-.203.02-.405 0-.61-.02-.203-.071-.345-.152-.427.08-.447.111-.956.09-1.526-.02-.57-.07-1.038-.152-1.404a.691.691 0 0 0 .062-.489h-.062c0-.814-.02-1.699-.06-2.655-.041-.956.458-3.255.376-4.314-.04-.04-.07-.214-.09-.52a2.568 2.568 0 0 0-.154-.762.696.696 0 0 1-.091.152c-.021.022-.03.072-.03.153-.083-.04-.144-.02-.184.061-.041 0-.061-.061-.061-.183a.707.707 0 0 1-.122.183c-.041.041-.061.102-.061.183-.041-.122-.072-.152-.092-.091-.02.06-.051.132-.091.213l-.122-.122a.271.271 0 0 0-.153.183c-.02.082-.052.164-.092.245-.04 0-.06-.04-.06-.122-.083 0-.103.02-.061.06.04.041.06.103.06.184-.122-.04-.224.01-.305.152-.082.143-.183.214-.305.214-.122.326-.065.631-.35.916-.268.268-.728.555-.95.858l.034-.003c0 .122-.03.274-.09.457-.062.183-.195.275-.398.275.04.204-.03.387-.214.55a2.388 2.388 0 0 0-.396.427c.08.163.05.275-.092.336-.143.06-.194.193-.153.397-.163 0-.265.132-.305.396-.04.265-.143.438-.305.52 0 .081.01.121.03.121.02 0 .031.041.031.122-.204.041-.305.266-.305.672-.204-.04-.275.02-.214.183.061.163.07.285.03.366-.081-.08-.101-.142-.06-.183-.164 0-.194.091-.092.275.101.183.01.274-.274.274 0 .053-.044.09-.088.112.1.01.24.074.21.194-.083 0-.133-.01-.153-.03-.021-.021-.052-.032-.092-.032 0 .123.061.205.183.245-.122.122-.163.204-.122.244H24.2c-.04.122-.082.296-.122.52-.041.223-.143.376-.305.457 0 .163-.021.326-.061.488-.082 0-.374-.02-.352-.06.017-.036.56-.057.164-.061l-.195-.001c-.082.122-.092.214-.03.275.06.06.07.193.03.397-.082-.081-.143-.081-.183 0-.041.082-.061.082-.061 0-.082 0-.092.051-.03.152.05.085.034.103-.042.06.005.01.01.018.01.032 0 .04.02.06.062.06-.122.123-.204.184-.245.184.081.163.081.305 0 .427-.056-.056-.082-.092-.079-.109-.064.04-.08.097-.042.17.04.082 0 .082-.123 0 .123.205.081.418-.122.641-.204.224-.285.438-.244.641 0 .041-.01.061-.03.061-.021 0-.031-.04-.031-.122a.695.695 0 0 0-.122.184c-.041.081-.041.143 0 .183-.082-.04-.122.02-.122.183s-.061.265-.183.305c.08.082.08.144 0 .183l-.04.027c-.039.04-.026.092.04.156-.082-.08-.164-.122-.245-.122.04.042 0 .102-.122.184.082.081.112.163.092.244a.341.341 0 0 0 .03.244c-.244-.081-.387.02-.427.305-.04.285-.082.51-.122.671-.082.083-.122.062-.122-.06 0-.123.04-.184.122-.184-.082-.08-.132-.07-.153.03-.02.103-.091.134-.213.092-.041.285-.041.51 0 .672-.082-.04-.123-.183-.123-.428-.081.041-.112.113-.091.214.02.102-.03.174-.153.214-.082.082-.082.133 0 .153.008.001.008.007.015.01-.016-.002-.04.002-.076.02-.082.041-.102.082-.06.122.04.041.02.021-.062-.06v.182c-.082.041-.102.021-.06-.06l.016-.042c.013-.046-.013-.052-.078-.02-.04.041-.051.072-.03.092.02.02.01.071-.03.152-.083-.04-.175-.02-.276.061a3.325 3.325 0 0 0-.274.245.757.757 0 0 1-.305.183c-.123.04-.266.02-.428-.061-.04.163-.204.204-.488.122v-.183c-.082 0-.113.02-.092.06l.006.018c0 .013-.032-.012-.097-.078h.06a.46.46 0 0 0-.274-.275 1.263 1.263 0 0 1-.397-.275c.081-.162.061-.264-.06-.305-.06 0-.097.022-.113.065.011-.093-.03-.167-.132-.217l-.053-.034c-.073-.059-.076-.14-.008-.241.081 0 .101.04.061.122-.041.082-.021.102.06.06a.554.554 0 0 0-.06-.244c-.041-.08-.041-.182 0-.305-.031-.015-.052-.017-.068-.012-.035-.065-.054-.085-.054-.049 0 .042-.041.061-.122.061.04-.203.05-.345.03-.427a1.948 1.948 0 0 1-.03-.427l.122.122c-.204-.61-.183-1.2.06-1.77h-.182c0-.082.009-.123.03-.123.02 0 .01-.04-.03-.122.08-.04.122-.05.122-.03 0 .02.02.03.06.03v-.183c-.081-.04-.112-.02-.09.061.02.082-.011.102-.092.061.08-.325.122-.66.122-1.007 0-.345.02-.742.06-1.19.04-.082.062-.082.062 0v.183c.04-.448.05-.977.03-1.588-.02-.61.071-1.2.275-1.77h-.06c.08-1.383.172-2.778.274-4.182.1-1.404.254-2.695.458-3.877-.082-.122-.113-.284-.092-.488.02-.203.07-.366.153-.488a9.09 9.09 0 0 1-.03-1.343c.019-.529.05-1.088.09-1.68.04-.589.071-1.19.092-1.8.02-.61.01-1.16-.03-1.648a1.113 1.113 0 0 1-.397.335.494.494 0 0 0-.275.458c-.122-.08-.193-.06-.214.061a.548.548 0 0 1-.152.305c-.041 0-.061-.04-.061-.121 0-.04.02-.082.06-.123-.121 0-.173.052-.152.153.02.102.051.194.092.275-.408.163-.57.468-.488.915-.041-.04-.062-.1-.062-.183-.082 0-.122.102-.122.306-.082-.123-.122-.112-.122.03 0 .143-.02.235-.06.275-.123-.04-.195-.03-.214.03-.021.062-.072.092-.153.092.081.163.081.285 0 .366a.77.77 0 0 0-.183.366c-.041 0-.061-.009-.061-.03l-.007-.017c-.01-.009-.027-.013-.054-.013.08.082.091.143.03.183a.206.206 0 0 0-.091.183c-.083-.082-.163-.03-.245.152a1.178 1.178 0 0 0-.122.458c-.04 0-.06-.01-.06-.03 0-.02-.022-.03-.062-.03a1.066 1.066 0 0 0-.091.304l-.024.116a.952.952 0 0 1-.068.19c-.041-.04-.051-.081-.03-.122.02-.04.009-.062-.03-.062-.083.083-.123.164-.123.245v.183c.04.04.061.051.061.03 0-.02.04-.01.122.031 0 .082-.021.143-.06.183-.083 0-.123-.04-.123-.122-.082 0-.133.021-.153.06-.02.042-.051.022-.091-.06-.082.082-.082.153 0 .214.081.06.081.152 0 .274-.082 0-.122-.04-.122-.122-.041.041-.052.082-.03.122.02.041-.032.061-.153.061 0 .041.04.062.121.062.041.081.01.132-.09.152-.103.021-.093.072.03.153-.123 0-.214.04-.275.122-.061.082-.133.122-.214.122 0 .082.02.152.061.214.04.06.02.051-.06-.031 0 .082.02.132.06.153.04.02.061.071.061.152-.082-.04-.122-.07-.122-.091 0-.02-.02-.051-.06-.092 0 .163.02.245.06.245-.04.081-.082.101-.122.06-.04-.04-.06-.08-.06-.122-.042 0-.042.041 0 .122.039.082 0 .122-.123.122.081.082.101.153.061.214a.498.498 0 0 0-.061.275c-.075-.037-.105-.092-.093-.164h-.001l-.008.018-.02.024c-.041.04-.041.102 0 .183-.041 0-.061-.01-.061-.03l-.007-.017c-.01-.01-.027-.014-.054-.014.08.122.101.224.06.305-.04-.04-.06-.081-.06-.122a.412.412 0 0 0-.183.366h.183c-.082 0-.122.041-.122.122a.272.272 0 0 1-.071-.109 1.243 1.243 0 0 1-.173.476 1.938 1.938 0 0 0-.245.732c-.082 0-.132-.02-.152-.06-.021-.041-.072-.062-.153-.062.04.082.081.133.122.153.04.02.04.091 0 .214-.04 0-.06-.04-.06-.123 0-.015.005-.024.01-.034-.036.026-.056.07-.042.157.02.121.01.224-.03.305-.082 0-.122-.04-.122-.122-.04.082-.051.152-.03.213.02.061.03.133.03.214-.122.082-.194.163-.214.244a.538.538 0 0 1-.152.244c-.082-.08-.123-.08-.123 0 0 .083-.04.103-.121.061.04.082.1.163.183.244 0 .083-.01.103-.03.062-.022-.04-.072-.062-.153-.062 0 .083-.011.144-.031.184-.02.04-.01.102.03.183-.082-.04-.132-.01-.152.091-.021.102-.03.092-.03-.03a.485.485 0 0 0-.061.213c0 .062-.042.113-.123.153h.061c.081.041.07.082-.03.122-.102.041-.113.102-.03.183l-.123-.122c-.04.041-.02.164.061.367-.163-.163-.244-.102-.244.183-.122 0-.143-.061-.061-.183-.082 0-.102.04-.061.122l.017.044c.013.052-.013.078-.078.078.122.04.162.122.122.244-.04.122-.061.224-.061.305-.082-.081-.133-.091-.153-.03-.02.06-.051.132-.091.213-.041 0-.052-.009-.03-.03.02-.02.009-.03-.031-.03-.082 0-.102.02-.062.06l-.06-.06c.04.081.05.193.03.335-.02.143-.113.214-.275.214.04.163 0 .305-.122.427s-.122.265 0 .427c-.082 0-.122-.02-.122-.06 0-.04-.04-.04-.122 0 .081.082.112.163.092.244a.336.336 0 0 0 .03.244c-.082-.04-.122-.03-.122.03 0 .061-.061.113-.183.153.04 0 .06.102.06.305l-.06-.06h-.061c0-.04.01-.051.03-.031.02.02.031.01.031-.031-.082-.081-.132-.092-.153-.03-.02.06.01.132.092.213-.041-.04-.082-.06-.122-.06-.041.08-.03.121.03.121.061 0 .092.041.092.122-.122.041-.163.082-.122.122.04.041.02.103-.061.184-.041 0-.061-.04-.061-.123-.041.327-.122.571-.244.733-.123.163-.184.408-.184.733-.204.082-.265.183-.183.305-.122 0-.183-.04-.183-.122-.082.04-.082.091 0 .152a.618.618 0 0 1 .183.214c-.082.082-.113.163-.091.244.02.082-.052.122-.214.122.04.204.01.428-.092.672-.102.244-.193.407-.274.488.08.244.03.489-.153.733s-.255.488-.213.732c-.164.082-.245.266-.245.55 0 .285-.082.51-.244.672.04.163.03.387-.03.67-.061.286-.194.428-.397.428 0 .082.02.122.06.122.04 0 .082.021.123.061 0 .163-.061.305-.183.428 0 .081.04.122.122.122h-.183c.04.163.04.285 0 .366-.041.082-.061.102-.061.061 0-.04-.042-.061-.123-.061.081.041.112.092.092.153-.02.06.01.112.092.152-.083.326-.122.59-.122.794 0 .204-.042.407-.122.61.08.122.1.275.06.458-.04.183-.101.336-.183.458-.014-.014-.024-.03-.033-.047-.05.354-.075.697-.058 1.024.02.407-.052.835-.214 1.282.081.244.081.54 0 .885a6.093 6.093 0 0 1-.244.824c.162.205.173.388.03.55-.143.162-.152.305-.03.427.08 0 .1-.052.061-.153-.041-.102-.021-.152.061-.152.04.122.061.264.061.427 0 .162-.06.284-.183.366.08.04.1.123.061.245a.782.782 0 0 1-.183.305c.203.447.183.854-.061 1.221.122.366.08.794-.122 1.282a.522.522 0 0 1 0 .489.514.514 0 0 0 0 .488.479.479 0 0 0-.122-.092c-.041-.021-.061-.072-.061-.153a1.383 1.383 0 0 0-.031.489c.02.122.07.305.153.55-.082 0-.122-.052-.122-.154 0-.101-.042-.132-.123-.09.081.121.081.222 0 .304.04 0 .061-.01.061-.03 0-.021.04-.03.123-.03-.083.202-.113.345-.092.426.019.075.01.203-.023.382.006-.01.013-.015.023-.015.02 0 .03-.021.03-.062 0 .082-.03.214-.09.398a6.499 6.499 0 0 0-.154.519c-.082-.042-.183.06-.305.305-.122.244-.143.427-.061.55-.122-.042-.122.04 0 .243H4.28c.04.081.05.153.03.214-.02.062-.01.153.031.275-.082 0-.122-.082-.122-.244-.082 0-.122.03-.122.091s.04.092.122.092c-.02.038-.039.06-.058.066.078.118.087.178.028.178-.062 0-.052.04.03.122 0 .04-.041.06-.122.06-.041 0-.061-.02-.061-.06-.082.04-.123.162-.123.366-.04 0-.101-.04-.182-.122-.042.081-.042.153 0 .214.04.06.08.05.122-.03.08.04.091.07.03.09-.061.021-.071.052-.03.092-.122 0-.164-.04-.122-.122-.042 0-.062.01-.062.03l-.006.018c-.01.009-.028.013-.055.013-.04.04-.051.07-.03.092.02.02-.01.05-.092.092-.04.08-.03.122.03.122.062 0 .071.04.032.122 0 .04-.031.06-.092.06s-.113.021-.153.062c-.082-.04-.091-.071-.03-.092.06-.02.05-.051-.03-.09-.245.243-.51.457-.794.64-.286.183-.591.396-.916.64-.081-.121-.153-.132-.214-.03-.06.101-.112.07-.153-.091-.04 0-.06.06-.06.183-.123.04-.204.02-.245-.061-.04-.082-.1-.082-.183 0 .041-.082.02-.122-.06-.122-.082 0-.082-.04 0-.123-.082.082-.204.031-.367-.152-.162-.183-.203-.377-.122-.58.04 0 .06.01.06.03 0 .02.022.031.062.031.04-.082.051-.122.03-.122-.02 0-.03-.021-.03-.061-.081 0-.112.02-.092.06.021.041-.01.041-.091 0a36.736 36.736 0 0 1 .122-6.012c.204-1.934.346-3.938.427-6.014.082-.691.183-1.485.305-2.38.122-.895.205-1.75.244-2.564.041-.04.083-.193.122-.458.041-.265.022-.437-.06-.52.082-.08.143-.222.183-.426.04-.204.02-.346-.061-.427.203-1.384.416-2.85.64-4.396.224-1.547.468-3.134.733-4.762.265-1.628.54-3.245.825-4.853.284-1.608.589-3.184.915-4.732a8.74 8.74 0 0 0 .275-.855 2.66 2.66 0 0 0 .091-1.037c.122-.162.234-.458.336-.885.101-.428.132-.723.092-.886.08-.04.111-.09.091-.152-.02-.061-.01-.132.03-.214.123.041.154.01.092-.092-.06-.1-.03-.11.092-.03v-.61c.04.082.08.082.122 0 0-.04-.041-.061-.122-.061.04-.04.061-.112.061-.214 0-.101.04-.112.122-.03.081-.692.244-1.414.489-2.168.244-.752.447-1.577.61-2.472.122-.081.183-.244.183-.489.081 0 .122-.02.122-.06 0-.04.02-.04.061 0-.082-.082-.082-.163 0-.245.081-.081.101-.203.061-.366-.163.082-.173.06-.03-.061.142-.122.172-.203.091-.244.204-.57.458-1.252.763-2.045.306-.794.58-1.496.824-2.107.163-.325.417-.62.764-.885Zm73.204 5.465c.813-.122 1.495.03 2.045.458.549.427.905.926 1.068 1.495.04.327.04.621 0 .886a2.347 2.347 0 0 0 0 .763 31.488 31.488 0 0 1-1.343 3.021c-.488.957-.794 2.087-.916 3.389a330.46 330.46 0 0 1-1.679 7.997c-.59 2.646-1.17 5.332-1.74 8.058 0 .082.01.144.031.183.02.042.03.103.03.183a1.371 1.371 0 0 0-.244.611 4.82 4.82 0 0 0-.06.794l-.001-.002.053-.242.04-.245c.02-.162.049-.345.09-.55.04.042.062.103.062.184.08 0 .1-.061.06-.183-.04-.122 0-.162.123-.122-.082.285-.153.58-.214.885-.061.305-.153.58-.274.824 0 .204.02.336.06.397.04.061.04.173 0 .336-.082.082-.122.06-.122-.061-.366 1.669-.448 3.266-.244 4.792a91.59 91.59 0 0 0 .672 4.304c.085.294.264.54.427.885.162.345.44 1.135.55 1.007.325-.244.59-.54.793-.885.203-.345.386-.722.55-1.13.08.042.131.022.152-.06.02-.081.07-.122.153-.122a82.26 82.26 0 0 0 3.235-7.051c.42-1.04.871-2.047 1.351-3.024.066-.29.16-.582.285-.881l-.012.145c.02-.12.046-.099.08-.156l.028-.06c-.098.14.037-.203.061-.307.189-.32.4-.745.549-1.034l.032.005c.062-.153.16-.304.244-.455.07-.139.17-.355.265-.527.032-.037.09-.09.144-.2.062-.219.12-.32.26-.617.066-.1.136-.241.255-.367l.312-.306c.276-.35.579-.687.887-1.026l.463-.51c.147-.17.322-.352.523-.502l.079-.012a2.85 2.85 0 0 1 .338-.221l.329-.205c.135-.085.247-.082.334-.099l.263-.027c.165-.017.315-.045.442-.1.064-.024.109-.06.22-.112.086-.037.165-.065.242-.092l.432-.143c.238-.049.476-.074.406-.1.241-.04.593-.156.757-.13.251-.027.302-.07.52-.093.475.019.67.042 1.05.115-.027.007-.016.026.077.05.183.017.63.22.485.09.144.068.305.143.466.232.048-.112.104-.224.174-.336.205-.33.544-.883.473-1.288-.007-.043.008-.168.03-.19.198-.195.374-.345.661-.366.318-.022.86.025.951.342.181 0 .318.034.41.103.09.068.204.102.34.102.228.273.41.648.546 1.126.137.477.216.978.24 1.501a6.523 6.523 0 0 1-.103 1.5c-.092.478-.25.877-.478 1.195 0 .5-.114.91-.341 1.228-.219.305-.35.63-.4.977v-.004l.009-.025c.014-.041.019-.054-.002.02l-.016.055c-.114.387-.194.83-.239 1.33-.092.046-.136-.022-.136-.204a.426.426 0 0 0-.103.17c-.023.069-.034.035-.034-.102-.092.092-.103.17-.034.24.068.067.057.147-.034.238.09-.045.136-.113.136-.205 0-.09.045-.113.137-.068 0 .092-.024.16-.068.205-.046.046-.069.136-.069.272-.092-.09-.136-.09-.136 0 0 .092-.154.183-.198.274 0 .091.022.102.068.034.044-.069.09-.057.136.034a.43.43 0 0 0-.204.238.92.92 0 0 1-.205.308c.09.045.124.102.102.17-.023.069-.012.148.034.239-.092.046-.136.023-.136-.068s-.046-.091-.137 0c.045.091.09.148.137.17.044.024.044.103 0 .24-.092-.274-.229-.319-.41-.137.137.091.205.204.205.34-.092.047-.126.035-.102-.033.022-.069.01-.125-.034-.17-.047 0-.069.01-.069.033 0 .024-.023.034-.068.034.045.137.09.262.137.376.044.114-.047.125-.273.034.044.136.078.216.102.238.023.024-.012.08-.102.171.044.046.078.068.102.068l.026.008c.02.01.046.03.076.06-.136.092-.16.195-.068.307.09.114.137.217.137.307-.092.046-.137.046-.137 0 0-.044-.046-.044-.136 0-.046 0-.222.52-.222.748.09 0 .137-.023.137-.069 0-.044.022-.09.068-.136.09.136.124.33.101.58-.023.25.055 1.297.147 1.524-.092 0-.126-.034-.103-.102.023-.068-.055-.91-.145-.91.09.364.19 1.49.214 1.763.022.273.056.592.102.955-.092.182-.182.228-.273.137 0 .091.034.137.102.137.069 0 .103-.046.103-.137.09.137.079.194-.034.17-.114-.022-.148.058-.103.239 0 .092.011.092.034 0 .019-.073.06-.084.123-.04.042.538.303.782.458.747.276-.061.658-.462.779-.615.346-.437 1.016-1.465 1.21-1.738.196-.273.86-1.55 1.328-2.448.468-.898 1.1-2.72 1.217-2.916.118-.195 1.516-3.932 1.79-5.297.093-.468.385-1.438.73-2.513.025-.11.047-.223.074-.333.875-3.703 1.383-5.555 2.441-8.852-.488.163-1.018.347-1.587.55-.57.204-1.139.387-1.71.55-.569.04-1.138.182-1.709.426-.57.244-1.119.347-1.648.306-.529.204-1.21.305-2.045.305a9.991 9.991 0 0 1-2.29-.244 13.982 13.982 0 0 1-2.045-1.19c-.67-.468-1.088-1.15-1.25-2.046.121-.406.365-.671.731-.794.123 0 .205.041.245.123.041.082.274-.014.305.06.163.408.479.662.947.764.468.102.926.152 1.373.152.855 0 1.74-.07 2.655-.213a26.404 26.404 0 0 0 2.748-.58 248.66 248.66 0 0 0 2.686-.733l2.411-.671c.325-.04.57-.081.733-.123a8.58 8.58 0 0 1 .61-.122c.488-1.139 1.13-3.153 1.557-4.334.428-1.18.926-2.279 1.496-3.297a.686.686 0 0 1 .305-.06c.122 0 .198-.132.244-.123a5.063 5.063 0 0 1 1.496.611c.467.285.681.774.64 1.465a12.214 12.214 0 0 1-.457 1.77c-.183.53-.56 1.995-.763 2.686 1.099-.203 2.32-.427 3.663-.67a30.08 30.08 0 0 1 4.029-.459c1.343-.061 2.625.01 3.846.214 1.22.204 2.299.651 3.235 1.343.13.088.148.33 0 .305a31.45 31.45 0 0 0-3.022-.336 14.447 14.447 0 0 0-3.082.153c-.937.285-1.934.519-2.992.702a8.913 8.913 0 0 0-2.634.863c0 .082-.184.155-.205.175-.02.021-.03.071-.03.152-.53.205-1.068.367-1.618.489s-1.109.244-1.679.366l-.358.127c-.244.082-.191.24-.314.483-.121.245-.213.51-.274.794l-.183.855c-.061.285-.174.51-.336.671.04.326-.01.59-.153.794a.751.751 0 0 0-.11.26c.009-.139.015-.225-.011-.108-.061.266-.052.48.03.642-.082 0-.122-.04-.122-.122-.122.57 0 .326-.183.854a8.713 8.713 0 0 0-.397 1.77c-.448 1.71-.865 3.4-1.251 5.068a88.227 88.227 0 0 0-1.069 5.433h-.183c.081.163.142.244.183.244-.163.407-.244.774-.244 1.1 0 .325-.041.692-.122 1.098-.04.732-.092 1.536-.153 2.411a55.48 55.48 0 0 0-.122 2.656c-.021.895.01 1.792.092 2.686.08.895.264 1.73.55 2.503.162.488.335.752.518.794.183.04.376-.022.58-.184.203-.163.397-.397.58-.702.183-.305.356-.58.519-.824h.122c.081-.082.122-.214.122-.397 0-.183.101-.295.305-.335a7.476 7.476 0 0 1 .886-1.71c.345-.488.62-1.078.823-1.77a75.835 75.835 0 0 0 2.442-4.823 61.945 61.945 0 0 1 2.473-4.792c.875-1.526 3.39-5.292 4.938-6.188.238.07.406.008.502-.182.054-.108.116-.093.2-.072l.762.254c.283.12.865 1.923.886 3.083.02 1.16-.133 2.31-.458 3.45-.04 0-.061.02-.061.06l-.007.035c-.01.018-.027.026-.054.026-.122.571-.275 1.1-.458 1.588s-.346.987-.488 1.496c-.144.509-.156.382-.217.931-.061.55-.01 1.13.152 1.74a10.444 10.444 0 0 0 1.953-1.526c.128-.128.255-.258.38-.39 2.78-3.157 5.207-8.25 6.505-10.825l.117-.288.037-.017.054-.104-.022.09c.198-.1.462-.298.662-.426.223-.142.448-.275.672-.397.223-.122.467-.192.732-.213.265-.02.52.07.763.274.123.57.062 1.049-.182 1.435a6.448 6.448 0 0 0-.611 1.251 23.72 23.72 0 0 1-.336 2.137 79.564 79.564 0 0 1-.458 2.076c.325-.65.765-1.23 1.13-1.862 3.57-6.185 4.19-6.163 5.619-7.876.122-.08.671-.467.793-.55.049-.036.52-.009.702-.03.183-.02 1.226.171 1.293.153l.184-.091c.04-.02.1-.002.183-.043.049-.013.173.114.275.195.1.082.274.082.274.122.163.122.315.255.458.397.143.143.451.3.519.397.245.774.466 1.578.405 2.411-.06.835-.052 1.679-.236 2.534a23.263 23.263 0 0 1-.671 2.472c-.135.404-.261.788-.38 1.155-.016-.004-.11.746-.217 1.467a1.126 1.126 0 0 1-.381.467c.056.071.075.16.058.267-.017.103.038.18.159.233l-.003.013c-.004.022-.007.044-.012.065a.335.335 0 0 1-.225.176c-.036.217-.008.388.081.514.003.003.007.002.01 0a35.832 35.832 0 0 0-.312 1.87 23.881 23.881 0 0 0-.213 2.686c-.021.896.048 1.449.292 2.385.102.134.308.2.349.118.245 0 .488-.111.733-.336.244-.222.458-.488.64-.793.184-.305.346-.61.489-.916.142-.305.254-.519.336-.64.488-.774.977-1.628 1.465-2.565.489-.936.997-1.872 1.526-2.808a60.75 60.75 0 0 1 1.649-2.747c.569-.895 2.44-5.128 3.05-5.86.4-.764 1.466 0 1.466 0 .57.895.864 1.922.886 3.082a11.78 11.78 0 0 1-.458 3.45c-.041 0-.061.02-.061.06l-.007.035c-.01.018-.028.027-.054.027-.123.57-.276 1.098-.458 1.587a18.32 18.32 0 0 0-.489 1.495 9.885 9.885 0 0 0-.305 1.588c-.06.549.117 1.262.39 1.363.75.056 1.146-.579 1.716-1.15.53-.53 1.303-1.5 1.835-2.46.039-.07.127-.06.131.018.048.861-.148 1.89-.84 2.909-.476.703-.574.98-1.266 1.55-.082.325-1.071 1.057-1.295 1.097-.224.04-.437.163-.64.366 0-.081.02-.111.06-.092l.022.007c.026 0 .04-.033.04-.098-.042-.081-.082-.07-.123.03a.66.66 0 0 1-.121.214 1.376 1.376 0 0 0-.641-.091c-.224.02-.094.11-.217-.095-.203.082-.689-.19-.852-.455-.159-.259-.254-.372-.335-.53.009-.008.032-.05.091-.05a1.959 1.959 0 0 1-.58-1.13c-.06-.427-.253-.655-.253-1.104-.004.008-.003.003 0-.005.001-.05.01-.046.008-.025.02-.06.06-.178.031-.178a13.68 13.68 0 0 1-.03-3.021c.045-.462.105-.918.174-1.371-.345.926-.67 1.803-.899 2.268-.529 1.079-.608 1.565-1.137 2.643a77.874 77.874 0 0 1-1.648 3.175c-.57 1.037-.99 1.206-1.681 2.1-.146.102-.25.147-.433.248-.183.102-.694.836-.816.918-.204-.082-.545.136-.79.299.082-.163.082-.203 0-.122-.081.082-.122.06-.122-.061-.081 0-.173.152-.152.091.02-.061-.01-.091-.092-.091-.407.326-.676.311-1.041.311-.652.082-1.181-.06-1.588-.427-.407-.367-.712-.844-.916-1.435a9.144 9.144 0 0 1-.427-1.984 41.646 41.646 0 0 1-.183-2.076 20.346 20.346 0 0 1 .213-4.304c.224-1.444.234-3.835.58-5.158.346-1.322.49-2.574.694-3.755-.57.489-2.088 2.951-2.495 3.602.04.327-.06.632-.304.916a3.35 3.35 0 0 0-.55.855c-.041 0-.061-.061-.061-.184a2.424 2.424 0 0 0-.275.702 8.37 8.37 0 0 1-.214.764c-.081.244-1.235 2.01-1.337 2.194-.102.183-.234.295-.397.336-.04.082-.03.121.031.121s.07.042.03.123c-.692 1.303-.224-.61-.977.671-.753 1.282-.515.94-1.41 2.08-.936.122-1.617-.082-2.044-.611-.428-.528-.703-1.18-.824-1.953.019-.768.082-1.502.187-2.205-.556 1.117-1.088 2.22-1.16 2.462-.042.136-.37.75-.897 1.57-.003.022-.004.041-.009.065-.011-.003-.02-.003-.03-.003-.165.255-.348.528-.547.814l.028.008c-.025.031-.047.045-.065.046l-.035.048c.02.01.045.02.074.025-.057.072-.106.103-.145.094h-.014l-.1.14c.007.114-.031.187-.118.216-.112.039-.142.126-.087.263-.089.023-.128.014-.12-.026v-.013l-.081.105-.092.433c-.08-.017-.093-.06-.035-.132.049-.062.044-.102-.01-.123l-.144.181a.276.276 0 0 0 .003.066.33.33 0 0 1-.057.268c-.12-.025-.143-.062-.071-.108.063-.041.065-.07.015-.088l-.114.139a.29.29 0 0 1 .024.151c-.063-.096-.095-.092-.095.01-.002.105-.011.197-.028.276a.207.207 0 0 0-.091.137c-.013.06-.056.06-.126.004.054.136-.365.328-.493.446a2.15 2.15 0 0 1-.26.172c-.447.455-.915.876-1.394 1.232a.486.486 0 0 1-.33.234c-.21.038-.41.15-.602.332-.052.065-.106.11-.161.095a1.379 1.379 0 0 0-.64-.091c-.225.02-.397-.071-.52-.275-.203.082-.386-.01-.549-.275a9.446 9.446 0 0 1-.348-.605c.02.016.052.025.104.025a1.958 1.958 0 0 1-.58-1.13 9.277 9.277 0 0 1-.092-1.312c0-.081-.01-.1-.03-.06-.02.04-.05.06-.092.06a13.66 13.66 0 0 1-.031-3.022c.103-1.037.266-2.054.488-3.052.124-.547.264-1.082.417-1.605h-.001l-.116.204c-.271.476-.525.94-.682 1.26l-.061.127c.05 0-.034.122-.107.235-.215.46-.456.904-.724 1.327-.082 0-.122-.04-.122-.122-.326.61-.631 1.22-.916 1.831a9.63 9.63 0 0 1-.916 1.587c.04.041.061.144.061.306-.082.041-.122.082-.122.122 0 .041-.02.02-.06-.061.04.082.03.163-.031.244-.061.082-.113.163-.153.244.08.041.112.021.092-.061-.021-.081.01-.101.091-.06a2.242 2.242 0 0 1-.305.457.774.774 0 0 0-.183.519l-.001-.005-.004-.063a.234.234 0 0 0-.073-.147l-.044-.03a.93.93 0 0 1-.245-.182c-.121.122-.203.163-.243.122-.042.081-.042.132 0 .152.04.021.06.072.06.153.081-.04.092-.092.031-.153l-.02-.024c-.024-.045.033-.067.172-.067 0 .204-.06.305-.183.305-.082.04-.112.04-.091 0 .02-.04.01-.081-.03-.123-.083.083-.143.225-.184.428a.824.824 0 0 0 .061.55c.081-.081.081-.143 0-.184-.082-.04-.082-.1 0-.183a.548.548 0 0 1 .244-.153.531.531 0 0 0 .245-.152c0 .041.04.102.122.183 0 .041-.03.122-.092.244-.061.123-.122.255-.183.397-.06.143-.133.265-.213.366-.083.102-.143.133-.184.092-.082.041-.102.102-.06.183.039.082.02.122-.062.122-.041-.244-.01-.416.092-.519a.469.469 0 0 0 .152-.336c0-.08-.02-.08-.061 0-.04.083-.102.123-.183.123-.082-.04-.091-.092-.03-.153.06-.061.05-.111-.03-.152-.123.163-.144.366-.062.61h-.183a.305.305 0 0 1 0 .366c-.082.122-.082.224 0 .305-.082.041-.122.082-.122.123 0 .04-.022.06-.061.06 0 .083.02.103.061.062.04-.04.06 0 .06.122.082 0 .102-.04.062-.122-.041-.082-.02-.101.06-.062.082.164.072.275-.03.336s-.132.194-.091.397c-.083.041-.122.041-.122 0 0-.04-.021-.06-.061-.06-.041.081-.03.121.03.121.061 0 .092.041.092.122-.04-.08-.103-.04-.183.122 0-.04-.02-.091-.061-.152-.041-.061-.102-.05-.184.03l.003-.003.242-.24c.06-.062.11-.146.148-.253l.035-.114c-.163-.081-.265-.122-.306-.122 0 .082.02.122.062.122 0 .082-.021.091-.062.03-.04-.06-.081-.091-.122-.091 0 .163.04.326.122.488-.122 0-.173.041-.152.122.02.082.01.163-.03.244-.083 0-.113-.03-.092-.091l.006-.033c0-.04-.033-.059-.098-.059.08.083.08.183 0 .306-.082.122-.04.183.123.183 0 .082-.022.112-.062.091-.041-.02-.06-.009-.06.03.08 0 .122.052.122.153a.617.617 0 0 1-.062.275c.04 0 .062.021.062.061.08-.04.1-.112.06-.213a.893.893 0 0 1-.06-.336c.08-.04.13-.04.152 0 .02.04.05.021.091-.061-.122 0-.152-.02-.091-.061.061-.04.05-.122-.03-.245.08.082.121.103.121.062 0-.04.04-.062.123-.062.122.082.142.163.06.245-.08.082-.08.163 0 .244l-.001-.002-.042-.038c-.04-.032-.064-.038-.074-.019l-.004.028c0 .062-.041.092-.123.092.082.04.082.102 0 .183-.082.082-.06.163.061.244-.122-.08-.193-.07-.213.03-.021.103.01.194.091.275-.121-.121-.163-.141-.121-.06.04.082-.042.102-.245.06 0 .083.03.143.092.184.061.04.091.102.091.183-.163 0-.204.082-.122.244-.122 0-.183-.061-.183-.183s.04-.204.122-.244a.467.467 0 0 0-.152-.184c-.061-.04-.072-.1-.03-.183.08 0 .11.021.09.062a.261.261 0 0 0-.03.121c.122 0 .173-.04.152-.121-.02-.082.031-.143.153-.184-.122 0-.204-.03-.244-.092-.04-.06-.122-.05-.244.031v-.183c-.082.04-.102.102-.061.183.04.082.1.102.183.061a.857.857 0 0 1-.367.061c.041-.081.051-.122.03-.122-.02 0-.01-.04.032-.122-.082.041-.122.102-.122.183 0 .082.04.143.122.184 0 .04-.041.101-.122.182 0 .082.02.113.06.092.041-.02.062-.01.062.03.08.041.101.031.06-.03-.04-.061-.04-.111 0-.153.082.042.102.143.062.306-.041 0-.061-.01-.061-.03l-.007-.018c-.01-.009-.028-.014-.054-.014 0 .083.01.133.03.153.02.02.03.069.03.143-.043-.008-.077-.023-.091-.051-.02-.04-.071-.02-.152.06.121 0 .152.042.091.123-.06.082-.071.163-.03.244.04-.02.069-.022.084-.006-.013-.12.04-.24.16-.36-.013 0-.02-.004-.032-.005.019-.004.032-.011.032-.026 0-.02.02-.03.061-.03.081-.04.092-.07.03-.092-.06-.02-.071-.07-.03-.153.04.083.081.153.122.214.04.061.04.133 0 .214-.04 0-.061-.02-.061-.061 0-.04-.022-.061-.06-.061 0 .082.019.152.06.214.04.06.061.173.061.335-.083-.08-.143-.122-.183-.122.04.122.04.245 0 .366a4.022 4.022 0 0 0-.122.489h-.122c.08.203.06.336-.061.396-.122.062-.164.173-.122.337a.397.397 0 0 0-.184-.184c0-.204.081-.326.245-.366 0-.203-.042-.366-.122-.488-.082-.122-.062-.245.06-.367-.04-.04-.082-.06-.122-.06-.04 0-.04-.04 0-.123 0 .041.02.072.062.092.04.02.06-.07.06-.275-.082.082-.102.082-.06 0 .04-.081.02-.162-.062-.244-.04.082-.07.163-.092.244-.02.082-.07.082-.152 0 0 .041.04.102.123.183 0 .082-.022.133-.061.153-.042.02-.042.071 0 .152-.042 0-.072-.009-.092-.03-.022-.02-.052-.03-.092-.03-.041.04-.06.101-.06.183 0 .081-.042.122-.123.122.081-.081.081-.142 0-.184a.15.15 0 0 1-.061-.05v.478c0 .204.04.427.122.671-.082.04-.122.123-.122.244 0 .123.04.204.122.245-.122 0-.183-.061-.183-.183-.163.203-.235.467-.214.793.02.326.01.59-.03.794-.123.08-.183.04-.183-.122l-.035.044c-.045.079-.034.186.035.322-.083 0-.133-.021-.153-.06-.02-.042-.051-.022-.092.06 0 .04.02.081.062.122.04.04.06 0 .06-.122.082.081.071.153-.03.214-.103.06-.153.01-.153-.153-.082.04-.091.081-.03.122.061.04.07.101.03.183-.082-.122-.143-.112-.183.031-.04.142-.061.254-.061.336a1.778 1.778 0 0 1-.183-.245c-.082.04-.102.092-.061.153.04.061.061.111.061.153-.204.203-.427.498-.671.885-.245.386-.51.66-.794.824-.326.366-.835.63-1.526.793-.693.163-1.262.163-1.71 0-.936-.244-1.648-.804-2.136-1.678-.489-.876-.834-1.883-1.038-3.022a20.531 20.531 0 0 1-.306-3.602c0-1.261.022-2.4.062-3.418.018-.454.042-.905.069-1.353-.04.102-.082.205-.124.307a.488.488 0 0 1-.083.202c-.07.17-.14.336-.21.498 0 .038-.003.074-.001.117-.03.024-.055.053-.083.078-.167.381-.33.725-.478 1.002 0 .035-.002.067 0 .104-.02.001-.036-.003-.054-.005l-.041.077-.026.042c.001.005.003.008.003.013l-.012.004c-.07.118-.142.238-.218.36-.007.045-.009.09-.024.136-.054.166-.1.31-.135.433-.083-.037-.094-.067-.034-.09.06-.023.068-.054.027-.093a.759.759 0 0 0-.222.56c-.08.044-.13.056-.15.036-.023-.019-.052.013-.088.096.002.04.022.06.063.058.04-.002.06-.023.059-.064.04-.001.032.04-.026.124a1.628 1.628 0 0 0-.142.25c.003.082.045.12.127.117.081-.004.083.038.005.122-.04.001-.062-.018-.063-.059-.002-.04-.044-.06-.126-.056.004.082-.2.1-.354.29-.155.19-.19.344-.103.463.083.037.084.057.003.06-.082.004-.1.046-.056.125-.084-.036-.126-.095-.13-.178-.003-.08-.046-.12-.127-.116-.037.083-.025.123.036.12.06-.002.092.017.094.057a1.64 1.64 0 0 1-.343.565.76.76 0 0 0-.221.559c-.082.003-.113-.005-.093-.027l.005-.013c-.004-.011-.037-.016-.098-.013.004.081.045.12.127.116-.039.043-1.535.893-1.552.955-.234.273-.617.238-1.084.199-.469-.04-.823.177-1.327-.088-.25.046-.488-.164-.67-.346-.5-.41-.831-.848-1.036-1.599a10.78 10.78 0 0 1-.375-2.08c.136.409.227.818.273 1.227.044.41-.06-.034.213.33 0-.455.15-.113-.077-.637-.228-.522-.318-1.102-.273-1.74-.092-.044-.126-.033-.102.034l.006.035c0 .036-.036.036-.108 0a.617.617 0 0 0-.069-.273c-.046-.09-.024-.182.069-.273.227.091.329-.057.306-.444a5.22 5.22 0 0 0-.102-.852l-.048.08a.44.44 0 0 0-.054.295c.022.114.034.262.034.443-.092-.09-.126-.113-.103-.068.023.046-.011.068-.102.068 0-1 .045-1.864.137-2.592.023-.184.049-.375.078-.571l-.08.168a.19.19 0 0 1-.053.112l-.011.022-.326.701c-.081.195-.157.281-.237.402l-.242.323c-.162.193-.354.426-.535.664-.093.116-.178.24-.292.375-.11.128-.23.237-.334.327-.093.06-.206.24-.306.392-.101.16-.197.325-.293.491-.06.084-.066.157-.2.296-.099.087-.181.136-.268.19-.172.105-.342.195-.512.286-.16.08-.291.18-.436.302l-.273.237a.803.803 0 0 1-.236.153c-.288.084-.455.025-.636.056a1.217 1.217 0 0 0-.252.05c-.111.022-.237.04-.356.055 0 0 .065-.037.214-.092.083-.023.156-.066.255-.1.06-.02.123-.086.201-.11-.12.006-.244.017-.38.058a1.02 1.02 0 0 1-.29.036c-.19 0-.385-.033-.558-.062l-.174-.028a.33.33 0 0 1-.08-.062c-.11-.062-.207-.16-.31-.231-.073-.103.088.043.1.016-.056-.058-.11-.117-.162-.168-.029.012-.006.022-.083-.002-.092-.057-.185-.173-.331-.288l-.016-.01c-.037.012-.106-.04-.263-.11a.525.525 0 0 1-.123-.153c-.031-.09-.095-.186-.163-.3-.034-.06-.07-.117-.095-.207a1.678 1.678 0 0 1-.061-.193v.002l.053.075c.035.058.069.129.108.202l.066.11c-.059-.16-.072-.188-.102-.34a1.11 1.11 0 0 0-.009-.027c-.053-.073-.11-.118-.2-.329l.025-.02c-.078-.198-.122-.185-.19-.448-.05-.2-.096-.4-.138-.594a25.43 25.43 0 0 0-1.058 3.181 12.55 12.55 0 0 0-.855 1.649c-.244.57-.51 1.15-.794 1.74-.285.59-.59 1.149-.915 1.679a7.734 7.734 0 0 1-1.1 1.404c-.081 0-.09-.011-.03-.03.061-.022.07-.073.03-.154l-.182.184c-.041.04-.082.142-.123.305-.082-.041-.183-.021-.305.06-.04-.081-.03-.121.03-.121.062 0 .071-.041.031-.122a.617.617 0 0 1-.213.152c-.062.02-.113.092-.153.214-.082-.082-.071-.153.03-.214.101-.061.112-.132.031-.214l-.115.116-.19.19c-.083.081-.163.223-.244.427-.122 0-.143-.082-.061-.244a.933.933 0 0 1-.184.152c-.04.02-.04.071 0 .153-.57.162-1.068.183-1.495.061a3.806 3.806 0 0 1-1.19-.58 4.18 4.18 0 0 1-.947-.946 6.124 6.124 0 0 1-.64-1.099c-.651-1.465-1.059-3.103-1.222-4.914a37.993 37.993 0 0 1-.06-5.708c.077-1.16.177-2.307.296-3.446a.373.373 0 0 1-.163.03l.18-.179.022-.205a.19.19 0 0 1-.08.019c0-.081.02-.142.06-.184.016 0 .027.003.038.005l.01-.103c-.04.029-.095.061-.17.098 0-.08.01-.121.032-.121.02 0 .03-.02.03-.062-.082-.04-.122-.04-.122 0 0 .041-.04.041-.122 0 0 .163.06.275.183.336.122.061.142.133.061.214-.041 0-.061-.061-.061-.183-.082 0-.122.102-.122.305-.082.04-.113.02-.091-.061.02-.081-.011-.122-.092-.122.08.163.112.274.092.335a1.87 1.87 0 0 0-.028.093c.118.001.138.083.058.243.03.01.054.017.073.02a.543.543 0 0 0-.073.255c0 .102-.061.194-.183.274.04-.161.04-.294 0-.396a3.004 3.004 0 0 1-.122-.397.89.89 0 0 1-.183.55c0 .082.02.142.06.183.04.04.062.102.062.183-.122-.081-.184-.05-.184.091 0 .143-.02.275-.06.397l-.001-.002-.007-.024c-.01-.015-.03-.026-.061-.03l-.054-.005c0 .082.01.133.03.153.02.02.031.071.031.152-.04 0-.082-.06-.122-.183-.04.041-.052.092-.03.153.02.061.03.112.03.153.122 0 .192-.051.214-.153.02-.101.07-.153.153-.153-.083.163-.113.275-.092.336.02.06-.072.133-.275.214.081.04.122.163.122.366-.082 0-.112.03-.091.091l.006.033c0 .04-.033.06-.098.06-.082 0-.102-.01-.061-.032.04-.02.04-.07 0-.152-.082 0-.112.03-.092.091l.006.033c0 .04-.032.06-.097.06.04.081.07.1.091.06.02-.04.051-.02.092.061 0 .204-.02.326-.06.367-.083-.04-.114-.071-.092-.092l-.092.092c.08-.082.092-.184.03-.306l-.028-.07a.222.222 0 0 1 .06-.235c0-.081-.011-.091-.032-.03-.02.06-.07.071-.152.03 0-.081.03-.122.091-.122s.071-.04.031-.122c-.082 0-.122.03-.122.091 0 .062-.041.113-.122.153.08 0 .132.051.152.153.02.102.031.213.031.335v.336c0 .102.061.153.183.153-.041.082-.082.122-.122.122-.04 0-.082.02-.122.06.081.164.07.275-.03.337-.103.06-.113.152-.031.274-.082.041-.122.041-.122 0 0-.04-.021-.06-.061-.06v.61c-.082 0-.103-.04-.061-.122l.016-.044c.013-.052-.012-.079-.078-.079-.081.083-.101.174-.06.275.04.102.04.194 0 .275-.123 0-.153-.03-.092-.092.061-.06.05-.09-.03-.09-.082.04-.103.09-.062.152.04.06.061.112.061.152-.081-.08-.112-.07-.09.031.02.102.03.193.03.274a.204.204 0 0 0-.062.153c0 .06-.04.071-.122.03.081.122.07.255-.03.397-.102.143-.133.255-.092.336-.04.082-.06.091-.06.03v-.152c-.083.082-.103.143-.062.183.04.041.061.102.061.184-.082.081-.122.101-.122.06 0-.04-.041-.06-.122-.06.08.081.112.142.092.182-.022.041-.052.103-.092.184-.04 0-.082-.02-.122-.062-.041.367-.122.754-.244 1.16-.102.338-.22.658-.35.967a.21.21 0 0 0-.017-.05c-.244.081-.285.203-.122.366-.204.448-.396.926-.58 1.434-.183.51-.397.987-.64 1.435l-.123-.122c.04.082.05.132.03.152-.02.021-.05-.01-.09-.091.04.082.02.163-.062.244-.082.08-.122.203-.122.366-.082-.04-.091-.092-.03-.152.06-.061.05-.133-.03-.214a1.53 1.53 0 0 0-.154.55c-.02.202-.132.345-.335.426l.122.123c-.082.08-.144.08-.184 0-.04.08-.04.131 0 .153.04.02.04.091 0 .213-.081-.082-.143-.102-.182-.061-.042.04-.103.02-.184-.06 0-.083.02-.114.061-.092.04.02.061.05.061.091.081 0 .112-.03.092-.091-.02-.062-.01-.113.03-.153-.082 0-.132.02-.152.06-.021.04-.071.082-.153.123 0 .122.02.183.061.183 0 .12-.06.22-.178.301.004-.041.011-.074.026-.087a.128.128 0 0 0 .03-.092c-.082-.04-.163-.143-.244-.305-.041.122-.021.192.061.213.081.02.122.071.122.153-.082 0-.143.02-.183.061-.041.04-.041.081 0 .123.04-.083.07-.092.092-.031.004.014.01.026.016.035-.05.06-.046.118.014.178-.04.081-.072.092-.092.031-.02-.061-.051-.092-.091-.092l-.122.245a.712.712 0 0 0-.092-.153.653.653 0 0 1-.091-.153c-.082.122-.082.203 0 .245l.034.023c.045.045.033.119-.034.22l-.058.056a.682.682 0 0 1-.126.097c-.04.02-.04.092 0 .214-.04 0-.06-.082-.06-.244-.083 0-.113.06-.092.183.02.122-.03.162-.153.122 0-.082.02-.112.06-.092.041.02.063.01.063-.03-.042-.041-.062-.082-.062-.122-.163.244-.305.406-.427.488-.082 0-.092-.02-.03-.06.06-.042.05-.103-.03-.184-.042 0-.062.08-.062.244-.082 0-.122-.02-.122-.06 0-.042-.021-.062-.062-.062.04.203-.06.254-.304.153-.244-.103-.367-.092-.367.03-.61-.204-1.099-.53-1.465-.976a5.428 5.428 0 0 1-.885-1.588c-.224-.61-.407-1.26-.55-1.953a75.04 75.04 0 0 1-.396-2.076 28.285 28.285 0 0 1-.306-3.999c0-1.24.03-2.472.092-3.693.061-1.221.142-2.442.244-3.663.097-1.165.166-2.407.207-3.721-.04-.162-1.002.62-1.306 1.249-.305.631-.682 1.15-1.13 1.557-.162.448-.335.915-.518 1.404a4.857 4.857 0 0 1-.702 1.282c-.407.854-.794 1.709-1.16 2.564a14.26 14.26 0 0 1-1.343 2.442c.04.04.061.143.061.305a3.863 3.863 0 0 0-.58 1.16 8.948 8.948 0 0 1-.519 1.281c-.244.286-.519.419-.824.397a1.678 1.678 0 0 1-.855-.305 4.56 4.56 0 0 1-.763-.671 4.424 4.424 0 0 1-.55-.702c0-.04.042-.102.123-.183a2.959 2.959 0 0 1-.305-.794c-.082.041-.102.082-.061.122.04.041.06.082.06.122-.08-.04-.121-.101-.121-.183 0-.081.01-.162.03-.244a.485.485 0 0 0 0-.245c-.02-.08-.092-.122-.213-.122v-.305c.081-.04.102-.01.06.092-.04.102-.02.132.061.091a38.232 38.232 0 0 1 .163-7.601c-.025.005-.05.01-.082.012.075.074.006.116-.027.176-.034.06-.05.156-.12.237-.069.08-.065.177-.1.179 0 .024-.018.038-.047.049a3.322 3.322 0 0 1-.02.056c.032.038.046.087.023.158a.365.365 0 0 1-.154.21c.112.11.107.227-.014.349a1.008 1.008 0 0 1-.165.138l-.145.388a.48.48 0 0 1-.074.192c-.062.162-.124.32-.186.473 0 .037-.003.071-.001.112-.027.022-.048.05-.073.074-.148.362-.292.688-.424.952 0 .033-.002.064 0 .099-.017 0-.03-.003-.045-.005l.008-.015.002-.006-.001.003-.01.018c-.014.023-.026.05-.038.073l.018-.036.018-.031-.007.061-.013.062c-.048.157-.088.294-.12.412-.073-.035-.083-.064-.03-.086.053-.022.061-.05.024-.088a.752.752 0 0 0-.196.531c-.071.042-.115.054-.134.035-.019-.018-.045.012-.077.09.001.04.02.058.056.056.035-.002.053-.021.052-.06.035-.002.028.038-.023.117-.05.08-.094.16-.126.238.003.078.04.114.113.111.071-.003.073.036.004.116-.036.002-.054-.016-.056-.055-.001-.039-.039-.057-.11-.054.003.078-.438.567-.575.747-.137.18-.168.327-.091.44.073.035.074.054.002.057-.072.003-.089.044-.05.119a.183.183 0 0 1-.114-.17c-.003-.076-.041-.114-.113-.11-.033.079-.022.117.032.114.054-.002.082.017.083.055a1.58 1.58 0 0 1-.304.536.75.75 0 0 0-.195.531c-.073.003-.1-.004-.083-.025.017-.02-.01-.029-.082-.026.003.078.04.115.113.112-.035.04-1.36.848-1.374.906-.208.26-.546.227-.96.19-.415-.037-1.12.167-1.566-.084-.222.043-.432-.155-.592-.329-.444-.389-.867-.806-1.048-1.519a10.97 10.97 0 0 1-.333-1.977l.083.291c.05.195.09.39.121.584l.038.292c.04.389.181.756.423 1.102 0-.432-.101-.897-.302-1.394-.202-.496-.282-1.048-.242-1.653-.081-.043-.111-.033-.09.032.02.065-.01.076-.091.033a.627.627 0 0 0-.06-.26c-.041-.086-.021-.172.06-.26.201.088.291-.053.272-.42a5.283 5.283 0 0 0-.091-.81l-.051.094a.433.433 0 0 0-.04.262c.02.108.03.249.03.421-.08-.086-.11-.107-.09-.065.02.044-.01.065-.09.065 0-.88.035-1.646.105-2.305-.05.062-.163.325-.409 1.028-.044.128-.85 2.07-.943 2.203-.09.126-.189.234-.274.323-.08.06-.168.234-.247.383-.08.156-.156.316-.23.478-.048.081-.049.15-.159.288-.083.086-.152.136-.226.19-.145.106-.29.198-.434.29a1.838 1.838 0 0 0-.368.303l-.18.188c-.06.058-.124.142-.246.2-.25.091-.4.042-.558.077a.986.986 0 0 0-.221.058c-.027.007-.079-.006-.14-.028.002 0-.22-.054-.392-.111a4.78 4.78 0 0 1-.287-.032l-.157-.02a.29.29 0 0 1-.075-.056c-.099-.055-.192-.145-.287-.208-.07-.094.08.038.089.012a7.468 7.468 0 0 0-.153-.155.402.402 0 0 1-.204.002 3.833 3.833 0 0 1-.323-.226c.09.05-.004-.03-.004-.043-.033.008-.098-.036-.237-.095a.501.501 0 0 1-.117-.142c-.033-.083-.309-.098-.344-.241a.922.922 0 0 1-.01-.026c-.05-.067-.103-.108-.195-.305l.02-.02c-.081-.185-.119-.171-.194-.418a16.027 16.027 0 0 1-.314-1.192l.023-.018c-.097-.17-.146-.606-.21-.851a9.477 9.477 0 0 1 .02-1.515c-.066-.758-.011-1.444.228-2.186l-.002.139c.013-.143.048-.078.083-.21-.078.137.02-.194.035-.294.148-.31.44-.721.553-1.001l-.101.003c.045-.147.122-.294.188-.44.053-.135.128-.344.202-.51.027-.037.075-.09.115-.196.043-.21.088-.308.193-.595.052-.098.106-.234.204-.358l.257-.302c.223-.342.47-.674.722-1.007l.378-.501c.12-.168.264-.346.432-.496l.2-.014c.088-.083.188-.156.285-.223l.278-.207c.114-.086.214-.087.29-.105l.23-.036c.146-.023.276-.055.386-.11.054-.027.091-.062.186-.115a2.68 2.68 0 0 1 .209-.097l.373-.151-.045.075c.207-.055.461-.163.399-.186.21-.047.514-.17.66-.151.22-.035.263-.078.455-.107.42 0 .594.015.934.07-.024.008-.013.026.071.045.162.009.57.185.433.068.153.067.474.275.726.574-.018-.071-.025-.133-.004-.178.08-.173.161-.367.242-.584.04 0 .06.044.06.13a.995.995 0 0 0 .182-.584.228.228 0 0 0-.06.163c0 .064-.041.14-.121.226 0-.345.1-.69.301-1.037.201-.346.341-.57.69-.979.202-.215.132-.51.414-.532.281-.021 1.079-.217 1.16.085.16 0 .281.032.363.097.08.065.18.097.301.097.201.26.363.616.483 1.07.121.454-.07.93-.049 1.426.02.498-.01.973-.09 1.427-.082.453-.222.832-.423 1.134 0 .476-.101.866-.302 1.167-.193.29-.31.6-.355.928l.001-.004.007-.023c.013-.04.017-.051-.001.02l-.014.052c-.102.367.089.789.048 1.264-.08.043-.12-.021-.12-.195a.402.402 0 0 0-.09.163c-.021.064-.03.032-.03-.098-.082.087-.092.162-.031.227.06.065.05.14-.03.227a.208.208 0 0 0 .12-.194c0-.087.04-.108.122-.065 0 .087-.021.152-.06.194-.041.044-.061.13-.061.26-.082-.087-.12-.087-.12 0s-.137.173-.177.259c0 .087.02.097.06.032.04-.065.08-.053.121.033a.425.425 0 0 0-.18.227c-.27.648-.427 1.05-.502 2.407-.04 0-.196.495-.196.71.08 0 .12-.02.12-.064 0-.043.02-.087.06-.13.081.13.11.314.091.55-.02.24-.175 1.387-.094 1.603-.081 0-.111-.033-.09-.097.02-.065-.05-.866-.13-.866.08.347.17 1.417.19 1.676.02.26.05.562.09.908-.08.173-.16.217-.241.13 0 .087.03.129.09.129.061 0 .091-.042.091-.13.08.13.07.185-.03.162-.101-.02-.131.055-.09.227 0 .088.009.088.03 0 .015-.07.052-.08.108-.037.037.51.268.742.405.71.245-.059.583-.44.69-.585.307-.416.9-1.392 1.072-1.651.173-.26.76-1.474 1.175-2.327.414-.853.974-2.585 1.077-2.77.104-.186 1.734-3.737 1.975-5.035.203-1.087 1.911-5.323 2.46-6.67.171-.497.36-1.018.58-1.597.854-2.258 1.709-4.426 2.563-6.501.059-.147.722-.417.947-.641.223-.224.559-.376 1.007-.458.203 0 .417.01.641.03.223.021.417.072.58.153.04.204.101.377.183.519.081.143.162.316.244.519.102.163-.457.723-.64 1.19a3.9 3.9 0 0 0-.275 1.435c-.205.814-.438 1.669-.703 2.564-.264.896-.499 1.77-.701 2.625-.449 1.506-.526 2.13-.892 3.778a55.951 55.951 0 0 1-1.221 4.61c.04 0 .06-.04.06-.123.123.041.142.082.062.122a.396.396 0 0 0-.183.183c.04.083.06.083.06 0 0-.08.04-.1.123-.06-.082.081-.133.203-.153.365-.021.164-.071.245-.153.245 0 .082.02.132.062.152.04.022.04.072 0 .153-.041.082-.052.071-.031-.03.02-.101.01-.153-.031-.153a.955.955 0 0 1-.244.366c.04.041.081.052.122.03.04-.02.061.011.061.093.04-.04.061-.082.061-.123.082.041.07.092-.03.153-.102.06-.092.133.03.213-.04.083-.071.083-.09 0-.022-.08-.073-.1-.154-.06.163.244.183.468.061.671-.082 0-.102-.02-.061-.06.04-.04.061-.102.061-.184a1.159 1.159 0 0 0-.213.305c-.062.122-.052.224.03.305.081-.04.092-.091.03-.152-.06-.061-.05-.112.031-.153.081.122.081.235 0 .336-.082.102-.102.193-.06.275-.123-.082-.174-.082-.153 0 .02.081-.03.143-.153.183.081.04.111.091.092.152-.021.061-.072.072-.153.03.04.123.091.164.153.123.06-.04.091-.02.091.06-.041.123-.122.123-.244 0a.825.825 0 0 1 .03.58c-.06.184-.112.378-.152.581-.041-.04-.061-.122-.061-.244a.415.415 0 0 0-.092.213c-.02.102-.071.092-.152-.03v.366c0 .082-.041.183-.123.305h.183a.258.258 0 0 0 0 .244c-.081-.04-.112-.03-.091.031.02.061.01.133-.03.214.08-.04.121-.092.121-.153 0-.06.04-.07.123-.03-.082.204-.183.285-.306.244 0 .082.02.113.062.091.04-.02.08.011.121.092.04-.04.062-.081.062-.122 0-.04.02-.081.06-.122v.275c0 .101-.02.254-.06.458-.083 0-.163.04-.245.121-.04.082-.04.123 0 .123s.062.04.062.122c-.083.082-.123.02-.123-.183 0-.204.061-.285.184-.245a1.545 1.545 0 0 0-.214-.183.88.88 0 0 1-.214-.244c.02-.039.039-.063.059-.074a.327.327 0 0 1-.059-.048.657.657 0 0 0 0 .397c.04.143.02.296-.06.458.08 0 .121-.02.121-.061 0-.04.02-.082.062-.123.08.245.161.449.244.61 0 .042-.021.062-.062.062-.028 0-.035.02-.024.06a.445.445 0 0 1-.037-.151c0-.062-.04-.132-.121-.214-.083.04-.083.082 0 .122.08.04.1.082.06.122-.122 0-.183-.04-.183-.122-.082.04-.082.082 0 .122.081.04.101.102.061.183l.081.034a.511.511 0 0 0 .163.027c0 .122.02.204.062.244.04.041.06.103.06.183a31.93 31.93 0 0 0 1.252-2.106c.386-.711.763-1.434 1.13-2.167a6.01 6.01 0 0 1 .335-.305c.142-.122.173-.284.091-.489.123.083.235.021.336-.183a4.02 4.02 0 0 0 .214-.488c.285-.04.448-.173.489-.397.04-.223.182-.376.427-.458.244-.488.57-.885.977-1.19.406-.305.834-.62 1.282-.946.078-.065 1.047.06 1.556.06.509 0 .886.164 1.13.49.406.65.64 1.333.702 2.044.06.713.05 1.435-.03 2.168a37.845 37.845 0 0 1-.306 2.167 12.101 12.101 0 0 0-.183 2.045h-.122c.04.04.06.091.06.152s.02.133.062.214c-.082-.081-.092-.01-.03.214.06.224.01.376-.153.458 0 .04.04.051.122.03.08-.02.08-.01 0 .03 0 .123-.01.153-.03.092-.022-.061-.052-.092-.092-.092 0 .123-.021.184-.061.184.04.082.122.102.244.06-.122.205-.122.367 0 .49-.055.054-.09.063-.109.026l-.009-.031.037.436c.034.499.046 1.012.037 1.54l-.017.531c-.041.896-.021 1.811.061 2.747-.082 0-.122-.04-.122-.122a.386.386 0 0 0 .03.336c.061.102.092.235.092.397-.041-.04-.051-.092-.03-.153.02-.06-.011-.07-.092-.03 0 .163.03.295.091.396.062.102.05.214-.03.336.122-.04.142 0 .061.122-.082.122-.082.204 0 .244 0 .082-.02.143-.061.184-.041.04-.061.102-.061.183.122 0 .203.02.244.06-.204.205-.244.449-.122.733.122.286.081.55-.122.794-.041 0-.061-.04-.061-.122-.042.041-.061.072-.061.091 0 .021-.021.052-.061.092.08.082.131.091.153.03.02-.06.07-.091.152-.091a.586.586 0 0 1-.183.427c.04 0 .06.041.06.122.082-.162.123-.183.123-.06 0 .121.04.223.122.304 0 .083-.03.103-.091.062-.062-.04-.092-.082-.092-.122-.082.081-.091.152-.03.213.06.061.091.133.091.214-.122-.122-.152-.112-.092.03.061.143.03.193-.091.153-.042.08-.03.122.03.122.061 0 .07.04.03.122a.435.435 0 0 0 .123-.013v.227c0 .142.04.295.122.458.08-.082.1-.183.061-.305.162.284.162.508 0 .671.04.081.092.06.152-.061.062-.122.092-.102.092.061.04-.04.062-.082.062-.122 0-.041.02-.082.06-.122.081.04.112.1.092.183-.021.081.01.122.092.122.813-1.059 1.454-2.268 1.923-3.632A31.42 31.42 0 0 1 71.3 38.23a4.84 4.84 0 0 1 .428-1.221c.203-.406.406-.794.61-1.16-.082-.203-.06-.335.061-.397.122-.06.162-.192.122-.396.082-.04.122-.051.122-.031 0 .02.02.03.061.03a3.82 3.82 0 0 1 .52-1.495c.264-.427.436-.905.518-1.435l.123.122c0-.08.05-.213.152-.396.101-.184.132-.315.092-.397 0-.04.01-.05.03-.03.02.02.03.05.03.09a2.37 2.37 0 0 1 .336-.58.928.928 0 0 0 .214-.579c.57-1.017 1.44-4.268 1.897-5.326.491-1.139 1.018-3.036 1.404-4.47.656-2.963 1.257-5.347 2.226-8.286 0-.08.352-1.152.291-1.152-.06 0-.071-.04-.03-.122.406-.895.742-1.831 1.007-2.808.264-.977 1.033-2.41 1.374-2.503ZM66.844 41.894c0 .122-.021.275-.061.458-.041.183-.021.336.06.458.082-.04.092-.122.032-.245-.062-.122-.011-.161.152-.122a.285.285 0 0 1-.092-.274.293.293 0 0 0-.091-.275Zm9.634-1.408c-.082.285-.082.489 0 .61.204 0 .305-.06.305-.183-.081-.04-.132-.03-.153.03-.02.062-.07.093-.152.093v-.184c.082.041.132.031.152-.03.021-.061.072-.05.153.03-.04-.08-.05-.152-.03-.213.02-.061-.01-.092-.092-.092-.04.082-.051.123-.03.123.02 0 .03.02.03.06-.081-.08-.112-.091-.092-.03.021.06.01.112-.03.152-.04-.08-.04-.142 0-.182.04-.04.02-.102-.061-.184Zm20.282-13.52c-.285-.048-.732-.075-1.065.018-.054-.022-.204.041-.174.003-.163.08-.492.385-.724.728l.008-.013c-.096.1-.186.207-.287.313l-.163.157c-.107.088-.157.12-.224.186a2.945 2.945 0 0 0-.192.202c-.001.006-.007.021-.01.01-.126.104-.12.224-.225.264-.052.081-.008.076.022.025l-.004.004-.191.301c-.126.21-.245.43-.365.654l-.182.34c-.064.115-.124.228-.204.35-.025.033-.036.057-.089.11-.025.026-.039.037-.056.06a1.32 1.32 0 0 0-.1.129 5.688 5.688 0 0 0-.352.64c-.358.63-.125-.013-.33.525-.032.037.01.042-.007.043-.084.214-.23.285-.27.445.066-.037-.03.107-.01.126-.236.367-.176.406-.27.745l-.011-.032c-.083.394-.224.843-.186 1.18-.017.142-.018.242-.022.413-.013.18-.054.327-.096.472-.087.286-.19.549-.278.807a3.36 3.36 0 0 0-.187.75c-.011.12-.008.23.013.333l.076.421c.045.274.086.543.179.7.048.078.083.103.136.116.025.007.072.01.1.007a.265.265 0 0 0 .087-.033c.17-.097.385-.295.578-.475l.59-.573c.384-.378.657-.776 1.016-1.15.355-.373.597-.823.946-1.298.166-.235.407-.456.545-.623.153-.19.284-.407.4-.639.117-.231.22-.477.32-.73.103-.244.242-.597.374-.798.3-.41.316-.454.55-.97h-.001l-.002.019c-.002.012-.004.022 0 .02l.012-.011c-.03-.047.173-.363.154-.432l.142-.293.236-.514.43-.964.177-.884a.277.277 0 0 1 .035-.173l.022-.107c.023-.058.047-.11.07-.167-.26-.338-.598-.618-.955-.728Zm22.076 8.664a.383.383 0 0 0-.092.153c-.06-.061-.091-.07-.091-.03.081.081.091.182.03.305a.816.816 0 0 0-.091.366c.04.082.07.091.092.03.02-.06.05-.05.09.031-.081 0-.121.061-.121.183s.04.183.122.183c-.082-.08-.091-.172-.03-.275.06-.1.131-.131.213-.09-.04-.082-.04-.113 0-.093.04.021.061-.01.061-.091a.697.697 0 0 0-.03-.214c-.021-.06-.011-.111.03-.153 0 .083.062.123.183.123v-.306c-.082 0-.121-.009-.121-.03 0-.02-.022-.03-.062-.03-.082.04-.122.09-.122.152 0 .061-.02.091-.061.091a.134.134 0 0 0-.021-.063l.02.002Zm.733-1.16c.081.082.091.144.03.184-.06.04-.112.04-.153 0 .04.04.081.091.123.152.04.061.02.113-.061.153 0-.04-.042-.092-.123-.153-.082-.06-.082-.05 0 .03 0 .042.01.062.031.062.02 0 .01.041-.03.122-.041 0-.062-.01-.062-.03l-.007-.018c-.009-.009-.027-.013-.054-.013 0 .082.02.122.061.122.04 0 .061.04.061.122-.082 0-.143.052-.183.153a.321.321 0 0 0 0 .274c.081-.162.163-.284.244-.366a.49.49 0 0 1 .083-.07c-.054-.018-.083-.075-.083-.174.081.04.123.03.123-.03 0-.062.04-.071.122-.031-.083-.123-.083-.214 0-.275.08-.061.04-.132-.122-.213ZM44.258 21.764c-.255-.035-.652-.044-.94.057-.049-.02-.178.046-.154.009-.139.081-.411.384-.596.718l.001-.002.004-.006.004-.01c-.122.155-.225.315-.371.468-.09.087-.132.119-.189.184a2.786 2.786 0 0 0-.156.2c0 .005-.005.02-.008.009-.105.103-.092.218-.184.26-.04.078-.002.071.021.023l-.003.004-.15.292c-.099.203-.19.417-.283.635l-.141.33c-.049.11-.096.22-.16.338-.02.033-.028.056-.07.108-.021.026-.033.037-.047.059a1.309 1.309 0 0 0-.08.126 5.295 5.295 0 0 0-.273.622c-.279.61-.111-.008-.26.51-.026.036.01.04-.004.041-.061.206-.186.28-.213.432.057-.038-.018.104 0 .12-.187.358-.246.397-.308.723l-.013-.03-.027.192c-.04.26-.087.532-.081.766l.015.168c-.006.136-.012.492-.005.655 0 .172-.028.312-.056.451-.06.275-.135.528-.198.777a3.331 3.331 0 0 0-.12.719c-.003.113.007.218.032.315l.092.397c.057.259.24.83.331.976.047.072.08.094.128.105a.274.274 0 0 0 .088.003.207.207 0 0 0 .075-.035c.145-.098.323-.294.482-.472l.486-.566c.318-.373.79-1.344 1.086-1.712.29-.368.347-.804.626-1.268.134-.229.334-.447.445-.61.124-.187.097-.398.185-.622.09-.225.165-.461.238-.706.077-.235.18-.575.283-.771.24-.4.252-.442.428-.941 0 .024-.01.055.01.026-.03-.043.13-.35.11-.416l.107-.283c.06-.167.542-.859.601-1.024a.386.386 0 0 1 .076-.145c-.102-.071-.214-.144-.248-.199a2.829 2.829 0 0 1-.234-.384c-.01-.065-.1-.235-.1-.318.018-.06.045-.475.103-.49.004-.001-.019-.233-.014-.233-.266-.383-.009-.46-.383-.565Zm83.004-4.183.143.007c.193.022.38.106.51.214 0 0 .029.085-.01.1.088.057.173.123.247.193-.109.042-.21.038-.178.069.003.01.014.016.023.026.044.046.08.1.121.148.01-.01.017-.023.025-.026.007.021.011.048.016.076.32.4.535.879.64 1.467.01.061.01.11.015.165.025.103.039.218.03.342-.012.192-.065.382-.081.535-.04.184-.075.04-.162.287-.045.127-.093.263-.143.416-.229.682-.67 1.123-1.346 1.344-.022.008-.042.01-.065.017-.031.024-.076.005-.109.028-.128.03-.253.051-.367.051-.105 0-.204-.017-.3-.044a.367.367 0 0 1-.13-.02c-.2-.058-.374-.198-.543-.323-.166-.12-.365-.297-.436-.536a2.885 2.885 0 0 1-.118-1.346c.009-.184.034-.413-.021-.462.053-.135.09-.304.143-.518-.017-.014.043.04.079-.053.001-.076.005-.155.013-.234l.024-.008c-.033-.122.156-.374.165-.5l.035.038c.075-.215.28-.451.347-.627.008.076.087-.052.156-.127 0 0 .088.06.165-.043-.022.04.042-.06.17-.118l-.047-.034c.186-.075.19-.117.39-.216.036-.067-.02-.142.116-.208.044.015.053.05.198.004.006-.022-.05-.02-.095-.022.145-.044.329-.078.523-.055Zm30.678-1.412c.022.036-.004.075.136.094.015-.021-.03-.043-.064-.068.276.041.616.152.837.347-.148-.052.014.088-.024.11l-.143-.02c.01.055-.044.077-.068.105.03.018.055.04.083.058.006-.005.018-.007.055.007.022.052.07.077.123.118l-.005.001c.055.045.105.094.154.144.009-.012.016-.023.024-.028a.257.257 0 0 1 .01.059c.14.15.248.316.301.495.136.46.206.715.162 1.038.005.247-.143.573-.173.804-.032-.03-.022.016-.01.027-.063.15-.113.089-.23.355-.31.705-.48.734-.889.804-.247.042-.117.104-.487.284a1.014 1.014 0 0 1-.287.056c-.01.007-.021.004-.033.003v-.001l-.025.002-.018-.001-.02.004a5.71 5.71 0 0 1-.343.014c-.076 0-.147-.054-.233-.152a.308.308 0 0 1-.09-.073l-.537-.594c-.211-.25-.233-.54-.268-.808a3.376 3.376 0 0 1 .03-.808c.003-.168.021-.382-.05-.431.06-.126.084-.29.16-.504-.02-.016.05.047.09-.032l.008-.214.027-.004c-.043-.116.143-.335.138-.464l.044.041c.058-.207.562-.633.547-.59.106-.093.163-.02.177-.009.147-.015.14-.12.287-.091l-.023-.065c.202.056.231.02.443.1.07-.041.072-.11.184-.113Z" fill="#FFF" fill-rule="evenodd"/></svg>