<?xml version="1.0" encoding="UTF-8"?>
<svg width="80px" height="32px" viewBox="0 0 80 32" version="1.1" xmlns="http://www.w3.org/2000/svg" xmlns:xlink="http://www.w3.org/1999/xlink">
    <!-- Generator: Sketch 63.1 (92452) - https://sketch.com -->
    <title>Apple Watch 40mm</title>
    <desc>Created with Sketch.</desc>
    <g id="Apple-Watch-40mm" stroke="none" stroke-width="1" fill="none" fill-rule="evenodd">
        <g id="Group" transform="translate(-0.500000, 0.000000)" fill="#FFC03F">
            <polygon id="Star-2" points="8.50134277 12.4661863 4.09295338 14.7838137 4.93488084 9.875 1.3684189 6.39855881 6.29714808 5.68237254 8.50134277 1.21618627 10.7055375 5.68237254 15.6342666 6.39855881 12.0678047 9.875 12.9097322 14.7838137"></polygon>
            <polygon id="Star-2-Copy" points="24.5040283 12.4661863 20.0956389 14.7838137 20.9375664 9.875 17.3711044 6.39855881 22.2998336 5.68237254 24.5040283 1.21618627 26.708223 5.68237254 31.6369522 6.39855881 28.0704903 9.875 28.9124177 14.7838137"></polygon>
            <polygon id="Star-2-Copy-2" points="40.5067139 12.4661863 36.0983245 14.7838137 36.9402519 9.875 33.37379 6.39855881 38.3025192 5.68237254 40.5067139 1.21618627 42.7109086 5.68237254 47.6396377 6.39855881 44.0731758 9.875 44.9151033 14.7838137"></polygon>
            <polygon id="Star-2-Copy-3" points="56.5093994 12.4661863 52.10101 14.7838137 52.9429375 9.875 49.3764755 6.39855881 54.3052047 5.68237254 56.5093994 1.21618627 58.7135941 5.68237254 63.6423233 6.39855881 60.0758614 9.875 60.9177888 14.7838137"></polygon>
            <polygon id="Star-2-Copy-4" points="72.512085 12.4661863 68.1036956 14.7838137 68.945623 9.875 65.3791611 6.39855881 70.3078903 5.68237254 72.512085 1.21618627 74.7162797 5.68237254 79.6450088 6.39855881 76.0785469 9.875 76.9204744 14.7838137"></polygon>
        </g>
        <g id="Group" transform="translate(-0.500000, 16.000000)" fill="#929B9A">
            <polygon id="Star-2" points="8.50134277 12.4661863 4.09295338 14.7838137 4.93488084 9.875 1.3684189 6.39855881 6.29714808 5.68237254 8.50134277 1.21618627 10.7055375 5.68237254 15.6342666 6.39855881 12.0678047 9.875 12.9097322 14.7838137"></polygon>
            <polygon id="Star-2-Copy" points="24.5040283 12.4661863 20.0956389 14.7838137 20.9375664 9.875 17.3711044 6.39855881 22.2998336 5.68237254 24.5040283 1.21618627 26.708223 5.68237254 31.6369522 6.39855881 28.0704903 9.875 28.9124177 14.7838137"></polygon>
            <polygon id="Star-2-Copy-2" points="40.5067139 12.4661863 36.0983245 14.7838137 36.9402519 9.875 33.37379 6.39855881 38.3025192 5.68237254 40.5067139 1.21618627 42.7109086 5.68237254 47.6396377 6.39855881 44.0731758 9.875 44.9151033 14.7838137"></polygon>
            <polygon id="Star-2-Copy-3" points="56.5093994 12.4661863 52.10101 14.7838137 52.9429375 9.875 49.3764755 6.39855881 54.3052047 5.68237254 56.5093994 1.21618627 58.7135941 5.68237254 63.6423233 6.39855881 60.0758614 9.875 60.9177888 14.7838137"></polygon>
            <polygon id="Star-2-Copy-4" points="72.512085 12.4661863 68.1036956 14.7838137 68.945623 9.875 65.3791611 6.39855881 70.3078903 5.68237254 72.512085 1.21618627 74.7162797 5.68237254 79.6450088 6.39855881 76.0785469 9.875 76.9204744 14.7838137"></polygon>
        </g>
    </g>
</svg>